<svg id="Layer_1" data-name="Layer 1" xmlns="http://www.w3.org/2000/svg" viewBox="0 0 670.12 150"><defs><style>.cls-1{fill:#2889ce;}.cls-1,.cls-2,.cls-3{fill-rule:evenodd;}.cls-3{fill:#4bb779;}.cls-4{fill:#ff6155;}</style></defs><title>cv-logo</title><g id="_Group_" data-name="&lt;Group&gt;"><path id="_Path_" data-name="&lt;Path&gt;" class="cls-1" d="M36.68,17.22H65.32a3.21,3.21,0,0,1,3.2,3.2V49.07a3.21,3.21,0,0,1-3.2,3.2H36.68a3.21,3.21,0,0,1-3.2-3.2V20.42a3.21,3.21,0,0,1,3.2-3.2Z"/><path id="_Path_2" data-name="&lt;Path&gt;" class="cls-2" d="M11,39.9H30v9.59a3.67,3.67,0,0,0,3.66,3.66H27a5.38,5.38,0,0,0-5.36,5.36v48A5.38,5.38,0,0,0,27,111.85H75a5.38,5.38,0,0,0,5.36-5.36v-48A5.38,5.38,0,0,0,75,53.16h-6.6A3.67,3.67,0,0,0,72,49.49V39.9H91a2.57,2.57,0,0,1,2.56,2.56v80.07A2.57,2.57,0,0,1,91,125.1H11a2.57,2.57,0,0,1-2.56-2.56V42.47A2.57,2.57,0,0,1,11,39.9Z"/><path id="_Path_3" data-name="&lt;Path&gt;" class="cls-3" d="M31.41,58.52H70.6A4.39,4.39,0,0,1,75,62.9V102.1a4.4,4.4,0,0,1-4.38,4.38H31.41A4.4,4.4,0,0,1,27,102.1V62.9a4.39,4.39,0,0,1,4.38-4.38Z"/></g><path d="M155,62.57c7.24,0,21.59,3,21.59,13.17v6.17H166.2V78.59c0-4.27-6.76-6.17-11.15-6.17-11.75,0-20.52,8.78-20.52,21.47,0,13.64,10,21.35,21.12,21.35s18.63-8.3,18.63-8.3l5,8.19a33,33,0,0,1-24.44,10.32c-18.86,0-32-13.41-32-31.44C122.78,76.33,135.71,62.57,155,62.57Z"/><path d="M188.14,76.21a3.39,3.39,0,0,0-3.68-2.37h-1.19V64h5.93c5.34,0,7.36,1.3,9.14,6.05l12.93,34.52a72.76,72.76,0,0,1,2.13,7.83h.24a72.62,72.62,0,0,1,2.14-7.83L228.6,70c1.78-4.75,3.92-6.05,9.14-6.05h5.58v9.85h-1.19c-2,0-3.2.59-3.92,2.37L219.94,124H206.65Z"/><path d="M285.89,107.18s7.12,8.9,18.15,8.9c5.58,0,10.44-2.49,10.44-7.71,0-10.8-32.74-9.61-32.74-28.95,0-11.51,10.08-16.85,22.3-16.85,7.24,0,19.69,2.49,19.69,11.63v5.69H313.42v-3c0-3.56-5.34-5.1-9-5.1-6.76,0-11.15,2.37-11.15,7.12,0,11.39,32.74,8.9,32.74,28.95,0,10.68-9.49,17.56-22.07,17.56-16,0-24-10.56-24-10.56Z"/><path d="M365,62.57c16.85,0,25.86,12.58,25.86,28.12,0,1.54-.36,4.74-.36,4.74H346.75c.71,12.81,10,20.05,20.64,20.05,10.32,0,17.56-7,17.56-7l5,8.19a35.13,35.13,0,0,1-23.13,8.78c-19,0-31.91-13.64-31.91-31.44C334.89,74.91,347.94,62.57,365,62.57ZM379,87c-.36-10-6.64-15.3-14.12-15.3-8.78,0-15.9,5.34-17.68,15.3Z"/><path d="M406.18,76.45a2.32,2.32,0,0,0-2.61-2.61h-4.86V64h10.91c5.22,0,7.71,2.13,7.71,7v3.8a34.93,34.93,0,0,1-.24,4.15h.24c2.85-8.78,9.73-15.66,19-15.66a23.18,23.18,0,0,1,3.08.24V74.91a17,17,0,0,0-3.44-.36c-7.35,0-14.12,5.22-16.85,14.12a36.48,36.48,0,0,0-1.42,10.8V124H406.18Z"/><path d="M450,76.21a3.39,3.39,0,0,0-3.68-2.37h-1.19V64H451c5.34,0,7.36,1.3,9.14,6.05l12.93,34.52a72.76,72.76,0,0,1,2.13,7.83h.24a72.62,72.62,0,0,1,2.14-7.83L490.41,70c1.78-4.75,3.92-6.05,9.14-6.05h5.58v9.85h-1.19c-2,0-3.2.59-3.92,2.37L481.75,124H468.46Z"/><path d="M517.34,76.45a2.32,2.32,0,0,0-2.61-2.61h-4.86V64h11.27c5.34,0,7.59,2.25,7.59,7.59v40a2.32,2.32,0,0,0,2.61,2.61h4.86V124H524.93c-5.34,0-7.59-2.25-7.59-7.59Z"/><rect class="cls-4" x="517.57" y="40.27" width="10.32" height="11.98"/><path d="M575.82,62.57c7.24,0,21.59,3,21.59,13.17v6.17H587V78.59c0-4.27-6.76-6.17-11.15-6.17-11.75,0-20.52,8.78-20.52,21.47,0,13.64,10,21.35,21.12,21.35s18.63-8.3,18.63-8.3l5,8.19a33,33,0,0,1-24.44,10.32c-18.86,0-32-13.41-32-31.44C543.55,76.33,556.48,62.57,575.82,62.57Z"/><path d="M636.92,62.57c16.85,0,25.86,12.58,25.86,28.12,0,1.54-.36,4.74-.36,4.74H618.65c.71,12.81,10,20.05,20.64,20.05,10.32,0,17.56-7,17.56-7l5,8.19a35.13,35.13,0,0,1-23.13,8.78c-19,0-31.91-13.64-31.91-31.44C606.78,74.91,619.83,62.57,636.92,62.57Zm14,24.44c-.36-10-6.64-15.3-14.12-15.3C628,71.71,620.9,77,619.12,87Z"/></svg>