<svg id="Layer_1" data-name="Layer 1" xmlns="http://www.w3.org/2000/svg" viewBox="0 0 670.12 150"><defs><style>.cls-1{fill:#2889ce;}.cls-1,.cls-2,.cls-3{fill-rule:evenodd;}.cls-3{fill:#4bb779;}.cls-4{fill:#333;}</style></defs><title>discovery-logo</title><g id="_Group_" data-name="&lt;Group&gt;"><path id="_Path_" data-name="&lt;Path&gt;" class="cls-1" d="M62.68,10.58H91.32a3.21,3.21,0,0,1,3.2,3.2V42.43a3.21,3.21,0,0,1-3.2,3.2H62.68a3.21,3.21,0,0,1-3.2-3.2V13.78a3.21,3.21,0,0,1,3.2-3.2Z"/><path id="_Path_2" data-name="&lt;Path&gt;" class="cls-2" d="M37,33.26H56v9.59a3.67,3.67,0,0,0,3.66,3.66H53a5.38,5.38,0,0,0-5.36,5.36v48A5.38,5.38,0,0,0,53,105.21h48a5.38,5.38,0,0,0,5.36-5.36v-48A5.38,5.38,0,0,0,101,46.52h-6.6A3.67,3.67,0,0,0,98,42.85V33.26h19a2.57,2.57,0,0,1,2.56,2.56v80.07a2.57,2.57,0,0,1-2.56,2.56H37a2.57,2.57,0,0,1-2.56-2.56V35.83A2.57,2.57,0,0,1,37,33.26Z"/><path id="_Path_3" data-name="&lt;Path&gt;" class="cls-3" d="M57.41,51.88H96.6A4.39,4.39,0,0,1,101,56.26V95.46a4.4,4.4,0,0,1-4.38,4.38H57.41A4.4,4.4,0,0,1,53,95.46V56.26a4.39,4.39,0,0,1,4.38-4.38Z"/></g><path d="M174.79,61.48c12.87,0,17.16,8.58,17.16,8.58h.22a31.39,31.39,0,0,1-.22-3.74v-14a2.15,2.15,0,0,0-2.42-2.42H185V40.8h10.56c5,0,7,2.09,7,7v59.07a2.15,2.15,0,0,0,2.42,2.42h4.51v9.13H199.32c-4.84,0-6.82-2.2-6.82-5.94,0-1.65.11-2.86.11-2.86h-.22s-4.62,10.12-18.26,10.12c-15.07,0-24.53-11.88-24.53-29.15C149.6,72.92,160,61.48,174.79,61.48Zm17.49,29c0-9.9-5.17-19.8-15.84-19.8-8.69,0-16,7.26-16,19.91,0,12.1,6.49,19.91,15.73,19.91C184.47,110.54,192.28,104.71,192.28,90.52Z"/><path d="M222,74.35a2.15,2.15,0,0,0-2.42-2.42H215V62.8H225.5c5,0,7,2.09,7,7v37.07a2.15,2.15,0,0,0,2.42,2.42h4.51v9.13H229c-5,0-7-2.09-7-7Z"/><rect class="cls-4" x="222.2" y="40.8" width="9.57" height="11.11"/><path d="M250.8,102.84s6.6,8.25,16.83,8.25c5.17,0,9.68-2.31,9.68-7.15,0-10-30.36-8.91-30.36-26.84,0-10.67,9.35-15.62,20.68-15.62,6.71,0,18.26,2.31,18.26,10.78v5.28h-9.57V74.79c0-3.3-5-4.73-8.36-4.73-6.27,0-10.34,2.2-10.34,6.6,0,10.56,30.36,8.25,30.36,26.84,0,9.9-8.8,16.28-20.46,16.28-14.85,0-22.22-9.79-22.22-9.79Z"/><path d="M326.15,61.48c6.71,0,20,2.75,20,12.21v5.72h-9.68V76.33c0-4-6.27-5.72-10.34-5.72-10.89,0-19,8.14-19,19.91,0,12.65,9.24,19.8,19.58,19.8s17.27-7.7,17.27-7.7l4.62,7.59a30.64,30.64,0,0,1-22.66,9.57c-17.49,0-29.7-12.43-29.7-29.15C296.23,74.24,308.22,61.48,326.15,61.48Z"/><path d="M384.77,61.48c16.61,0,30,12.21,30,29s-13.42,29.26-30,29.26-29.92-12.32-29.92-29.26S368.17,61.48,384.77,61.48Zm0,49.06c10.56,0,19.14-8.36,19.14-20s-8.58-19.8-19.14-19.8-19,8.25-19,19.8S374.32,110.54,384.77,110.54Z"/><path d="M423.6,74.13a3.14,3.14,0,0,0-3.41-2.2h-1.1V62.8h5.5c5,0,6.82,1.21,8.47,5.61l12,32a67.41,67.41,0,0,1,2,7.26h.22a67.27,67.27,0,0,1,2-7.26l11.88-32c1.65-4.4,3.63-5.61,8.47-5.61h5.17v9.13h-1.1c-1.87,0-3,.55-3.63,2.2l-16.94,44.33H440.76Z"/><path d="M507,61.48c15.62,0,24,11.66,24,26.07,0,1.43-.33,4.4-.33,4.4H490c.66,11.88,9.24,18.59,19.14,18.59,9.57,0,16.28-6.49,16.28-6.49l4.62,7.59a32.57,32.57,0,0,1-21.45,8.14C491,119.78,479,107.13,479,90.63,479,72.92,491.14,61.48,507,61.48Zm13,22.66c-.33-9.24-6.16-14.19-13.09-14.19-8.14,0-14.74,5-16.39,14.19Z"/><path d="M545.15,74.35a2.15,2.15,0,0,0-2.42-2.42h-4.51V62.8h10.12c4.84,0,7.15,2,7.15,6.49v3.52a32.23,32.23,0,0,1-.22,3.85h.22c2.64-8.14,9-14.52,17.6-14.52a21.6,21.6,0,0,1,2.86.22V72.92a15.81,15.81,0,0,0-3.19-.33c-6.82,0-13.09,4.84-15.62,13.09a33.85,33.85,0,0,0-1.32,10v22.77H545.15Z"/><path d="M592.89,132.32c4.29,0,7.7-3.08,9.79-8l2.53-6-19-44.11a3.22,3.22,0,0,0-3.52-2.2h-1.32V62.8h6.27c4.51,0,6.16,1.21,7.92,5.61l12.65,31.35a59.3,59.3,0,0,1,2,6.71h.22a49.6,49.6,0,0,1,1.87-6.71L623.8,68.41c1.65-4.4,3.63-5.61,8.14-5.61h6.38v9.13h-1.43a3.22,3.22,0,0,0-3.52,2.2l-22,54.34c-3.41,8.58-10.12,13.09-17.93,13.09a18.45,18.45,0,0,1-13.09-5.5l4.4-7.7A11.59,11.59,0,0,0,592.89,132.32Z"/></svg>