<svg id="Layer_1" data-name="Layer 1" xmlns="http://www.w3.org/2000/svg" viewBox="0 0 670.12 150"><defs><style>.cls-1{fill:#2889ce;}.cls-1,.cls-2,.cls-3{fill-rule:evenodd;}.cls-3{fill:#4bb779;}</style></defs><title>Artboard 18</title><g id="_Group_" data-name="&lt;Group&gt;"><path id="_Path_" data-name="&lt;Path&gt;" class="cls-1" d="M29.68,16.22H58.32a3.21,3.21,0,0,1,3.2,3.2V48.07a3.21,3.21,0,0,1-3.2,3.2H29.68a3.21,3.21,0,0,1-3.2-3.2V19.42a3.21,3.21,0,0,1,3.2-3.2Z"/><path id="_Path_2" data-name="&lt;Path&gt;" class="cls-2" d="M4,38.9H23v9.59a3.67,3.67,0,0,0,3.66,3.66H20a5.38,5.38,0,0,0-5.36,5.36v48A5.38,5.38,0,0,0,20,110.85H68a5.38,5.38,0,0,0,5.36-5.36v-48A5.38,5.38,0,0,0,68,52.16h-6.6A3.67,3.67,0,0,0,65,48.49V38.9H84a2.57,2.57,0,0,1,2.56,2.56v80.07A2.57,2.57,0,0,1,84,124.1H4a2.57,2.57,0,0,1-2.56-2.56V41.47A2.57,2.57,0,0,1,4,38.9Z"/><path id="_Path_3" data-name="&lt;Path&gt;" class="cls-3" d="M24.41,57.52H63.6A4.39,4.39,0,0,1,68,61.9V101.1a4.4,4.4,0,0,1-4.38,4.38H24.41A4.4,4.4,0,0,1,20,101.1V61.9a4.39,4.39,0,0,1,4.38-4.38Z"/></g><path d="M139.83,59.82c17,0,26.16,12.72,26.16,28.44,0,1.56-.36,4.8-.36,4.8H121.35c.72,13,10.08,20.28,20.88,20.28,10.44,0,17.76-7.08,17.76-7.08l5,8.28a35.53,35.53,0,0,1-23.4,8.88c-19.2,0-32.28-13.8-32.28-31.8C109.35,72.3,122.55,59.82,139.83,59.82ZM154,84.54c-.36-10.08-6.72-15.48-14.28-15.48-8.88,0-16.08,5.4-17.88,15.48Z"/><path d="M181.47,73.86a2.35,2.35,0,0,0-2.64-2.64h-4.92v-10h11.16c5.16,0,7.68,2.28,7.68,6.72v2.28a25.55,25.55,0,0,1-.24,3.48h.24a24.72,24.72,0,0,1,22.8-13.92c14.4,0,20.88,7.8,20.88,23.28v26.28a2.35,2.35,0,0,0,2.64,2.64H244v10H232.47c-5.4,0-7.68-2.28-7.68-7.68V85.74c0-8.52-1.68-15.24-11.4-15.24a19.68,19.68,0,0,0-19.2,14.88,24.91,24.91,0,0,0-1.08,8.16V122H181.47Z"/><path d="M257.07,70.62h-7.92V61.26h8.16V44.58h11.4V61.26h14.52v9.36H268.71V98.46c0,12.12,8.4,13.68,12.84,13.68a14,14,0,0,0,2.76-.24v10.32a29.73,29.73,0,0,1-4.08.24c-7.68,0-23.16-2.4-23.16-22.68Z"/><path d="M322.35,59.82c17,0,26.16,12.72,26.16,28.44,0,1.56-.36,4.8-.36,4.8H303.87c.72,13,10.08,20.28,20.88,20.28,10.44,0,17.76-7.08,17.76-7.08l5,8.28a35.54,35.54,0,0,1-23.4,8.88c-19.2,0-32.28-13.8-32.28-31.8C291.87,72.3,305.07,59.82,322.35,59.82Zm14.16,24.72c-.36-10.08-6.72-15.48-14.28-15.48-8.88,0-16.08,5.4-17.88,15.48Z"/><path d="M364,73.86a2.35,2.35,0,0,0-2.64-2.64h-4.92v-10h11c5.28,0,7.8,2.16,7.8,7.08v3.84a35.22,35.22,0,0,1-.24,4.2h.24c2.88-8.88,9.84-15.84,19.2-15.84a23.48,23.48,0,0,1,3.12.24V72.3a17.22,17.22,0,0,0-3.48-.36c-7.44,0-14.28,5.28-17,14.28a36.9,36.9,0,0,0-1.44,10.92V122H364Z"/><path d="M411.26,73.86a2.35,2.35,0,0,0-2.64-2.64H403.7v-10h10.92c5.4,0,7.44,2.28,7.44,6.12,0,1.8-.12,3.24-.12,3.24h.24s5-10.8,20.16-10.8c16.32,0,26.76,13,26.76,31.8,0,19.32-11.76,31.8-27.6,31.8-13.44,0-18.6-9.72-18.6-9.72h-.24s.24,2.16.24,5.28v27H411.26Zm28.44,39.6c9.6,0,17.52-7.92,17.52-21.72,0-13.2-7.08-21.72-17.16-21.72-9,0-17.52,6.36-17.52,21.84C422.54,102.66,428.42,113.46,439.7,113.46Z"/><path d="M483.74,73.86a2.35,2.35,0,0,0-2.64-2.64h-4.92v-10h11c5.28,0,7.8,2.16,7.8,7.08v3.84a35.22,35.22,0,0,1-.24,4.2H495c2.88-8.88,9.84-15.84,19.2-15.84a23.48,23.48,0,0,1,3.12.24V72.3a17.22,17.22,0,0,0-3.48-.36c-7.44,0-14.28,5.28-17,14.28a36.9,36.9,0,0,0-1.44,10.92V122H483.74Z"/><path d="M530.78,73.86a2.35,2.35,0,0,0-2.64-2.64h-4.92v-10h11.4c5.4,0,7.68,2.28,7.68,7.68v40.44a2.35,2.35,0,0,0,2.64,2.64h4.92v10h-11.4c-5.4,0-7.68-2.28-7.68-7.68Zm.24-36.6h10.44V49.38H531Z"/><path d="M562.22,104.94s7.2,9,18.36,9c5.64,0,10.56-2.52,10.56-7.8,0-10.92-33.12-9.72-33.12-29.28,0-11.64,10.2-17,22.56-17,7.32,0,19.92,2.52,19.92,11.76v5.76H590.06v-3c0-3.6-5.4-5.16-9.12-5.16-6.84,0-11.28,2.4-11.28,7.2,0,11.52,33.12,9,33.12,29.28,0,10.8-9.6,17.76-22.32,17.76-16.2,0-24.24-10.68-24.24-10.68Z"/><path d="M642.26,59.82c17,0,26.16,12.72,26.16,28.44,0,1.56-.36,4.8-.36,4.8H623.78c.72,13,10.08,20.28,20.88,20.28,10.44,0,17.76-7.08,17.76-7.08l5,8.28a35.54,35.54,0,0,1-23.4,8.88c-19.2,0-32.28-13.8-32.28-31.8C611.78,72.3,625,59.82,642.26,59.82Zm14.16,24.72c-.36-10.08-6.72-15.48-14.28-15.48-8.88,0-16.08,5.4-17.88,15.48Z"/></svg>