<svg id="Layer_1" data-name="Layer 1" xmlns="http://www.w3.org/2000/svg" viewBox="0 0 530.33 134.6"><defs><style>.cls-1,.cls-6{fill:#4bb779;}.cls-2,.cls-5,.cls-6{fill-rule:evenodd;}.cls-3{fill:orange;}.cls-4,.cls-5{fill:#2889ce;}</style></defs><title>insidify logos</title><rect class="cls-1" x="111.68" y="23" width="11.3" height="13.12"/><path d="M233.62,101.32s8.7,11.56,26.24,11.56c13.77,0,24.16-7.53,24.16-19.22,0-22-35.85-19.22-35.85-31.69,0-5.2,4.81-7.79,12.21-7.79,4,0,9.87,1.69,9.87,5.59V63h11.3V56.77c0-10-13.64-12.73-21.56-12.73-13.38,0-24.42,5.85-24.42,18.44,0,21.17,35.85,19.87,35.85,31.69,0,5.72-5.33,8.44-11.43,8.44-12.08,0-19.87-9.74-19.87-9.74Z" transform="translate(-16.82 -4)"/><path class="cls-2" d="M140.77,98.42a4.54,4.54,0,0,1-.06-.73V53.92c0-5.85-2.47-8.31-8.31-8.31H120.06V56.38h5.33a2.54,2.54,0,0,1,2.86,2.86V103c0,5.84,2.47,8.31,8.31,8.31h4.21Z" transform="translate(-16.82 -4)"/><path class="cls-2" d="M158.42,111.33H171V80.54a27,27,0,0,1,1.17-8.83A21.3,21.3,0,0,1,193,55.6c10.52,0,12.34,7.27,12.34,16.5V103c0,5.85,2.47,8.31,8.31,8.31h12.47V100.55h-5.33a2.54,2.54,0,0,1-2.86-2.86V69.24c0-16.76-7-25.2-22.6-25.2a26.76,26.76,0,0,0-24.68,15.07h-.26a27.73,27.73,0,0,0,.26-3.77V52.88c0-4.81-2.73-7.27-8.31-7.27H150.24V56.38h5.33a2.54,2.54,0,0,1,2.86,2.86v52.09Z" transform="translate(-16.82 -4)"/><rect class="cls-3" x="287.59" y="23" width="11.3" height="13.12"/><path class="cls-2" d="M316.68,98.42a4.58,4.58,0,0,1-.06-.73V53.92c0-5.85-2.47-8.31-8.31-8.31H296V56.38h5.33a2.54,2.54,0,0,1,2.86,2.86V103c0,5.84,2.47,8.31,8.31,8.31h4.21Z" transform="translate(-16.82 -4)"/><path d="M359.06,102c-10.91,0-18.57-9.22-18.57-23.51,0-14.94,8.57-23.51,18.83-23.51,12.6,0,18.7,11.69,18.7,23.38,0,16.76-9.22,23.64-19,23.64M327.63,78.46c0,20.39,11.17,34.42,29,34.42,16.11,0,21.56-11.95,21.56-11.95h.26s-.13,1.43-.13,3.38c0,4.42,2.34,7,8.05,7h12.08V100.55h-5.33a2.54,2.54,0,0,1-2.86-2.86V27.94c0-5.85-2.47-8.31-8.31-8.31H369.45V30.4h5.33a2.54,2.54,0,0,1,2.86,2.86v16.5a37.19,37.19,0,0,0,.26,4.42h-.26S372.57,44,357.37,44C340,44,327.63,57.55,327.63,78.46Z" transform="translate(-16.82 -4)"/><path d="M424.31,98.23a4.63,4.63,0,0,1,0-.54V53.92c0-5.85-2.47-8.31-8.31-8.31H403.63V56.38H409a2.54,2.54,0,0,1,2.86,2.86V103c0,5.84,2.47,8.31,8.31,8.31h4.19ZM483.9,123l-5.19,9.09a21.79,21.79,0,0,0,15.46,6.5c9.22,0,17.15-5.33,21.17-15.46l26-64.16c.91-2.08,2.08-2.6,4.16-2.6h1.69V45.6h-7.53C534.3,45.6,532,47,530,52.23l-13.64,37a58.63,58.63,0,0,0-2.21,7.92h-.26a70,70,0,0,0-2.34-7.92l-14.94-37c-2.08-5.2-4-6.62-9.35-6.62h-27.8V43.65c0-12.21,8.83-13.77,13.77-13.77a18.27,18.27,0,0,1,3.25.26V19.36a27,27,0,0,0-4.81-.39c-8.31,0-24.81,2.73-24.81,24.42V45.6H438.7V55.73h8.18v44.81h0v10.78h12.63V55.73c4.74,0,24-1.63,26.11,3.25l22.47,52.09-3,7.14c-2.47,5.85-6.49,9.48-11.56,9.48C487.92,127.69,483.9,123.15,483.9,123Z" transform="translate(-16.82 -4)"/><rect class="cls-4" x="394.74" y="23" width="11.3" height="13.12"/><g id="_Group_" data-name="&lt;Group&gt;"><path id="_Path_" data-name="&lt;Path&gt;" class="cls-5" d="M45.1,4H73.74a3.21,3.21,0,0,1,3.2,3.2V35.85a3.21,3.21,0,0,1-3.2,3.2H45.1a3.21,3.21,0,0,1-3.2-3.2V7.2A3.21,3.21,0,0,1,45.1,4Z" transform="translate(-16.82 -4)"/><path id="_Path_2" data-name="&lt;Path&gt;" class="cls-2" d="M19.38,26.68h20v9.59A3.67,3.67,0,0,0,43,39.94h-7.6a5.38,5.38,0,0,0-5.36,5.36v48a5.38,5.38,0,0,0,5.36,5.36h48a5.38,5.38,0,0,0,5.36-5.36v-48a5.38,5.38,0,0,0-5.36-5.36H75.8a3.67,3.67,0,0,0,3.66-3.66V26.68h20A2.57,2.57,0,0,1,102,29.25v80.07a2.57,2.57,0,0,1-2.56,2.56H19.38a2.57,2.57,0,0,1-2.56-2.56V29.25a2.57,2.57,0,0,1,2.56-2.56Z" transform="translate(-16.82 -4)"/><path id="_Path_3" data-name="&lt;Path&gt;" class="cls-6" d="M39.82,45.3H79a4.39,4.39,0,0,1,4.38,4.38V88.88A4.4,4.4,0,0,1,79,93.26H39.82a4.4,4.4,0,0,1-4.38-4.38V49.68a4.39,4.39,0,0,1,4.38-4.38Z" transform="translate(-16.82 -4)"/></g></svg>