<svg id="Layer_1" data-name="Layer 1" xmlns="http://www.w3.org/2000/svg" viewBox="0 0 467.44 106.93"><defs><style>.cls-1,.cls-5{fill:#4bb779;}.cls-2,.cls-4,.cls-5,.cls-7{fill-rule:evenodd;}.cls-3{fill:#ff634f;}.cls-4,.cls-6{fill:#2889ce;}.cls-7{fill:#727376;}</style></defs><title>Artboard 1</title><rect class="cls-1" x="99.73" y="8.91" width="9.93" height="11.52"/><path d="M192.06,74.19s7.64,10.15,23,10.15c12.09,0,21.22-6.62,21.22-16.88,0-19.28-31.49-16.88-31.49-27.84,0-4.56,4.22-6.85,10.72-6.85,3.54,0,8.67,1.48,8.67,4.91v2.85h9.93V35.06c0-8.78-12-11.18-18.94-11.18-11.75,0-21.45,5.13-21.45,16.2,0,18.59,31.49,17.45,31.49,27.84,0,5-4.68,7.42-10,7.42-10.61,0-17.46-8.56-17.46-8.56Z"/><path class="cls-2" d="M110.51,71.63a4,4,0,0,1,0-.64V32.55c0-5.13-2.17-7.3-7.3-7.3H92.32v9.47H97a2.23,2.23,0,0,1,2.51,2.51V75.67c0,5.13,2.17,7.3,7.3,7.3h3.7Z"/><path class="cls-2" d="M126,83h11.07v-27a23.71,23.71,0,0,1,1-7.76A18.71,18.71,0,0,1,156.36,34c9.24,0,10.84,6.39,10.84,14.49V75.67c0,5.13,2.17,7.3,7.3,7.3h11V73.5h-4.68A2.23,2.23,0,0,1,178.26,71V46c0-14.72-6.16-22.13-19.85-22.13a23.5,23.5,0,0,0-21.68,13.23h-.23a24.36,24.36,0,0,0,.23-3.31V31.63c0-4.22-2.4-6.39-7.3-6.39H118.82v9.47h4.68A2.23,2.23,0,0,1,126,37.22V83Z"/><rect class="cls-3" x="254.24" y="8.91" width="9.93" height="11.52"/><path class="cls-2" d="M265,71.63a4,4,0,0,1,0-.64V32.55c0-5.13-2.17-7.3-7.3-7.3H246.82v9.47h4.68A2.23,2.23,0,0,1,254,37.22V75.67c0,5.13,2.17,7.3,7.3,7.3H265Z"/><path class="cls-4" d="M23.47,0H43.68a2.27,2.27,0,0,1,2.26,2.26V22.47a2.27,2.27,0,0,1-2.26,2.26H23.47a2.27,2.27,0,0,1-2.26-2.26V2.26A2.27,2.27,0,0,1,23.47,0"/><path class="cls-5" d="M18.13,30.5H49A3.46,3.46,0,0,1,52.48,34V64.84A3.46,3.46,0,0,1,49,68.3H18.13a3.46,3.46,0,0,1-3.45-3.45V34a3.46,3.46,0,0,1,3.45-3.45"/><path class="cls-2" d="M2,15.82H17.24V26.27H14.67a4.24,4.24,0,0,0-4.23,4.23V68.3a4.24,4.24,0,0,0,4.23,4.23h37.8A4.24,4.24,0,0,0,56.7,68.3V30.5a4.24,4.24,0,0,0-4.23-4.23H49.91V15.82H65.13a2,2,0,0,1,2,2V81a2,2,0,0,1-2,2H2a2,2,0,0,1-2-2V17.84a2,2,0,0,1,2-2"/><path d="M302.24,74.76c-9.58,0-16.31-8.1-16.31-20.65,0-13.12,7.53-20.65,16.54-20.65,11.07,0,16.43,10.27,16.43,20.53,0,14.72-8.1,20.76-16.66,20.76M274.63,54.11c0,17.91,9.81,30.23,25.44,30.23,14.15,0,18.94-10.49,18.94-10.49h.23s-.11,1.25-.11,3c0,3.88,2.05,6.16,7.07,6.16H336.8V73.5h-4.68A2.23,2.23,0,0,1,329.62,71V9.73c0-5.13-2.17-7.3-7.3-7.3h-11V11.9H316a2.23,2.23,0,0,1,2.51,2.51V28.9a32.65,32.65,0,0,0,.23,3.88h-.23s-4.45-8.9-17.8-8.9C285.47,23.88,274.63,35.74,274.63,54.11Z"/><path d="M359.54,71.47a4.07,4.07,0,0,1,0-.48V32.55c0-5.13-2.17-7.3-7.3-7.3H341.38v9.47h4.68a2.23,2.23,0,0,1,2.51,2.51V75.67c0,5.13,2.17,7.3,7.3,7.3h3.68Zm52.34,21.77-4.56,8a19.14,19.14,0,0,0,13.57,5.7c8.1,0,15.06-4.68,18.6-13.58L462.31,37c.8-1.83,1.83-2.28,3.65-2.28h1.48V25.25h-6.62c-4.68,0-6.73,1.25-8.44,5.82l-12,32.51a51.49,51.49,0,0,0-1.94,7h-.23a61.5,61.5,0,0,0-2.05-7L423.06,31.06c-1.83-4.56-3.54-5.82-8.21-5.82H390.43V23.53c0-10.72,7.76-12.09,12.09-12.09a16,16,0,0,1,2.85.23V2.2a23.73,23.73,0,0,0-4.22-.34c-7.3,0-21.79,2.4-21.79,21.45v1.94h-7.19v8.9h7.19V73.5h0V83h11.09V34.14c4.16,0,21.08-1.43,22.93,2.85L433.1,82.74,430.48,89c-2.17,5.13-5.7,8.33-10.15,8.33C415.42,97.35,411.88,93.35,411.88,93.24Z"/><rect class="cls-6" x="348.35" y="8.91" width="9.93" height="11.52"/><path class="cls-7" d="M382,105h8.73v-2.83h-5.42V99.64h4.12V96.81h-4.12V94.35h5.16V91.52H382Zm-14.51-1.7a7,7,0,0,0,4.93,1.93c3,0,4.76-1.95,4.76-4.19,0-4.27-6.09-4-6.09-5.67,0-.76.76-1.06,1.44-1.06a5.16,5.16,0,0,1,3,1.19l1.4-2.7a6.13,6.13,0,0,0-4.35-1.53c-2.68,0-4.78,1.64-4.78,4.14,0,4.16,6.09,4.1,6.09,5.71,0,.81-.74,1.08-1.42,1.08a5.6,5.6,0,0,1-3.23-1.4Zm-8,1.7h3.31V91.52h-3.31Zm-12.13-7.39V94.35h1.11c1.66,0,2,.6,2,1.63a1.55,1.55,0,0,1-1.72,1.66ZM344,105h3.31v-4.55h1.55l2.4,4.55h3.68l-2.63-4.72a7.72,7.72,0,0,0-.51-.81v0a4.11,4.11,0,0,0,2-3.69,3.93,3.93,0,0,0-2.5-3.93,7,7,0,0,0-2.63-.32H344Zm-11.22-7V94.35h1.68a1.6,1.6,0,0,1,1.66,1.81A1.65,1.65,0,0,1,334.39,98Zm-3.31,7h3.31v-4.18h2.31a4.68,4.68,0,0,0,0-9.34h-5.61Zm-12.13-7.39V94.35h1.11c1.66,0,2,.6,2,1.63a1.55,1.55,0,0,1-1.72,1.66ZM314,105h3.31v-4.55h1.55l2.4,4.55H325l-2.63-4.72a7.8,7.8,0,0,0-.51-.81v0a4.11,4.11,0,0,0,2-3.69,3.93,3.93,0,0,0-2.49-3.93,7,7,0,0,0-2.63-.32H314Zm-13.66,0h8.73v-2.83h-5.42V99.64h4.12V96.81h-4.12V94.35h5.16V91.52h-8.47Zm-11.62,0h3.31V94.35h4.1V91.52H284.65v2.83h4.1ZM269,105h3.31V98.73c0-.85-.15-2.31-.15-2.31h0a24.29,24.29,0,0,0,1.13,2.31l3.76,6.29h3.33V91.52h-3.31v6.31c0,.85.15,2.31.15,2.31h0a24.09,24.09,0,0,0-1.13-2.31l-3.74-6.31H269Zm-13.66,0h8.73v-2.83h-5.42V99.64h4.12V96.81h-4.12V94.35h5.16V91.52h-8.47Z"/></svg>