<?xml version="1.0" encoding="utf-8"?>
<!-- Generator: Adobe Illustrator 19.0.0, SVG Export Plug-In . SVG Version: 6.00 Build 0)  -->
<svg version="1.1" id="Layer_1" xmlns="http://www.w3.org/2000/svg" xmlns:xlink="http://www.w3.org/1999/xlink" x="0px" y="0px"
	 viewBox="-225 228.3 390 107.9" style="enable-background:new -225 228.3 390 107.9;" xml:space="preserve">
<style type="text/css">
	.st0{fill:#FFFFFF;}
</style>
<g>
	<path class="st0" d="M-200.9,232.3h21.2c1.3,0,2.4,1.1,2.4,2.4v21.2c0,1.3-1.1,2.4-2.4,2.4h-21.2c-1.3,0-2.4-1.1-2.4-2.4v-21.2
		C-203.2,233.4-202.2,232.3-200.9,232.3L-200.9,232.3z"/>
	<path class="st0" d="M-219.9,249.1h12.8v7.1c0,1.5,1.2,2.7,2.7,2.7h-3.6c-2.2,0-4,1.8-4,4v35.6c0,2.2,1.8,4,4,4h35.6
		c2.2,0,4-1.8,4-4v-35.6c0-2.2-1.8-4-4-4h-3.6c1.5,0,2.7-1.2,2.7-2.7v-7.1h12.8c1,0,1.9,0.9,1.9,1.9v59.4c0,1-0.9,1.9-1.9,1.9h-59.4
		c-1,0-1.9-0.9-1.9-1.9V251C-221.8,250-221,249.1-219.9,249.1L-219.9,249.1z"/>
	<path class="st0" d="M-204.8,262.9h29.1c1.8,0,3.3,1.5,3.3,3.3v29.1c0,1.8-1.5,3.3-3.3,3.3h-29.1c-1.8,0-3.3-1.5-3.3-3.3v-29.1
		C-208,264.4-206.6,262.9-204.8,262.9L-204.8,262.9z"/>
	<path class="st0" d="M5.7,287.5c0,14.5,7.9,24.5,20.6,24.5c11.5,0,15.3-8.5,15.3-8.5h0.2c0,0-0.1,1-0.1,2.4c0,3.1,1.7,5,5.7,5H56
		v-7.7h-3.8c-1.3,0-2-0.6-2-2v-49.6c0-4.2-1.8-5.9-5.9-5.9h-8.9v7.6h3.8c1.3,0,2,0.6,2,2V267c0,1.8,0.2,3.1,0.2,3.1h-0.2
		c0,0-3.6-7.2-14.4-7.2C14.4,263,5.7,272.6,5.7,287.5L5.7,287.5z M28,304.2c-7.8,0-13.2-6.6-13.2-16.7c0-10.6,6.1-16.7,13.4-16.7
		c9,0,13.3,8.3,13.3,16.6C41.5,299.3,35,304.2,28,304.2L28,304.2z"/>
	<polygon class="st0" points="-136,260.2 -128,260.2 -128,250.9 -136,250.9 	"/>
	<polygon class="st0" points="-14.7,260.2 -6.6,260.2 -6.6,250.9 -14.7,250.9 	"/>
	<polygon class="st0" points="65.7,260.2 73.8,260.2 73.8,250.9 65.7,250.9 	"/>
	<path class="st0" d="M-61.2,303.8c0,0,6.2,8.2,18.7,8.2c9.8,0,17.2-5.4,17.2-13.7c0-15.6-25.5-13.7-25.5-22.5
		c0-3.7,3.4-5.5,8.7-5.5c2.9,0,7,1.2,7,4v2.3h8v-4.4c0-7.1-9.7-9.1-15.3-9.1c-9.5,0-17.4,4.2-17.4,13.1c0,15.1,25.5,14.1,25.5,22.5
		c0,4.1-3.8,6-8.1,6c-8.6,0-14.1-6.9-14.1-6.9L-61.2,303.8L-61.2,303.8z"/>
	<path class="st0" d="M-14.9,305c0,4.2,1.8,5.9,5.9,5.9h8.8v-7.7H-4c-1.3,0-2-0.6-2-2V270c0-4.2-1.8-5.9-5.9-5.9h-8.8v7.7h3.8
		c1.3,0,2,0.6,2,2V305L-14.9,305z"/>
	<path class="st0" d="M116.8,319.2l-3.7,6.5c0,0,4.1,4.6,11,4.6c6.6,0,12.2-3.8,15.1-11l18.5-45.6c0.6-1.5,1.5-1.8,3-1.8h1.2v-7.7
		h-5.4c-3.8,0-5.5,1-6.8,4.7l-9.7,26.3c-0.9,2.4-1.6,5.6-1.6,5.6h-0.2c0,0-0.7-3.2-1.7-5.6l-10.6-26.3c-1.5-3.7-2.9-4.7-6.7-4.7
		h-3.1H114H99.5v-1.4c0-8.7,6.3-9.8,9.8-9.8c1.4,0,2.3,0.2,2.3,0.2v-7.7c0,0-1.4-0.3-3.4-0.3c-5.9,0-17.6,1.9-17.6,17.4v1.6h-5.8
		v7.1h5.8v31.9l0,0v7.7l0,0h0.8h8.2v-39.6H114l1,0.5c1.4,0.6,2.3,0.4,3,1.8l16,37.1l-2.1,5.1c-1.8,4.2-4.6,6.7-8.2,6.7
		C119.7,322.5,116.8,319.3,116.8,319.2L116.8,319.2z M74.4,301.6c0-0.1,0-0.3,0-0.4V270c0-4.2-1.8-5.9-5.9-5.9h-8.8v7.7h3.8
		c1.3,0,2,0.6,2,2v31.1c0,4.2,1.8,5.9,5.9,5.9h3V301.6L74.4,301.6z"/>
	<path class="st0" d="M-127.3,301.7c0-0.2,0-0.3,0-0.5V270c0-4.2-1.8-5.9-5.9-5.9h-8.8v7.7h3.8c1.3,0,2,0.6,2,2v31.1
		c0,4.2,1.8,5.9,5.9,5.9h3L-127.3,301.7L-127.3,301.7z"/>
	<path class="st0" d="M-114.7,310.9h4.3h4.7V289c0-2.3,0.2-4.4,0.8-6.3c1.8-6.7,7.6-11.5,14.8-11.5c7.5,0,8.8,5.2,8.8,11.7v22
		c0,4.2,1.8,5.9,5.9,5.9h8.9v-7.7h-3.8c-1.3,0-2-0.6-2-2v-20.2c0-11.9-5-17.9-16.1-17.9c-10.2,0-15.7,6.7-17.6,10.7h-0.2
		c0,0,0.2-1.2,0.2-2.7v-1.7c0-3.4-1.9-5.2-5.9-5.2h-8.6v7.7h3.8c1.3,0,2,0.6,2,2v17v12.4L-114.7,310.9L-114.7,310.9z"/>
</g>
</svg>
