<svg id="Layer_1" data-name="Layer 1" xmlns="http://www.w3.org/2000/svg" viewBox="0 0 141.73 141.73"><defs><style>.cls-1{fill:#fff;fill-rule:evenodd;}</style></defs><title>insidify logos</title><g id="_Group_" data-name="&lt;Group&gt;"><path id="_Path_" data-name="&lt;Path&gt;" class="cls-1" d="M52.8,2.83H88.93a4.05,4.05,0,0,1,4,4V43a4.05,4.05,0,0,1-4,4H52.8a4.05,4.05,0,0,1-4-4V6.87a4.05,4.05,0,0,1,4-4Z"/><path id="_Path_2" data-name="&lt;Path&gt;" class="cls-1" d="M20.37,31.45H45.6v12.1a4.63,4.63,0,0,0,4.61,4.62H40.62a6.79,6.79,0,0,0-6.77,6.77v60.49a6.79,6.79,0,0,0,6.77,6.77h60.49a6.79,6.79,0,0,0,6.77-6.77V54.93a6.79,6.79,0,0,0-6.77-6.77H91.53a4.63,4.63,0,0,0,4.61-4.62V31.45h25.22a3.24,3.24,0,0,1,3.23,3.23v101a3.24,3.24,0,0,1-3.23,3.23h-101a3.24,3.24,0,0,1-3.23-3.23v-101a3.24,3.24,0,0,1,3.23-3.23Z"/><path id="_Path_3" data-name="&lt;Path&gt;" class="cls-1" d="M46.15,54.93H95.58a5.54,5.54,0,0,1,5.53,5.53v49.43a5.54,5.54,0,0,1-5.53,5.53H46.15a5.54,5.54,0,0,1-5.53-5.53V60.45a5.54,5.54,0,0,1,5.53-5.53Z"/></g></svg>