<svg id="Layer_1" data-name="Layer 1" xmlns="http://www.w3.org/2000/svg" viewBox="0 0 670.12 150"><defs><style>.cls-1,.cls-4{fill:#2889ce;}.cls-1,.cls-2,.cls-3{fill-rule:evenodd;}.cls-3{fill:#4bb779;}</style></defs><title>jobs-logo</title><g id="_Group_" data-name="&lt;Group&gt;"><path id="_Path_" data-name="&lt;Path&gt;" class="cls-1" d="M199.09,21.13h28.64a3.21,3.21,0,0,1,3.2,3.2V53a3.21,3.21,0,0,1-3.2,3.2H199.09a3.21,3.21,0,0,1-3.2-3.2V24.34a3.21,3.21,0,0,1,3.2-3.2Z"/><path id="_Path_2" data-name="&lt;Path&gt;" class="cls-2" d="M173.38,43.82h19v9.59A3.67,3.67,0,0,0,196,57.07h-6.6a5.38,5.38,0,0,0-5.36,5.36v48a5.38,5.38,0,0,0,5.36,5.36h48a5.38,5.38,0,0,0,5.36-5.36v-48a5.38,5.38,0,0,0-5.36-5.36h-6.6a3.67,3.67,0,0,0,3.66-3.66V43.82h19A2.57,2.57,0,0,1,256,46.38v80.07a2.57,2.57,0,0,1-2.56,2.56H173.38a2.57,2.57,0,0,1-2.56-2.56V46.38a2.57,2.57,0,0,1,2.56-2.56Z"/><path id="_Path_3" data-name="&lt;Path&gt;" class="cls-3" d="M193.82,62.43H233a4.39,4.39,0,0,1,4.38,4.38V106a4.4,4.4,0,0,1-4.38,4.38H193.82a4.4,4.4,0,0,1-4.38-4.38V66.82a4.39,4.39,0,0,1,4.38-4.38Z"/></g><path d="M289.14,121.88c4.07,0,11.88-1.32,11.88-12.21V64.35a2.15,2.15,0,0,0-2.42-2.42h-4.51V52.8h10.56c4.95,0,7,2.09,7,7v50.49c0,18.59-14.3,20.79-21.34,20.79a26.41,26.41,0,0,1-3.63-.22v-9.13S287.71,121.88,289.14,121.88Z"/><rect class="cls-4" x="301.24" y="30.8" width="9.68" height="11.11"/><path d="M354.26,51.48c16.61,0,30,12.21,30,29s-13.42,29.26-30,29.26-29.92-12.32-29.92-29.26S337.65,51.48,354.26,51.48Zm0,49.06c10.56,0,19.14-8.36,19.14-20s-8.58-19.8-19.14-19.8-19,8.25-19,19.8S343.81,100.54,354.26,100.54Z"/><path d="M396.17,42.35a2.15,2.15,0,0,0-2.42-2.42h-4.51V30.8H399.8c5,0,7,2.09,7,7V56c0,2.64-.22,4.62-.22,4.62h.22s4.84-9.13,17.93-9.13c15,0,24.42,11.88,24.42,29.15,0,17.71-10.67,29.15-25.3,29.15a20.05,20.05,0,0,1-17.49-9.35h-.22a37.39,37.39,0,0,1,.22,4.18v3.85H396.17Zm26.18,58.3c8.8,0,16.06-7.26,16.06-19.91,0-12.1-6.49-19.91-15.84-19.91-8.25,0-16,5.83-16,20C406.62,90.75,411.79,100.65,422.35,100.65Z"/><path d="M461.73,92.84s6.6,8.25,16.83,8.25c5.17,0,9.68-2.31,9.68-7.15,0-10-30.36-8.91-30.36-26.84,0-10.67,9.35-15.62,20.68-15.62,6.71,0,18.26,2.31,18.26,10.78v5.28h-9.57V64.79c0-3.3-5-4.73-8.36-4.73-6.27,0-10.34,2.2-10.34,6.6,0,10.56,30.36,8.25,30.36,26.84,0,9.9-8.8,16.28-20.46,16.28-14.85,0-22.22-9.79-22.22-9.79Z"/></svg>