<svg id="Layer_1" data-name="Layer 1" xmlns="http://www.w3.org/2000/svg" viewBox="0 0 670.12 150"><defs><style>.cls-1{fill:#2889ce;}.cls-1,.cls-2,.cls-3{fill-rule:evenodd;}.cls-3,.cls-4{fill:#4bb779;}</style></defs><title>learning-logo</title><g id="_Group_" data-name="&lt;Group&gt;"><path id="_Path_" data-name="&lt;Path&gt;" class="cls-1" d="M102.09,13.47h28.64a3.21,3.21,0,0,1,3.2,3.2V45.32a3.21,3.21,0,0,1-3.2,3.2H102.09a3.21,3.21,0,0,1-3.2-3.2V16.67a3.21,3.21,0,0,1,3.2-3.2Z"/><path id="_Path_2" data-name="&lt;Path&gt;" class="cls-2" d="M76.38,36.16h19v9.59A3.67,3.67,0,0,0,99,49.41h-6.6a5.38,5.38,0,0,0-5.36,5.36v48a5.38,5.38,0,0,0,5.36,5.36h48a5.38,5.38,0,0,0,5.36-5.36v-48a5.38,5.38,0,0,0-5.36-5.36h-6.6a3.67,3.67,0,0,0,3.66-3.66V36.16h19A2.57,2.57,0,0,1,159,38.72v80.07a2.57,2.57,0,0,1-2.56,2.56H76.38a2.57,2.57,0,0,1-2.56-2.56V38.72a2.57,2.57,0,0,1,2.56-2.56Z"/><path id="_Path_3" data-name="&lt;Path&gt;" class="cls-3" d="M96.81,54.77H136a4.39,4.39,0,0,1,4.38,4.38V98.35a4.4,4.4,0,0,1-4.38,4.38H96.81a4.4,4.4,0,0,1-4.38-4.38V59.16a4.39,4.39,0,0,1,4.38-4.38Z"/></g><path d="M195.79,54.61a2.09,2.09,0,0,0-2.35-2.35h-4.38V43.39h10.26c4.81,0,6.84,2,6.84,6.84V107.6a2.09,2.09,0,0,0,2.35,2.35h4.38v8.87H202.62c-4.81,0-6.84-2-6.84-6.84Z"/><path d="M246.53,63.48c15.17,0,23.29,11.32,23.29,25.32,0,1.39-.32,4.27-.32,4.27H230.08c.64,11.54,9,18.06,18.59,18.06,9.29,0,15.81-6.3,15.81-6.3l4.49,7.37a31.64,31.64,0,0,1-20.83,7.91c-17.09,0-28.74-12.29-28.74-28.31C219.39,74.59,231.15,63.48,246.53,63.48Zm12.61,22c-.32-9-6-13.78-12.71-13.78-7.91,0-14.32,4.81-15.92,13.78Z"/><path d="M311.05,85.16h2.35v-.53c0-9.51-3.53-12.93-12-12.93-2.56,0-8.87.64-8.87,4.17V79h-9.72V73.63c0-8.87,13.46-10.15,18.7-10.15,17.52,0,22.22,9.19,22.22,21.15v23a2.09,2.09,0,0,0,2.35,2.35h4.38v8.87h-9.72c-4.81,0-6.73-2.35-6.73-6.2a23.4,23.4,0,0,1,.21-3.2H314a18.47,18.47,0,0,1-17.2,10.68c-9.29,0-18.38-5.66-18.38-16.45C278.47,86.23,302,85.16,311.05,85.16Zm-12,26.6c8.76,0,14.42-9.19,14.42-17.2V92.75h-2.67c-7.8,0-21.9.43-21.9,10.36C288.94,107.49,292.25,111.77,299.09,111.77Z"/><path d="M341.71,76a2.09,2.09,0,0,0-2.35-2.35H335V64.76h9.83c4.7,0,6.94,1.92,6.94,6.3v3.42a31.37,31.37,0,0,1-.21,3.74h.21c2.56-7.91,8.76-14.1,17.09-14.1a20.89,20.89,0,0,1,2.78.21V74.59a15.34,15.34,0,0,0-3.1-.32c-6.62,0-12.71,4.7-15.17,12.71a32.82,32.82,0,0,0-1.28,9.72v22.11H341.71Z"/><path d="M383.8,76a2.09,2.09,0,0,0-2.35-2.35h-4.38V64.76H387c4.59,0,6.84,2,6.84,6v2a22.62,22.62,0,0,1-.21,3.1h.21a22,22,0,0,1,20.3-12.39c12.82,0,18.59,6.94,18.59,20.72v23.4a2.09,2.09,0,0,0,2.35,2.35h4.38v8.87H429.2c-4.81,0-6.84-2-6.84-6.84V86.55c0-7.59-1.5-13.57-10.15-13.57a17.52,17.52,0,0,0-17.09,13.25,22.19,22.19,0,0,0-1,7.27v25.32H383.8Z"/><path d="M451.21,76a2.09,2.09,0,0,0-2.35-2.35h-4.38V64.76h10.15c4.81,0,6.84,2,6.84,6.84v36a2.09,2.09,0,0,0,2.35,2.35h4.38v8.87H458c-4.81,0-6.84-2-6.84-6.84Z"/><rect class="cls-4" x="451.42" y="43.39" width="9.3" height="10.79"/><path d="M480,76a2.09,2.09,0,0,0-2.35-2.35h-4.38V64.76h9.94c4.59,0,6.84,2,6.84,6v2a22.83,22.83,0,0,1-.21,3.1h.21a22,22,0,0,1,20.3-12.39c12.82,0,18.59,6.94,18.59,20.72v23.4a2.09,2.09,0,0,0,2.35,2.35h4.38v8.87H525.45c-4.81,0-6.84-2-6.84-6.84V86.55C518.61,79,517.12,73,508.47,73a17.52,17.52,0,0,0-17.09,13.25,22.14,22.14,0,0,0-1,7.27v25.32H480Z"/><path d="M565.51,63.48c13.46,0,17.31,8.44,17.31,8.44H583V70.21c0-3.2,1.71-5.45,6-5.45h10v8.87h-4.27a2.08,2.08,0,0,0-2.35,2.14v40.81c0,17.84-13.57,24.68-27.24,24.68a42.49,42.49,0,0,1-18.48-4.49l3.52-8.33A34.07,34.07,0,0,0,565,132.06c9.4,0,17.09-4.17,17.09-15.06v-3.63a31.72,31.72,0,0,1,.21-3.42h-.21c-3.2,5.23-8.23,8.23-16.13,8.23-15,0-24.14-12.07-24.14-27.67S550.45,63.48,565.51,63.48Zm16.88,27.14c0-14.1-6.94-18.16-15.28-18.16-9.4,0-14.74,6.84-14.74,17.84,0,11.22,5.88,18.91,15.6,18.91C575.45,109.2,582.39,104.71,582.39,90.61Z"/></svg>