<svg id="Layer_1" data-name="Layer 1" xmlns="http://www.w3.org/2000/svg" viewBox="0 0 2551.18 850.39"><defs><style>.cls-1,.cls-2{fill:#fff;}.cls-1{fill-rule:evenodd;}</style></defs><title>SeamlessHiring-white</title><g id="_Group_" data-name="&lt;Group&gt;"><path id="_Path_" data-name="&lt;Path&gt;" class="cls-1" d="M244.49,20.89H432.64a21.1,21.1,0,0,1,21,21V230.08a21.1,21.1,0,0,1-21,21H244.49a21.1,21.1,0,0,1-21-21V41.93a21.1,21.1,0,0,1,21-21Z"/><path id="_Path_2" data-name="&lt;Path&gt;" class="cls-1" d="M75.58,169.9H199.95v63A24.13,24.13,0,0,0,224,257H181A35.34,35.34,0,0,0,145.8,292.2V607.26A35.34,35.34,0,0,0,181,642.49H496.1a35.34,35.34,0,0,0,35.24-35.24V292.2A35.34,35.34,0,0,0,496.1,257H453.18a24.13,24.13,0,0,0,24-24.06v-63H601.56a16.88,16.88,0,0,1,16.83,16.83v526a16.88,16.88,0,0,1-16.83,16.83h-526a16.88,16.88,0,0,1-16.83-16.83v-526A16.88,16.88,0,0,1,75.58,169.9Z"/><path id="_Path_3" data-name="&lt;Path&gt;" class="cls-1" d="M209.83,292.2H467.31A28.87,28.87,0,0,1,496.1,321V578.46a28.87,28.87,0,0,1-28.79,28.79H209.83A28.87,28.87,0,0,1,181,578.46V321a28.87,28.87,0,0,1,28.79-28.79Z"/></g><path class="cls-1" d="M1430.89,734.85h40.69V635.42c0-10.49.84-20.14,3.78-28.53,8.39-30.63,34.4-52,67.12-52,34,0,39.86,23.49,39.86,53.28V708c0,18.88,8,26.85,26.85,26.85h40.28V700h-17.2c-5.87,0-9.23-2.94-9.23-9.23V598.92c0-54.12-22.65-81.39-73-81.39-46.15,0-71.32,30.2-79.71,48.67h-.84a89.43,89.43,0,0,0,.84-12.17v-8c0-15.52-8.81-23.49-26.85-23.49h-39v34.82h17.2c5.87,0,9.23,2.93,9.23,9.23V700h-63.77c-5.87,0-9.23-2.94-9.23-9.23V549.42c0-18.88-8-26.85-26.85-26.85h-13V695.45h-.45V708c0,18.87,8,26.85,26.85,26.85Z"/><rect class="cls-2" x="1318.45" y="438.66" width="36.5" height="42.37"/><path class="cls-2" d="M1157.37,734.85h40.69V648c0-13,1.26-26,5-38.18,9.65-31.47,33.56-49.92,59.57-49.92a60.29,60.29,0,0,1,12.17,1.26V520.89a82.42,82.42,0,0,0-10.91-.84c-32.72,0-57.06,24.33-67.13,55.38H1196a123.49,123.49,0,0,0,.84-14.69V547.32c0-17.2-8.81-24.75-27.27-24.75h-38.6v34.82h17.2c5.87,0,9.23,2.93,9.23,9.23Z"/><path class="cls-2" d="M1776.17,697.09c-38.18,0-61.26-30.2-61.26-74.26,0-43.21,21-70.06,57.9-70.06,32.73,0,60,15.94,60,71.32s-27.27,73-56.63,73m-102.79-73.42c0,61.25,36.08,108.66,94.82,108.66,31,0,50.76-11.75,63.35-32.31h.84a123.68,123.68,0,0,0-.84,13.43v14.26c0,42.79-30.21,59.16-67.12,59.16-31.89,0-57.9-14.26-57.9-14.26l-13.84,32.72c21,10.49,47,17.62,72.58,17.62,53.7,0,107-26.85,107-96.91V565.78c0-5.46,3.78-8.39,9.23-8.39h16.78V522.57h-39.44c-16.78,0-23.5,8.81-23.5,21.4v6.71h-.84s-15.11-33.14-68-33.14C1707.37,517.53,1673.38,562.84,1673.38,623.67Z"/><path class="cls-1" d="M1044.1,708c0,18.88,8,26.85,26.85,26.85h13.4V606.12h0v-56.7c0-18.88-8-26.85-26.85-26.85H1044.1V708Z"/><rect class="cls-2" x="1044.94" y="438.66" width="36.5" height="42.37"/><path class="cls-2" d="M779.37,734.85h40.7V635.42c0-10.07.84-19.72,3.77-28.11,8.81-30.63,34.83-52.44,67.13-52.44,34,0,40.28,23.49,40.28,53.28V708c0,18.87,8,26.85,26.85,26.85h115.08V700H980.75c-5.87,0-9.23-2.94-9.23-9.23V598.92c0-54.12-22.66-81.39-72.58-81.39-42.38,0-69.64,26.85-78.87,47.4h-.84s.84-7.55.84-17.62V464.67c0-18-8-26-26.85-26H779.39V587.92h0Z"/><path class="cls-1" d="M1771.28,356.25c-6,0-9.37-3-9.37-9.37v-93.3c0-55-22.58-82.65-71.15-82.65-34.94,0-64.76,23-76.69,49h-.85c-7.24-32.38-28.12-49-64.76-49-33.66,0-63.47,24.28-73.7,49.42h-.85s.42-5.54.42-12.35v-8.1c0-15.76-8.52-23.86-27.27-23.86h-39.62V211.4h17.47c6,0,9.37,3,9.37,9.37V356.25h-62.2c-6,0-9.37-3-9.37-9.37v-91.6c0-47.71-18.75-84.35-88.61-84.35-20.87,0-74.56,5.11-74.56,40.47v21.3h38.77V220.34c0-14.06,25.14-16.62,35.36-16.62,33.66,0,47.72,13.63,47.72,51.55v2.13H1312c-36.21,0-129.94,4.26-129.94,73.7,0,43,36.21,65.61,73.28,65.61,51.55,0,68.59-42.6,68.59-42.6h.85a93.51,93.51,0,0,0-.85,12.78c0,15.34,7.67,24.71,26.84,24.71h124.83V293.19a115.13,115.13,0,0,1,3-27.69c8.1-30.68,30.25-57.09,61.77-57.09,32.8,0,37.07,26,37.07,54.11V391.61h41.32V293.19a123.81,123.81,0,0,1,3.41-29.4c7.67-29.4,30.68-55.39,60.5-55.39,32,0,37.92,23.86,37.92,54.11V364.34c0,19.17,8.09,27.27,27.27,27.27h40.9V356.25ZM1321.82,294.9c0,32-22.58,68.59-57.52,68.59-27.26,0-40.47-17-40.47-34.51,0-39.62,56.24-41.33,87.34-41.33h10.65Z"/><path class="cls-2" d="M749.22,358.81s28.54,37.92,86.05,37.92c45.16,0,79.24-24.71,79.24-63.05,0-72-117.58-63-117.58-103.94,0-17,15.76-25.56,40-25.56,13.2,0,32.37,5.54,32.37,18.32v10.65h37.06V212.69c0-32.8-44.73-41.75-70.72-41.75-43.88,0-80.09,19.17-80.09,60.49,0,69.44,117.58,65.18,117.58,103.94,0,18.75-17.46,27.69-37.49,27.69-39.62,0-65.18-32-65.18-32Z"/><path class="cls-2" d="M1147.55,271.9c0-55.81-32.38-101-92.87-101-61.34,0-108.2,44.3-108.2,112.89,0,63.9,46.43,112.89,114.59,112.89,51.12,0,83.07-31.53,83.07-31.53l-17.89-29.39s-26,25.13-63.05,25.13c-38.34,0-71.57-26-74.12-72h157.19S1147.55,277.44,1147.55,271.9ZM990.78,258.69c6.39-35.78,31.95-55,63.47-55,26.84,0,49.42,19.17,50.7,55Z"/><path class="cls-2" d="M1949.08,258.69c6.39-35.78,32-55,63.48-55,26.84,0,49.42,19.17,50.7,55Zm-44.3,25.14c0,63.9,46.43,112.89,114.6,112.89,51.12,0,83.07-31.53,83.07-31.53l-17.89-29.39s-26,25.13-63,25.13c-38.34,0-71.57-26-74.12-72h157.19s1.28-11.5,1.28-17c0-55.81-32.38-101-92.87-101C1951.63,170.94,1904.77,215.24,1904.77,283.83Z"/><path class="cls-2" d="M2136.11,358.81s28.54,37.92,86.05,37.92c45.16,0,79.24-24.71,79.24-63.05,0-72-117.58-63-117.58-103.94,0-17,15.76-25.56,40-25.56,13.21,0,32.38,5.54,32.38,18.32v10.65h37.06V212.69c0-32.8-44.73-41.75-70.72-41.75-43.88,0-80.09,19.17-80.09,60.49,0,69.44,117.57,65.18,117.57,103.94,0,18.75-17.46,27.69-37.49,27.69-39.62,0-65.18-32-65.18-32Z"/><path class="cls-2" d="M2329.54,358.81s28.54,37.92,86.05,37.92c45.16,0,79.23-24.71,79.23-63.05,0-72-117.58-63-117.58-103.94,0-17,15.76-25.56,40-25.56,13.21,0,32.38,5.54,32.38,18.32v10.65h37.06V212.69c0-32.8-44.73-41.75-70.71-41.75-43.88,0-80.09,19.17-80.09,60.49,0,69.44,117.58,65.18,117.58,103.94,0,18.75-17.46,27.69-37.49,27.69-39.62,0-65.18-32-65.18-32Z"/><path class="cls-2" d="M1810.62,369.45c0,19.17,8.1,27.27,27.27,27.27h53.34V361.36h-29.91c-6,0-9.37-3-9.37-9.37V123.21c0-19.17-8.09-27.26-27.26-27.26h-14.06V369.45Z"/></svg>