<svg id="Layer_1" data-name="Layer 1" xmlns="http://www.w3.org/2000/svg" viewBox="0 0 775 125"><defs><style>.cls-1,.cls-3,.cls-4{fill-rule:evenodd;}.cls-2{fill:#848688;}.cls-3{fill:#2889ce;}.cls-4{fill:#4bb779;}</style></defs><title>seamlesstesting</title><path class="cls-1" d="M213.92,63.55c0-8.49,12.05-8.86,18.71-8.86h2.28v1.55c0,6.85-4.84,14.7-12.32,14.7-5.84,0-8.67-3.65-8.67-7.39M259,77h8.86V55.89a24.65,24.65,0,0,1,.64-5.93c1.73-6.57,6.48-12.23,13.24-12.23,7,0,7.94,5.57,7.94,11.59V77h8.85V55.89a26.53,26.53,0,0,1,.73-6.3c1.64-6.3,6.57-11.87,13-11.87,6.85,0,8.12,5.11,8.12,11.59V71.13c0,4.11,1.73,5.84,5.84,5.84H335V69.4h-3.74a1.79,1.79,0,0,1-2-2v-20c0-11.78-4.84-17.71-15.25-17.71a18.6,18.6,0,0,0-16.43,10.5h-.18c-1.55-6.94-6-10.5-13.88-10.5a17.91,17.91,0,0,0-15.79,10.59h-.18s.09-1.19.09-2.65V35.89c0-3.38-1.83-5.11-5.84-5.11h-8.49v7.58H257a1.79,1.79,0,0,1,2,2v29H245.69a1.79,1.79,0,0,1-2-2V47.76c0-10.22-4-18.07-19-18.07-4.47,0-16,1.1-16,8.67v4.56H217V40.27c0-3,5.39-3.56,7.58-3.56,7.21,0,10.22,2.92,10.22,11v.46h-2c-7.76,0-27.84.91-27.84,15.79,0,9.22,7.76,14.06,15.7,14.06a15.78,15.78,0,0,0,14.7-9.13h.18a20,20,0,0,0-.18,2.74C235.37,75,237,77,241.12,77Z"/><path d="M119.54,69.94s6.12,8.12,18.44,8.12c9.68,0,17-5.29,17-13.51,0-15.43-25.2-13.51-25.2-22.27,0-3.65,3.38-5.48,8.58-5.48,2.83,0,6.94,1.19,6.94,3.93V43h7.94V38.63c0-7-9.59-8.95-15.15-8.95-9.4,0-17.16,4.11-17.16,13,0,14.88,25.2,14,25.2,22.27,0,4-3.74,5.93-8,5.93-8.49,0-14-6.85-14-6.85Z"/><path d="M166.56,48.49c1.37-7.67,6.85-11.78,13.6-11.78,5.75,0,10.59,4.11,10.86,11.78Zm-9.49,5.39c0,13.69,10,24.19,24.56,24.19a27,27,0,0,0,17.8-6.76L195.59,65a21.24,21.24,0,0,1-13.51,5.39c-8.22,0-15.34-5.57-15.88-15.43h33.69s.27-2.46.27-3.65c0-12-6.94-21.64-19.9-21.64C167.1,29.69,157.06,39.18,157.06,53.88Z"/><path d="M342.19,71.13c0,4.11,1.73,5.84,5.84,5.84h8.76V69.4h-3.74a1.79,1.79,0,0,1-2-2v-49c0-4.11-1.73-5.84-5.84-5.84h-8.76V20.1h3.74a1.79,1.79,0,0,1,2,2Z"/><path d="M368.11,48.49c1.37-7.67,6.85-11.78,13.6-11.78,5.75,0,10.59,4.11,10.86,11.78Zm-9.49,5.39c0,13.69,10,24.19,24.56,24.19A27,27,0,0,0,401,71.31L397.14,65a21.24,21.24,0,0,1-13.51,5.39c-8.22,0-15.34-5.57-15.88-15.43h33.69s.27-2.46.27-3.65c0-12-6.94-21.64-19.9-21.64C368.66,29.69,358.62,39.18,358.62,53.88Z"/><path d="M403.94,69.94s6.12,8.12,18.44,8.12c9.68,0,17-5.29,17-13.51,0-15.43-25.2-13.51-25.2-22.27,0-3.65,3.38-5.48,8.58-5.48,2.83,0,6.94,1.19,6.94,3.93V43h7.94V38.63c0-7-9.59-8.95-15.15-8.95-9.4,0-17.16,4.11-17.16,13,0,14.88,25.2,14,25.2,22.27,0,4-3.74,5.93-8,5.93-8.49,0-14-6.85-14-6.85Z"/><path d="M440.89,69.94s6.12,8.12,18.44,8.12c9.68,0,17-5.29,17-13.51,0-15.43-25.2-13.51-25.2-22.27,0-3.65,3.38-5.48,8.58-5.48,2.83,0,6.94,1.19,6.94,3.93V43h7.94V38.63c0-7-9.59-8.95-15.15-8.95-9.4,0-17.16,4.11-17.16,13,0,14.88,25.2,14,25.2,22.27,0,4-3.74,5.93-8,5.93-8.49,0-14-6.85-14-6.85Z"/><path class="cls-2" d="M233.87,110.13l-1.4,2.57a5.4,5.4,0,0,0,3.69,1.49,5.52,5.52,0,0,0,5.26-3.8l5.23-13.18a.73.73,0,0,1,.83-.52h.43V93.6h-2.46A1.8,1.8,0,0,0,243.51,95L241,102.27a17.68,17.68,0,0,0-.49,1.94h-.06a14.25,14.25,0,0,0-.51-1.94L237.1,95a1.77,1.77,0,0,0-1.92-1.37h-2.4v3.09h.43a.68.68,0,0,1,.77.52l4.86,10.95-.49,1.11a2.6,2.6,0,0,1-2.4,1.86,3.14,3.14,0,0,1-2.09-1m-7.54-1.94H230V96.49h3.12V93.6H230v-.34c0-2.12,1.77-2.37,2.8-2.37a4.62,4.62,0,0,1,.74.06V87.89a4.19,4.19,0,0,0-1.23-.11c-2,0-5.95.63-5.95,5.4v.43h-1.8v2.89h1.8Zm-7.05-1.94c0,1.37.57,1.94,1.92,1.94h3.46v-3.06h-1.14a.57.57,0,0,1-.63-.63V95.55c0-1.34-.57-1.94-1.92-1.94h-3.46v3.09h1.14a.56.56,0,0,1,.63.63Zm.17-15h3.15V87.89h-3.15ZM208.6,105.47c-2.14,0-3.6-1.8-3.6-4.57s1.66-4.52,3.66-4.52c2.43,0,3.6,2.23,3.6,4.49C212.26,104.1,210.49,105.47,208.6,105.47Zm-7.29-4.57c0,4.52,2.54,7.63,6.49,7.63a5,5,0,0,0,4.55-2.37h.06v.54c0,.86.49,1.49,1.8,1.49h3.35v-3.06h-1.12a.57.57,0,0,1-.63-.63V89.83c0-1.34-.6-1.94-1.94-1.94H210.4V91h1.14a.56.56,0,0,1,.63.63v2.57c0,.49,0,.86,0,.86h-.06s-1-1.77-4.2-1.77C204.08,93.26,201.31,96.26,201.31,100.89Zm-5.59,5.35c0,1.37.57,1.94,1.92,1.94h3.46v-3.06h-1.14a.57.57,0,0,1-.63-.63V95.55c0-1.34-.57-1.94-1.92-1.94h-3.46v3.09h1.14a.56.56,0,0,1,.63.63Zm.17-15H199V87.89h-3.15Zm-13.94,14.69a8,8,0,0,0,6.06,2.6c3.17,0,5.6-1.72,5.6-4.46,0-4.86-7.75-4.4-7.75-6.69,0-.86.89-1.32,2.17-1.32.8,0,1.83.34,1.83,1v.71h3.2V96.29c0-2.37-3.14-3-5.12-3-3,0-5.66,1.34-5.66,4.26,0,4.72,7.69,4.69,7.69,6.75,0,1-.86,1.43-2,1.43a6.52,6.52,0,0,1-4.35-2.14Zm-15.34,2.26h3.6v-6.69a6.15,6.15,0,0,1,.29-1.94,4,4,0,0,1,3.92-3c1.83,0,2.29,1.2,2.29,3v6.69c0,1.37.57,1.94,1.94,1.94h3.46v-3.06H181a.57.57,0,0,1-.63-.63V98.81c0-3.86-1.86-5.55-5.09-5.55a5.6,5.6,0,0,0-5.15,3H170a4,4,0,0,0,.06-.63v-.43c0-1-.63-1.63-1.92-1.63h-3.34v3.09H166a.56.56,0,0,1,.63.63Zm-7.05-1.94c0,1.37.57,1.94,1.92,1.94h3.46v-3.06h-1.14a.57.57,0,0,1-.63-.63V95.55c0-1.34-.57-1.94-1.92-1.94h-3.46v3.09h1.14a.56.56,0,0,1,.63.63Zm.17-15h3.14V87.89h-3.14Zm-23.23,18.9-1.4,2.57a5.4,5.4,0,0,0,3.69,1.49,5.52,5.52,0,0,0,5.26-3.8l5.23-13.18a.73.73,0,0,1,.83-.52h.43V93.6h-2.46A1.8,1.8,0,0,0,146.12,95l-2.49,7.29a17.67,17.67,0,0,0-.49,1.94h-.06a14.25,14.25,0,0,0-.52-1.94L139.72,95a1.77,1.77,0,0,0-1.92-1.37h-2.4v3.09h.43a.68.68,0,0,1,.77.52l4.86,10.95-.49,1.11a2.6,2.6,0,0,1-2.4,1.86A3.14,3.14,0,0,1,136.49,110.13ZM124.83,101c0-3.23,1.77-4.6,3.66-4.6,2.14,0,3.63,1.8,3.63,4.57s-1.69,4.52-3.66,4.52C126,105.47,124.83,103.24,124.83,101Zm-3.52,7.2h3.43v-.74a7.64,7.64,0,0,0-.06-1h.06a5.2,5.2,0,0,0,4.35,2.06c3.86,0,6.69-3,6.69-7.63s-2.52-7.63-6.46-7.63a5.18,5.18,0,0,0-4.37,2h-.06s.06-.51.06-1.23V89.83c0-1.34-.6-1.94-1.94-1.94h-3.46V91h1.14a.56.56,0,0,1,.63.63Z"/><path class="cls-3" d="M35.6,10.51H60.86a2.83,2.83,0,0,1,2.82,2.82V38.59a2.83,2.83,0,0,1-2.82,2.82H35.6a2.83,2.83,0,0,1-2.82-2.82V13.34a2.83,2.83,0,0,1,2.82-2.82"/><path class="cls-4" d="M28.93,48.62h38.6a4.33,4.33,0,0,1,4.32,4.32v38.6a4.33,4.33,0,0,1-4.32,4.32H28.93a4.33,4.33,0,0,1-4.32-4.32V52.94a4.33,4.33,0,0,1,4.32-4.32"/><path class="cls-1" d="M8.8,30.28h19V43.34h-3.2a5.3,5.3,0,0,0-5.28,5.28V95.85a5.3,5.3,0,0,0,5.28,5.28H71.85a5.3,5.3,0,0,0,5.28-5.28V48.62a5.3,5.3,0,0,0-5.28-5.28h-3.2V30.28h19a2.53,2.53,0,0,1,2.52,2.52v78.86a2.53,2.53,0,0,1-2.52,2.52H8.8a2.53,2.53,0,0,1-2.52-2.52V32.81A2.53,2.53,0,0,1,8.8,30.28"/><path d="M489.82,40h-6.07V34.79h6.16V22h6.16V34.79h11.59V40H496.07V63.59c0,10.86,6.9,12.24,10.4,12.24a10.76,10.76,0,0,0,2.12-.18v5.61a17.88,17.88,0,0,1-2.67.18c-5.33,0-16.1-1.75-16.1-17.2Z"/><path d="M537.65,33.69c12.79,0,19.41,9.84,19.41,21.34,0,1.1-.18,3.13-.18,3.13H521.37c.18,11.68,8.37,18.4,17.94,18.4a20.62,20.62,0,0,0,13.89-5.7l3,4.69A26.26,26.26,0,0,1,539,82.17c-13.71,0-24.2-9.93-24.2-24.19C514.84,42.8,525.23,33.69,537.65,33.69Zm13,19.5c-.37-9.57-6.26-14.26-13.06-14.26-7.64,0-14.35,5-15.92,14.26Z"/><path d="M567.83,69.75a18.84,18.84,0,0,0,14.26,7c5.15,0,9.75-2.48,9.75-7.36,0-10.12-25.94-8.28-25.94-23.18,0-8.37,7.17-12.51,16.47-12.51,4.69,0,14.08,1.84,14.08,8.37v4h-5.89V43.81c0-3.4-5-4.69-8-4.69-6.44,0-10.3,2.21-10.3,6.72,0,10.4,25.94,8,25.94,23.37,0,7.73-7,13-16.19,13-12.05,0-17.75-8.09-17.75-8.09Z"/><path d="M610.61,40h-6.07V34.79h6.16V22h6.16V34.79h11.59V40H616.87V63.59c0,10.86,6.9,12.24,10.4,12.24a10.75,10.75,0,0,0,2.12-.18v5.61a17.88,17.88,0,0,1-2.67.18c-5.33,0-16.1-1.75-16.1-17.2Z"/><path d="M641.34,42.25a1.84,1.84,0,0,0-2-2h-3.86V34.79H642c4,0,5.61,1.66,5.61,5.61V73.62a1.8,1.8,0,0,0,2,2h3.86v5.43h-6.53c-4,0-5.61-1.66-5.61-5.61Zm-.18-25.85h6.07v7.91h-6.07Z"/><path d="M664,42.25a1.84,1.84,0,0,0-2-2h-3.86V34.79h6.44c3.86,0,5.61,1.66,5.61,5.15v2.12a29.82,29.82,0,0,1-.18,3.31h.18a19.66,19.66,0,0,1,18.4-11.68c11.5,0,15.55,6.53,15.55,17.94v22a1.8,1.8,0,0,0,2,2H710v5.43h-6.53c-4,0-5.61-1.66-5.61-5.61V53.29c0-7.27-1.1-13.71-10-13.71A17.59,17.59,0,0,0,671,52.64a22.89,22.89,0,0,0-.74,6.26V81.07H664Z"/><path d="M735.82,33.69c12.42,0,15.36,7.91,15.36,7.91h.18V39.85c0-3.31,1.47-5.06,5.24-5.06H763v5.43h-3.77a1.8,1.8,0,0,0-2,2V80c0,14.72-10.86,20.42-22.26,20.42a33.82,33.82,0,0,1-15.09-3.68l2.39-5.24a28.42,28.42,0,0,0,12.51,3.22c9,0,16.19-4.23,16.19-14.54v-4c0-1.75.09-3.31.09-3.31h-.18c-2.76,5.06-7.36,8-14.54,8-12.42,0-20.61-9.84-20.61-23.73S723.4,33.69,735.82,33.69Zm15.27,23.37c0-13.52-6.44-17.66-14.63-17.66-9,0-14.26,6.53-14.26,17.57s6,18.22,15.09,18.22C744.65,75.18,751.09,70.67,751.09,57.06Z"/></svg>