<svg id="Layer_1" data-name="Layer 1" xmlns="http://www.w3.org/2000/svg" viewBox="0 0 2551.18 850.39"><defs><style>.cls-1,.cls-2{fill:#fff;}.cls-1{fill-rule:evenodd;}</style></defs><title>Seamless testing white</title><g id="_Group_" data-name="&lt;Group&gt;"><path id="_Path_" data-name="&lt;Path&gt;" class="cls-1" d="M244.49,20.89H432.64a21.1,21.1,0,0,1,21,21V230.08a21.1,21.1,0,0,1-21,21H244.49a21.1,21.1,0,0,1-21-21V41.93a21.1,21.1,0,0,1,21-21Z"/><path id="_Path_2" data-name="&lt;Path&gt;" class="cls-1" d="M75.58,169.9H199.95v63A24.13,24.13,0,0,0,224,257H181A35.34,35.34,0,0,0,145.8,292.2V607.26A35.34,35.34,0,0,0,181,642.49H496.1a35.34,35.34,0,0,0,35.24-35.24V292.2A35.34,35.34,0,0,0,496.1,257H453.18a24.13,24.13,0,0,0,24-24.06v-63H601.56a16.88,16.88,0,0,1,16.83,16.83v526a16.88,16.88,0,0,1-16.83,16.83h-526a16.88,16.88,0,0,1-16.83-16.83v-526A16.88,16.88,0,0,1,75.58,169.9Z"/><path id="_Path_3" data-name="&lt;Path&gt;" class="cls-1" d="M209.83,292.2H467.31A28.87,28.87,0,0,1,496.1,321V578.46a28.87,28.87,0,0,1-28.79,28.79H209.83A28.87,28.87,0,0,1,181,578.46V321a28.87,28.87,0,0,1,28.79-28.79Z"/></g><path class="cls-1" d="M1771.28,356.25c-6,0-9.37-3-9.37-9.37v-93.3c0-55-22.58-82.65-71.15-82.65-34.94,0-64.76,23-76.69,49h-.85c-7.24-32.38-28.12-49-64.76-49-33.66,0-63.47,24.28-73.7,49.42h-.85s.42-5.54.42-12.35v-8.1c0-15.76-8.52-23.86-27.27-23.86h-39.62V211.4h17.47c6,0,9.37,3,9.37,9.37V356.25h-62.2c-6,0-9.37-3-9.37-9.37v-91.6c0-47.71-18.75-84.35-88.61-84.35-20.87,0-74.56,5.11-74.56,40.47v21.3h38.77V220.34c0-14.06,25.14-16.62,35.36-16.62,33.66,0,47.72,13.63,47.72,51.55v2.13H1312c-36.21,0-129.94,4.26-129.94,73.7,0,43,36.21,65.61,73.28,65.61,51.55,0,68.59-42.6,68.59-42.6h.85a93.51,93.51,0,0,0-.85,12.78c0,15.34,7.67,24.71,26.84,24.71h124.83V293.19a115.13,115.13,0,0,1,3-27.69c8.1-30.68,30.25-57.09,61.77-57.09,32.8,0,37.07,26,37.07,54.11V391.61h41.32V293.19a123.81,123.81,0,0,1,3.41-29.4c7.67-29.4,30.68-55.39,60.5-55.39,32,0,37.92,23.86,37.92,54.11V364.34c0,19.17,8.09,27.27,27.27,27.27h40.9V356.25ZM1321.82,294.9c0,32-22.58,68.59-57.52,68.59-27.26,0-40.47-17-40.47-34.51,0-39.62,56.24-41.33,87.34-41.33h10.65Z"/><path class="cls-2" d="M749.22,358.81s28.54,37.92,86.05,37.92c45.16,0,79.24-24.71,79.24-63.05,0-72-117.58-63-117.58-103.94,0-17,15.76-25.56,40-25.56,13.2,0,32.37,5.54,32.37,18.32v10.65h37.06V212.69c0-32.8-44.73-41.75-70.72-41.75-43.88,0-80.09,19.17-80.09,60.49,0,69.44,117.58,65.18,117.58,103.94,0,18.75-17.46,27.69-37.49,27.69-39.62,0-65.18-32-65.18-32Z"/><path class="cls-2" d="M1147.55,271.9c0-55.81-32.38-101-92.87-101-61.34,0-108.2,44.3-108.2,112.89,0,63.9,46.43,112.89,114.59,112.89,51.12,0,83.07-31.53,83.07-31.53l-17.89-29.39s-26,25.13-63.05,25.13c-38.34,0-71.57-26-74.12-72h157.19S1147.55,277.44,1147.55,271.9ZM990.78,258.69c6.39-35.78,31.95-55,63.47-55,26.84,0,49.42,19.17,50.7,55Z"/><path class="cls-2" d="M1949.08,258.69c6.39-35.78,32-55,63.48-55,26.84,0,49.42,19.17,50.7,55Zm-44.3,25.14c0,63.9,46.43,112.89,114.6,112.89,51.12,0,83.07-31.53,83.07-31.53l-17.89-29.39s-26,25.13-63,25.13c-38.34,0-71.57-26-74.12-72h157.19s1.28-11.5,1.28-17c0-55.81-32.38-101-92.87-101C1951.63,170.94,1904.77,215.24,1904.77,283.83Z"/><path class="cls-2" d="M2136.11,358.81s28.54,37.92,86.05,37.92c45.16,0,79.24-24.71,79.24-63.05,0-72-117.58-63-117.58-103.94,0-17,15.76-25.56,40-25.56,13.21,0,32.38,5.54,32.38,18.32v10.65h37.06V212.69c0-32.8-44.73-41.75-70.72-41.75-43.88,0-80.09,19.17-80.09,60.49,0,69.44,117.57,65.18,117.57,103.94,0,18.75-17.46,27.69-37.49,27.69-39.62,0-65.18-32-65.18-32Z"/><path class="cls-2" d="M2329.54,358.81s28.54,37.92,86.05,37.92c45.16,0,79.23-24.71,79.23-63.05,0-72-117.58-63-117.58-103.94,0-17,15.76-25.56,40-25.56,13.21,0,32.38,5.54,32.38,18.32v10.65h37.06V212.69c0-32.8-44.73-41.75-70.71-41.75-43.88,0-80.09,19.17-80.09,60.49,0,69.44,117.58,65.18,117.58,103.94,0,18.75-17.46,27.69-37.49,27.69-39.62,0-65.18-32-65.18-32Z"/><path class="cls-2" d="M1810.62,369.45c0,19.17,8.1,27.27,27.27,27.27h53.34V361.36h-29.91c-6,0-9.37-3-9.37-9.37V123.21c0-19.17-8.09-27.26-27.26-27.26h-14.06V369.45Z"/><path class="cls-2" d="M779.64,538.7H752.31V506.4h28.16V448.82h39.35V506.4h50.12V538.7H819.82v96.09c0,41.83,29,47.22,44.32,47.22a48.39,48.39,0,0,0,9.53-.83V716.8a102.23,102.23,0,0,1-14.08.83c-26.51,0-79.94-8.28-79.94-78.28Z"/><path class="cls-2" d="M1005,501.43c58.81,0,90.29,43.9,90.29,98.16,0,5.38-1.24,16.57-1.24,16.57H941.17c2.48,44.73,34.79,70,72.07,70,36,0,61.3-24.44,61.3-24.44l17.4,28.58s-31.06,30.65-80.77,30.65c-66.27,0-111.42-47.63-111.42-109.76C899.75,544.5,945.31,501.43,1005,501.43Zm48.87,85.32c-1.24-34.79-23.2-53.43-49.29-53.43-30.65,0-55.5,18.64-61.71,53.43Z"/><path class="cls-2" d="M1145.36,657.16s24.85,31.06,63.37,31.06c19.47,0,36.45-8.7,36.45-26.92,0-37.69-114.31-33.55-114.31-101.06,0-40.18,35.21-58.81,77.87-58.81,25.26,0,68.75,8.7,68.75,40.59V561.9h-36V551.54c0-12.43-18.64-17.81-31.48-17.81-23.61,0-38.93,8.28-38.93,24.85,0,39.76,114.31,31.06,114.31,101.06,0,37.28-33.13,61.3-77,61.3-55.92,0-83.67-36.86-83.67-36.86Z"/><path class="cls-2" d="M1338.36,538.7H1311V506.4h28.16V448.82h39.35V506.4h50.12V538.7h-50.12v96.09c0,41.83,29,47.22,44.32,47.22a48.39,48.39,0,0,0,9.53-.83V716.8a102.23,102.23,0,0,1-14.08.83c-26.51,0-79.94-8.28-79.94-78.28Z"/><path class="cls-2" d="M1484.56,549.89c0-6.21-3.31-9.11-9.11-9.11h-17V506.4h39.35c18.64,0,26.51,7.87,26.51,26.51V672.48c0,6.21,3.31,9.11,9.11,9.11h65V716h-87.35c-18.64,0-26.51-7.87-26.51-26.51Zm.83-126.33h36v41.83h-36Z"/><path class="cls-2" d="M1596.39,549.89c0-6.21-3.31-9.11-9.11-9.11h-17V506.4h38.52c17.81,0,26.51,7.87,26.51,23.2v7.87a88.16,88.16,0,0,1-.83,12h.83c8.28-18.22,33.14-48,78.7-48,49.7,0,72.07,26.92,72.07,80.35v90.71c0,6.21,3.31,9.11,9.11,9.11h17V716h-39.76c-18.64,0-26.51-7.87-26.51-26.51V590.89c0-29.41-5.8-52.6-39.35-52.6-32.31,0-58,21.12-66.27,51.36-2.9,8.28-3.73,17.81-3.73,28.16V716h-40.18Z"/><path class="cls-2" d="M1927.73,501.43c52.19,0,67.1,32.72,67.1,32.72h.83v-6.63c0-12.43,6.63-21.12,23.19-21.12h38.93v34.38h-16.57c-5.38,0-9.11,2.9-9.11,8.28V707.28c0,69.17-52.6,95.68-105.62,95.68-25.26,0-50.94-7-71.65-17.4l13.67-32.31s25.68,14.08,57.16,14.08c36.45,0,66.27-16.15,66.27-58.4V694.85a122.34,122.34,0,0,1,.83-13.25h-.83c-12.43,20.3-31.89,31.89-62.54,31.89-58,0-93.6-46.8-93.6-107.27C1835.78,546.16,1869.33,501.43,1927.73,501.43Zm65.44,105.2c0-54.67-26.92-70.41-59.23-70.41-36.45,0-57.16,26.51-57.16,69.17,0,43.49,22.78,73.31,60.47,73.31C1966.25,678.7,1993.17,661.3,1993.17,606.63Z"/></svg>