<?xml version="1.0" encoding="utf-8"?>
<!-- Generator: Adobe Illustrator 21.0.0, SVG Export Plug-In . SVG Version: 6.00 Build 0)  -->
<svg version="1.1" id="Layer_1" xmlns="http://www.w3.org/2000/svg" xmlns:xlink="http://www.w3.org/1999/xlink" x="0px" y="0px"
	 viewBox="0 0 702.9 103.7" style="enable-background:new 0 0 702.9 103.7;" xml:space="preserve">
<style type="text/css">
	.st0{fill:#FFFFFF;}
</style>
<title>Artboard 1</title>
<path class="st0" d="M207.6,53c0-8.5,12.1-8.9,18.7-8.9h2.3v1.5c0,6.8-4.8,14.7-12.3,14.7C210.5,60.4,207.6,56.8,207.6,53
	 M252.7,66.5h8.9V45.4c0-2,0.2-4,0.6-5.9c1.7-6.6,6.5-12.2,13.2-12.2c7,0,7.9,5.6,7.9,11.6v27.7h8.9V45.4c0-2.1,0.2-4.2,0.7-6.3
	c1.6-6.3,6.6-11.9,13-11.9c6.9,0,8.1,5.1,8.1,11.6v21.8c0,4.1,1.7,5.8,5.8,5.8h8.8v-7.6h-3.8c-1,0.1-1.9-0.6-2-1.6
	c0-0.1,0-0.3,0-0.4v-20c0-11.8-4.8-17.7-15.2-17.7c-7,0.1-13.4,4.2-16.4,10.5h-0.2c-1.5-6.9-6-10.5-13.9-10.5
	c-6.9,0.2-13,4.3-15.8,10.6h-0.2c0,0,0.1-1.2,0.1-2.7v-1.7c0-3.4-1.8-5.1-5.8-5.1H247v7.6h3.7c1-0.1,1.9,0.6,2,1.6
	c0,0.1,0,0.3,0,0.4v29h-13.3c-1,0.1-1.9-0.6-2-1.6c0-0.1,0-0.3,0-0.4V37.2c0-10.2-4-18.1-19-18.1c-4.5,0-16,1.1-16,8.7v4.6h8.3v-2.7
	c0-3,5.4-3.6,7.6-3.6c7.2,0,10.2,2.9,10.2,11v0.5h-2c-7.8,0-27.8,0.9-27.8,15.8c0,9.2,7.8,14.1,15.7,14.1c6.3,0.2,12.1-3.4,14.7-9.1
	h0.2c-0.1,0.9-0.2,1.8-0.2,2.7c0,3.3,1.6,5.3,5.8,5.3L252.7,66.5z"/>
<path class="st0" d="M113.3,59.4c0,0,6.1,8.1,18.4,8.1c9.7,0,17-5.3,17-13.5c0-15.4-25.2-13.5-25.2-22.3c0-3.7,3.4-5.5,8.6-5.5
	c2.8,0,6.9,1.2,6.9,3.9v2.3h7.9v-4.4c0-7-9.6-9-15.1-9c-9.4,0-17.2,4.1-17.2,13c0,14.9,25.2,14,25.2,22.3c0,4-3.7,5.9-8,5.9
	c-8.5,0-14-6.8-14-6.8L113.3,59.4z"/>
<path class="st0" d="M160.3,38c1.4-7.7,6.9-11.8,13.6-11.8c5.8,0,10.6,4.1,10.9,11.8H160.3z M150.8,43.4c0,13.7,10,24.2,24.6,24.2
	c6.6,0,12.9-2.4,17.8-6.8l-3.8-6.3c-3.7,3.3-8.5,5.2-13.5,5.4c-8.2,0-15.3-5.6-15.9-15.4h33.7c0,0,0.3-2.5,0.3-3.7
	c0-12-6.9-21.6-19.9-21.6C160.8,19.2,150.8,28.7,150.8,43.4L150.8,43.4z"/>
<path class="st0" d="M335.9,60.6c0,4.1,1.7,5.8,5.8,5.8h8.8v-7.6h-3.7c-1,0.1-1.9-0.6-2-1.6c0-0.1,0-0.3,0-0.4v-49
	c0-4.1-1.7-5.8-5.8-5.8h-8.8v7.5h3.7c1-0.1,1.9,0.6,2,1.6c0,0.1,0,0.3,0,0.4V60.6z"/>
<path class="st0" d="M361.8,38c1.4-7.7,6.9-11.8,13.6-11.8c5.8,0,10.6,4.1,10.9,11.8H361.8z M352.3,43.4c0,13.7,10,24.2,24.6,24.2
	c6.6,0,12.9-2.4,17.8-6.8l-3.8-6.3c-3.7,3.3-8.5,5.2-13.5,5.4c-8.2,0-15.3-5.6-15.9-15.4h33.7c0,0,0.3-2.5,0.3-3.7
	c0-12-6.9-21.6-19.9-21.6C362.4,19.2,352.3,28.7,352.3,43.4z"/>
<path class="st0" d="M397.7,59.4c0,0,6.1,8.1,18.4,8.1c9.7,0,17-5.3,17-13.5c0-15.4-25.2-13.6-25.2-22.3c0-3.7,3.4-5.5,8.6-5.5
	c2.8,0,6.9,1.2,6.9,3.9v2.3h7.9v-4.4c0-7-9.6-9-15.1-9c-9.4,0-17.2,4.1-17.2,13c0,14.9,25.2,14,25.2,22.3c0,4-3.7,5.9-8,5.9
	c-8.5,0-14-6.8-14-6.8L397.7,59.4z"/>
<path class="st0" d="M434.6,59.4c0,0,6.1,8.1,18.4,8.1c9.7,0,17-5.3,17-13.5c0-15.4-25.2-13.5-25.2-22.3c0-3.7,3.4-5.5,8.6-5.5
	c2.8,0,6.9,1.2,6.9,3.9v2.3h7.9v-4.4c0-7-9.6-9-15.1-9c-9.4,0-17.2,4.1-17.2,13c0,14.9,25.2,14,25.2,22.3c0,4-3.7,5.9-8,5.9
	c-8.5,0-14-6.8-14-6.8L434.6,59.4z"/>
<path class="st0" d="M478.8,66.5h6.2v-22c-0.1-2.1,0.2-4.1,0.7-6.1c2-7.6,8.8-13,16.7-13.1c9,0,10,6.4,10,13.6v22
	c0,3.9,1.6,5.6,5.6,5.6h6.5v-5.4h-3.8c-1,0.1-1.9-0.6-2-1.6c0-0.1,0-0.3,0-0.4V37.2c0-11.3-4-17.8-15.4-17.8
	c-10.3,0-16.4,7-18.2,11.4h-0.2c0,0,0.2-1.6,0.2-3.7V7.7c0-3.7-1.6-5.4-5.6-5.4h-6.4v5.4h3.8c1-0.1,1.9,0.6,2,1.6c0,0.1,0,0.2,0,0.4
	L478.8,66.5z"/>
<path class="st0" d="M533.3,60.9c0,3.9,1.6,5.6,5.6,5.6h6.5v-5.4h-3.8c-1,0.1-1.9-0.6-2-1.6c0-0.1,0-0.3,0-0.4v-33
	c0-3.9-1.6-5.6-5.6-5.6h-6.5v5.4h3.8c1-0.1,1.9,0.6,2,1.6c0,0.1,0,0.2,0,0.4V60.9z M533.2,10.1h6V2.3h-6V10.1z"/>
<path class="st0" d="M553.9,66.5h6.2V47.1c0-3,0.4-6,1.3-9c2-6.8,6.8-11.9,13.3-11.9c0.8,0,1.5,0.1,2.3,0.2v-6.1
	c-0.8-0.2-1.6-0.3-2.5-0.3c-7.2,0-12.3,5.3-14.5,12.2h-0.2c0.1-1.2,0.2-2.3,0.2-3.5v-3.1c0-3.7-1.7-5.2-5.6-5.2h-6.4v5.4h3.8
	c1-0.1,1.9,0.6,2,1.6c0,0.1,0,0.2,0,0.4V66.5z"/>
<path class="st0" d="M585.4,60.9c0,3.9,1.6,5.6,5.6,5.6h6.5v-5.4h-3.8c-1,0.1-1.9-0.6-2-1.6c0-0.1,0-0.3,0-0.4v-33
	c0-3.9-1.6-5.6-5.6-5.6h-6.5v5.4h3.8c1-0.1,1.9,0.6,2,1.6c0,0.1,0,0.2,0,0.4V60.9z M585.2,10.1h6V2.3h-6V10.1z"/>
<path class="st0" d="M605.9,66.5h6.2v-22c0-2.1,0.2-4.2,0.7-6.2c2-7.6,8.8-12.9,16.7-13c8.8,0,10,6.4,10,13.6v22
	c0,3.9,1.6,5.6,5.6,5.6h6.5v-5.4h-3.8c-1,0.1-1.9-0.6-2-1.6c0-0.1,0-0.3,0-0.4V37.2c0-11.3-4-17.8-15.4-17.8
	c-7.9-0.2-15.1,4.4-18.3,11.6h-0.2c0.1-1.1,0.2-2.2,0.2-3.3v-2.1c0-3.5-1.7-5.1-5.6-5.1h-6.4v5.4h3.8c1-0.1,1.9,0.6,2,1.6
	c0,0.1,0,0.2,0,0.4V66.5z"/>
<path class="st0" d="M677.3,60.6c-9,0-15-7.1-15-18.1s5.2-17.4,14.2-17.4c8.1,0,14.5,4.1,14.5,17.5S684.6,60.6,677.3,60.6
	 M655.9,42.6c0,13.8,8.1,23.5,20.5,23.5c7.1,0,11.7-2.9,14.4-7.9h0.2c0,0,0,1.6,0,3.2v4c0,10.2-7.1,14.4-16.1,14.4
	c-4.3-0.1-8.6-1.2-12.4-3.2l-2.4,5.2c4.6,2.4,9.8,3.6,15,3.7c11.3,0,22.1-5.7,22.1-20.3V27.9c-0.1-1,0.6-1.9,1.6-2
	c0.1,0,0.3,0,0.4,0h3.7v-5.4h-6.4c-3.7,0-5.2,1.7-5.2,5v1.7h-0.2c0,0-3-7.8-15.3-7.8S655.9,28.9,655.9,42.6z"/>
<path class="st0" d="M227.6,99.6l-1.4,2.6c1,0.9,2.3,1.5,3.7,1.5c2.4,0,4.5-1.5,5.3-3.8l5.2-13.2c0.1-0.4,0.5-0.6,0.8-0.5h0.4v-3.1
	h-2.5c-0.9-0.1-1.7,0.5-1.9,1.4l-2.5,7.3c-0.2,0.6-0.4,1.3-0.5,1.9h-0.1c-0.1-0.7-0.3-1.3-0.5-1.9l-2.9-7.3c-0.2-0.9-1-1.5-1.9-1.4
	h-2.4v3.1h0.4c0.4-0.1,0.7,0.2,0.8,0.5l4.9,10.9l-0.5,1.1c-0.3,1.1-1.3,1.8-2.4,1.9C228.9,100.6,228.1,100.2,227.6,99.6 M220,97.7
	h3.6V86h3.1v-2.9h-3.1v-0.3c0-2.1,1.8-2.4,2.8-2.4c0.2,0,0.5,0,0.7,0.1v-3.1c-0.4-0.1-0.8-0.1-1.2-0.1c-2,0-5.9,0.6-5.9,5.4v0.4
	h-1.8V86h1.8L220,97.7z M213,95.7c0,1.4,0.6,1.9,1.9,1.9h3.5v-3.1h-1.1c-0.3,0-0.6-0.2-0.6-0.5c0,0,0-0.1,0-0.1V85
	c0-1.3-0.6-1.9-1.9-1.9h-3.5v3.1h1.1c0.3,0,0.6,0.2,0.6,0.5c0,0,0,0.1,0,0.2V95.7z M213.2,80.7h3.1v-3.4h-3.1V80.7z M202.3,95
	c-2.1,0-3.6-1.8-3.6-4.6s1.7-4.5,3.7-4.5c2.4,0,3.6,2.2,3.6,4.5C206,93.6,204.2,95,202.3,95z M195,90.4c0,4.5,2.5,7.6,6.5,7.6
	c1.8,0.1,3.6-0.8,4.6-2.4h0.1v0.5c0,0.9,0.5,1.5,1.8,1.5h3.4v-3.1h-1.1c-0.3,0-0.6-0.2-0.6-0.5c0,0,0-0.1,0-0.1V79.3
	c0-1.3-0.6-1.9-1.9-1.9h-3.5v3.1h1.1c0.3,0,0.6,0.2,0.6,0.5c0,0,0,0.1,0,0.2v2.6c0,0.5,0,0.9,0,0.9h-0.1c0,0-1-1.8-4.2-1.8
	C197.8,82.8,195,85.8,195,90.4L195,90.4z M189.4,95.7c0,1.4,0.6,1.9,1.9,1.9h3.5v-3.1h-1.1c-0.3,0-0.6-0.2-0.6-0.5c0,0,0-0.1,0-0.1
	v-9c0-1.3-0.6-1.9-1.9-1.9h-3.5v3.1h1.1c0.3,0,0.6,0.2,0.6,0.5c0,0,0,0.1,0,0.2V95.7z M189.6,80.7h3.1v-3.4h-3.1V80.7z M175.7,95.4
	c1.6,1.7,3.8,2.6,6.1,2.6c3.2,0,5.6-1.7,5.6-4.5c0-4.9-7.8-4.4-7.8-6.7c0-0.9,0.9-1.3,2.2-1.3c0.8,0,1.8,0.3,1.8,1v0.7h3.2v-1.5
	c0-2.4-3.1-3-5.1-3c-3,0-5.7,1.3-5.7,4.3c0,4.7,7.7,4.7,7.7,6.8c0,1-0.9,1.4-2,1.4c-1.7-0.1-3.2-0.9-4.4-2.1L175.7,95.4z
	 M160.3,97.7h3.6V91c0-0.7,0.1-1.3,0.3-1.9c0.5-1.8,2.1-3,3.9-3c1.8,0,2.3,1.2,2.3,3v6.7c0,1.4,0.6,1.9,1.9,1.9h3.5v-3.1h-1.1
	c-0.3,0-0.6-0.2-0.6-0.5c0,0,0-0.1,0-0.1v-5.7c0-3.9-1.9-5.6-5.1-5.6c-2.2-0.1-4.2,1.1-5.1,3h-0.1c0-0.2,0.1-0.4,0.1-0.6v-0.4
	c0-1-0.6-1.6-1.9-1.6h-3.3v3.1h1.1c0.3,0,0.6,0.2,0.6,0.5c0,0,0,0.1,0,0.2L160.3,97.7z M153.3,95.8c0,1.4,0.6,1.9,1.9,1.9h3.5v-3.1
	h-1.1c-0.3,0-0.6-0.2-0.6-0.5c0,0,0-0.1,0-0.1v-9c0-1.3-0.6-1.9-1.9-1.9h-3.5v3.1h1.1c0.3,0,0.6,0.2,0.6,0.5c0,0,0,0.1,0,0.2V95.8z
	 M153.4,80.8h3.1v-3.4h-3.1V80.8z M130.2,99.7l-1.4,2.6c1,0.9,2.3,1.5,3.7,1.5c2.4,0,4.5-1.5,5.3-3.8l5.2-13.2
	c0.1-0.4,0.5-0.6,0.8-0.5h0.4v-3.1h-2.5c-0.9-0.1-1.8,0.5-2,1.4l-2.5,7.3c-0.2,0.6-0.4,1.3-0.5,1.9h-0.1c-0.1-0.7-0.3-1.3-0.5-1.9
	l-2.8-7.3c-0.2-0.9-1-1.5-1.9-1.4h-2.4v3.1h0.4c0.4-0.1,0.7,0.2,0.8,0.5l4.9,10.9l-0.5,1.1c-0.3,1.1-1.3,1.8-2.4,1.9
	C131.5,100.6,130.7,100.2,130.2,99.7L130.2,99.7z M118.5,90.5c0-3.2,1.8-4.6,3.7-4.6c2.1,0,3.6,1.8,3.6,4.6s-1.7,4.5-3.7,4.5
	C119.8,95,118.5,92.7,118.5,90.5z M115,97.7h3.4v-0.7c0-0.3,0-0.7-0.1-1h0.1c1,1.4,2.7,2.1,4.3,2.1c3.9,0,6.7-3,6.7-7.6
	s-2.5-7.6-6.5-7.6c-1.7-0.1-3.3,0.7-4.4,2h-0.1c0,0,0.1-0.5,0.1-1.2v-4.2c0-1.3-0.6-1.9-1.9-1.9h-3.5v3.1h1.1c0.3,0,0.6,0.2,0.6,0.5
	c0,0,0,0.1,0,0.2L115,97.7z"/>
<path class="st0" d="M29.3,0h25.3c1.6,0,2.8,1.3,2.8,2.8v25.3c0,1.6-1.3,2.8-2.8,2.8H29.3c-1.6,0-2.8-1.3-2.8-2.8V2.8
	C26.5,1.3,27.8,0,29.3,0"/>
<path class="st0" d="M22.6,38.1h38.6c2.4,0,4.3,1.9,4.3,4.3V81c0,2.4-1.9,4.3-4.3,4.3H22.6c-2.4,0-4.3-1.9-4.3-4.3V42.4
	C18.3,40,20.3,38.1,22.6,38.1"/>
<path class="st0" d="M2.5,19.8h19v13.1h-3.2c-2.9,0-5.3,2.4-5.3,5.3v47.2c0,2.9,2.4,5.3,5.3,5.3h47.2c2.9,0,5.3-2.4,5.3-5.3V38.1
	c0-2.9-2.4-5.3-5.3-5.3h-3.2V19.8h19c1.4,0,2.5,1.1,2.5,2.5c0,0,0,0,0,0v78.9c0,1.4-1.1,2.5-2.5,2.5H2.5c-1.4,0-2.5-1.1-2.5-2.5
	V22.3C0,20.9,1.1,19.8,2.5,19.8"/>
</svg>
