<svg id="Layer_1" data-name="Layer 1" xmlns="http://www.w3.org/2000/svg" viewBox="0 0 474.74 110.49"><defs><style>.cls-1{fill:#2889ce;}.cls-1,.cls-2,.cls-3,.cls-4{fill-rule:evenodd;}.cls-2{fill:#4bb779;}.cls-4{fill:#848688;}</style></defs><title>Artboard 1</title><path d="M194.81,56.65c0-8.82,12.52-9.2,19.44-9.2h2.37v1.61c0,7.11-5,15.27-12.8,15.27-6.07,0-9-3.79-9-7.68M272,70.59h9.2V30h11.38V22.6H281.17V21.17c0-8.92,6.45-10.05,10.05-10.05a13.33,13.33,0,0,1,2.37.19V3.44a19.71,19.71,0,0,0-3.51-.28C284,3.15,272,5.14,272,21V22.6h-21.1V21.17c0-8.92,6.45-10.05,10.05-10.05a13.33,13.33,0,0,1,2.37.19V3.44a19.71,19.71,0,0,0-3.51-.28c-6.07,0-18.12,2-18.12,17.83V22.6h-6V30h6V62.72H227.82a1.86,1.86,0,0,1-2.09-2.09V40.24c0-10.62-4.17-18.78-19.73-18.78-4.65,0-16.6,1.14-16.6,9v4.74H198V32.46c0-3.13,5.6-3.7,7.87-3.7,7.49,0,10.62,3,10.62,11.48v.47h-2.09c-8.06,0-28.93.95-28.93,16.41,0,9.58,8.06,14.61,16.31,14.61a16.39,16.39,0,0,0,15.27-9.48h.19a20.78,20.78,0,0,0-.19,2.85c0,3.41,1.71,5.5,6,5.5h27.79V30H272Z"/><path d="M117.2,63.29s6.35,8.44,19.16,8.44c10.05,0,17.64-5.5,17.64-14,0-16-26.18-14-26.18-23.14,0-3.79,3.51-5.69,8.92-5.69,2.94,0,7.21,1.23,7.21,4.08v2.37h8.25V30.75c0-7.3-10-9.29-15.74-9.29-9.77,0-17.83,4.27-17.83,13.47,0,15.46,26.18,14.51,26.18,23.14,0,4.17-3.89,6.16-8.35,6.16-8.82,0-14.51-7.11-14.51-7.11Z"/><path d="M195.81,56.44c0-8.93,12.68-9.32,19.69-9.32h2.4v1.63c0,7.21-5.09,15.47-13,15.47-6.15,0-9.13-3.84-9.13-7.78m-9.41.48c0,9.7,8.17,14.79,16.52,14.79a16.6,16.6,0,0,0,15.47-9.61h.19a21.08,21.08,0,0,0-.19,2.88c0,3.46,1.73,5.57,6.05,5.57H248.8v-8H229.24a1.88,1.88,0,0,1-2.11-2.11V39.82c0-10.76-4.23-19-20-19-4.71,0-16.81,1.15-16.81,9.13v4.8h8.74V31.94c0-3.17,5.67-3.75,8-3.75,7.59,0,10.76,3.07,10.76,11.62v.48H215.7C207.53,40.3,186.4,41.26,186.4,56.92Z"/><path d="M160.76,53c0,16,12.23,17.93,18.31,17.93a23.41,23.41,0,0,0,3.22-.19V62.62a11.06,11.06,0,0,1-2.18.19C176.6,62.81,170,61.58,170,52V30h11.48V22.6H170V14.17h0V4.88h-9v8.19h0V22.6H154.5V30h6.26Z"/><path d="M438.87,64.12s6,8.55,18.76,8.55c9.72,0,17.11-5.54,17.11-13.71,0-16.23-27.41-13.71-27.41-24.69,0-4.76,4.08-7.1,10.89-7.1,3.21,0,8.46,1.36,8.46,5v2.33h6.22V30.29c0-6.9-9.92-8.85-14.87-8.85-9.82,0-17.4,4.37-17.4,13.22,0,15.75,27.41,13.8,27.41,24.5,0,5.15-4.86,7.78-10.3,7.78-9.62,0-15.07-7.39-15.07-7.39Zm-38.13,0s6,8.55,18.76,8.55c9.72,0,17.11-5.54,17.11-13.71,0-16.23-27.41-13.71-27.41-24.69,0-4.76,4.08-7.1,10.89-7.1,3.21,0,8.46,1.36,8.46,5v2.33h6.22V30.29c0-6.9-9.92-8.85-14.87-8.85-9.82,0-17.4,4.37-17.4,13.22,0,15.75,27.41,13.8,27.41,24.5,0,5.15-4.86,7.78-10.3,7.78-9.62,0-15.07-7.39-15.07-7.39Zm-38.9-6.32c0-11,15.36-11.18,23-11.18h2.82v2.24c0,8.46-5.64,18.18-15,18.18C365.43,67,361.84,62.37,361.84,57.8Zm-6.8.39c0,9.72,8.46,14.48,16.62,14.48a17.3,17.3,0,0,0,16.23-10.6h.19s-.1,1.46-.1,3.6c0,4,1.65,5.83,5.83,5.83h6.71V65.77h-4.08a1.9,1.9,0,0,1-2.14-2.14V40.21c0-10.5-3.69-18.76-19.15-18.76-4.28,0-15.94,1.46-15.94,8.26v4.67h6.32V31.26c0-3.6,7.1-4.28,9.53-4.28,8.94,0,12.64,3.6,12.64,13.8v.58H385C376.52,41.37,355,42,355,58.19Zm-14.7,7.39c0,4.18,1.75,5.93,5.93,5.93h6.9V65.77h-4.08a1.9,1.9,0,0,1-2.14-2.14V9.1c0-4.18-1.75-5.93-5.93-5.93h-6.9V8.91h4.08A2,2,0,0,1,340.33,11ZM289.47,47.11c0,15.16,11.08,25.57,25.66,25.57a25.82,25.82,0,0,0,19.15-8l-3.11-5a21.62,21.62,0,0,1-15.75,6.9c-10.3,0-19.15-7.49-19.15-19.54,0-11.86,8.46-19.73,19-19.73,4.08,0,11.18,1.94,11.18,6v2.82h6.22V31.85c0-8.07-11.86-10.4-17.4-10.4C300.65,21.45,289.47,32.14,289.47,47.11Z"/><path class="cls-1" d="M31.25,0H58.17a3,3,0,0,1,3,3V29.92a3,3,0,0,1-3,3H31.25a3,3,0,0,1-3-3V3a3,3,0,0,1,3-3"/><path class="cls-2" d="M24.14,40.61H65.28a4.61,4.61,0,0,1,4.6,4.6V86.35a4.61,4.61,0,0,1-4.6,4.6H24.14a4.61,4.61,0,0,1-4.6-4.6V45.21a4.61,4.61,0,0,1,4.6-4.6"/><path class="cls-3" d="M2.69,21.07H23V35H19.54a5.65,5.65,0,0,0-5.63,5.63V90.95a5.65,5.65,0,0,0,5.63,5.63H69.88a5.65,5.65,0,0,0,5.63-5.63V40.61A5.65,5.65,0,0,0,69.88,35H66.46V21.07H86.73a2.7,2.7,0,0,1,2.69,2.69v84a2.7,2.7,0,0,1-2.69,2.69h-84A2.7,2.7,0,0,1,0,107.8v-84a2.7,2.7,0,0,1,2.69-2.69"/><path class="cls-4" d="M239,106.16l-1.49,2.74a5.75,5.75,0,0,0,3.93,1.58,5.88,5.88,0,0,0,5.61-4.05l5.58-14a.78.78,0,0,1,.88-.55H254V88.55h-2.62A1.92,1.92,0,0,0,249.3,90l-2.65,7.77a18.83,18.83,0,0,0-.52,2.07h-.06a15.21,15.21,0,0,0-.55-2.07l-3-7.77a1.89,1.89,0,0,0-2-1.46h-2.56v3.29h.46a.73.73,0,0,1,.82.55l5.18,11.67-.52,1.19a2.77,2.77,0,0,1-2.56,2,3.35,3.35,0,0,1-2.22-1.07m-8-2.07h3.87V91.63h3.32V88.55h-3.32v-.37c0-2.25,1.89-2.53,3-2.53a4.91,4.91,0,0,1,.79.06V82.46a4.48,4.48,0,0,0-1.31-.12c-2.16,0-6.34.67-6.34,5.76v.46h-1.92v3.08H231ZM223.49,102c0,1.46.61,2.07,2,2.07h3.69v-3.26H228a.61.61,0,0,1-.67-.67V90.62c0-1.43-.61-2.07-2-2.07H221.6v3.29h1.22a.6.6,0,0,1,.67.67Zm.18-16H227V82.46h-3.35ZM212.1,101.19c-2.29,0-3.84-1.92-3.84-4.87s1.77-4.81,3.9-4.81c2.59,0,3.84,2.38,3.84,4.78C216,99.73,214.11,101.19,212.1,101.19Zm-7.77-4.87c0,4.81,2.71,8.13,6.92,8.13a5.34,5.34,0,0,0,4.84-2.53h.06v.58c0,.91.52,1.58,1.92,1.58h3.56v-3.26h-1.19a.61.61,0,0,1-.67-.67V84.53c0-1.43-.64-2.07-2.07-2.07H214v3.29h1.22a.6.6,0,0,1,.67.67v2.74c0,.52,0,.91,0,.91h-.06s-1.1-1.89-4.48-1.89C207.29,88.18,204.33,91.38,204.33,96.32Zm-6,5.7c0,1.46.61,2.07,2,2.07h3.69v-3.26h-1.22a.61.61,0,0,1-.67-.67V90.62c0-1.43-.61-2.07-2-2.07h-3.69v3.29h1.22a.6.6,0,0,1,.67.67Zm.18-16h3.35V82.46h-3.35ZM183.7,101.68a8.52,8.52,0,0,0,6.46,2.77c3.38,0,6-1.83,6-4.75,0-5.18-8.26-4.69-8.26-7.13,0-.91.94-1.4,2.32-1.4.85,0,2,.37,2,1.1V93h3.41V91.41c0-2.53-3.35-3.23-5.45-3.23-3.23,0-6,1.43-6,4.54,0,5,8.2,5,8.2,7.19,0,1-.91,1.52-2.1,1.52a7,7,0,0,1-4.63-2.29Zm-16.35,2.41h3.84V97a6.55,6.55,0,0,1,.3-2.07,4.26,4.26,0,0,1,4.17-3.17c1.95,0,2.44,1.28,2.44,3.17V102c0,1.46.61,2.07,2.07,2.07h3.69v-3.26h-1.22a.61.61,0,0,1-.67-.67V94.09c0-4.11-2-5.91-5.42-5.91a6,6,0,0,0-5.48,3.23H171a4.3,4.3,0,0,0,.06-.67v-.46c0-1.1-.67-1.74-2-1.74h-3.56v3.29h1.22a.6.6,0,0,1,.67.67ZM159.83,102c0,1.46.61,2.07,2,2.07h3.69v-3.26h-1.22a.61.61,0,0,1-.67-.67V90.62c0-1.43-.61-2.07-2-2.07h-3.69v3.29h1.22a.6.6,0,0,1,.67.67ZM160,86h3.35V82.46H160Zm-24.76,20.14-1.49,2.74a5.75,5.75,0,0,0,3.93,1.58,5.88,5.88,0,0,0,5.61-4.05l5.58-14a.78.78,0,0,1,.88-.55h.46V88.55h-2.62A1.92,1.92,0,0,0,145.52,90l-2.65,7.77a18.84,18.84,0,0,0-.52,2.07h-.06a15.19,15.19,0,0,0-.55-2.07l-3-7.77a1.89,1.89,0,0,0-2-1.46H134.1v3.29h.46a.73.73,0,0,1,.82.55l5.18,11.67-.52,1.19a2.77,2.77,0,0,1-2.56,2A3.35,3.35,0,0,1,135.25,106.16Zm-12.42-9.75c0-3.44,1.89-4.91,3.9-4.91,2.29,0,3.87,1.92,3.87,4.87s-1.8,4.81-3.9,4.81C124.11,101.19,122.83,98.82,122.83,96.41Zm-3.75,7.68h3.66v-.79a8.13,8.13,0,0,0-.06-1h.06a5.54,5.54,0,0,0,4.63,2.19c4.11,0,7.13-3.2,7.13-8.13s-2.68-8.13-6.89-8.13A5.52,5.52,0,0,0,123,90.35h-.06S123,89.8,123,89V84.53c0-1.43-.64-2.07-2.07-2.07H117.2v3.29h1.22a.6.6,0,0,1,.67.67Z"/></svg>