<?xml version="1.0" encoding="utf-8"?>
<!-- Generator: Adobe Illustrator 21.0.0, SVG Export Plug-In . SVG Version: 6.00 Build 0)  -->
<svg version="1.1" id="Layer_1" xmlns="http://www.w3.org/2000/svg" xmlns:xlink="http://www.w3.org/1999/xlink" x="0px" y="0px"
	 viewBox="0 0 474.7 110.5" style="enable-background:new 0 0 474.7 110.5;" xml:space="preserve">
<style type="text/css">
	.st0{fill:#FFFFFF;}
</style>
<title>Artboard 1</title>
<path class="st0" d="M194.8,56.7c0-8.8,12.5-9.2,19.4-9.2h2.4v1.6c0,7.1-5,15.3-12.8,15.3C197.7,64.3,194.8,60.5,194.8,56.7
	 M272,70.6h9.2V30h11.4v-7.4h-11.4v-1.4c0-8.9,6.5-10.1,10-10.1c0.8,0,1.6,0.1,2.4,0.2V3.4c-1.2-0.2-2.3-0.3-3.5-0.3
	C284,3.2,272,5.1,272,21v1.6h-21.1v-1.4c0-8.9,6.5-10.1,10-10.1c0.8,0,1.6,0.1,2.4,0.2V3.4c-1.2-0.2-2.3-0.3-3.5-0.3
	c-6.1,0-18.1,2-18.1,17.8v1.6h-6V30h6v32.7h-13.9c-1,0.1-2-0.6-2.1-1.6c0-0.2,0-0.3,0-0.5V40.2c0-10.6-4.2-18.8-19.7-18.8
	c-4.6,0-16.6,1.1-16.6,9v4.7h8.6v-2.7c0-3.1,5.6-3.7,7.9-3.7c7.5,0,10.6,3,10.6,11.5v0.5h-2.1c-8.1,0-28.9,1-28.9,16.4
	c0,9.6,8.1,14.6,16.3,14.6c6.5,0.2,12.5-3.6,15.3-9.5h0.2c-0.1,0.9-0.2,1.9-0.2,2.9c0,3.4,1.7,5.5,6,5.5h27.8V30H272V70.6z"/>
<path class="st0" d="M117.2,63.3c0,0,6.3,8.4,19.2,8.4c10.1,0,17.6-5.5,17.6-14c0-16-26.2-14-26.2-23.1c0-3.8,3.5-5.7,8.9-5.7
	c2.9,0,7.2,1.2,7.2,4.1v2.4h8.2v-4.6c0-7.3-10-9.3-15.7-9.3c-9.8,0-17.8,4.3-17.8,13.5c0,15.5,26.2,14.5,26.2,23.1
	c0,4.2-3.9,6.2-8.4,6.2c-8.8,0-14.5-7.1-14.5-7.1L117.2,63.3z"/>
<path class="st0" d="M195.8,56.4c0-8.9,12.7-9.3,19.7-9.3h2.4v1.6c0,7.2-5.1,15.5-13,15.5C198.8,64.2,195.8,60.4,195.8,56.4
	 M186.4,56.9c0,9.7,8.2,14.8,16.5,14.8c6.6,0.2,12.7-3.6,15.5-9.6h0.2c-0.1,1-0.2,1.9-0.2,2.9c0,3.5,1.7,5.6,6.1,5.6h24.4v-8h-19.6
	c-1,0.1-2-0.6-2.1-1.6c0-0.2,0-0.3,0-0.5V39.8c0-10.8-4.2-19-20-19c-4.7,0-16.8,1.1-16.8,9.1v4.8h8.7v-2.8c0-3.2,5.7-3.8,8-3.8
	c7.6,0,10.8,3.1,10.8,11.6v0.5h-2.1C207.5,40.3,186.4,41.3,186.4,56.9L186.4,56.9z"/>
<path class="st0" d="M160.8,53c0,16,12.2,17.9,18.3,17.9c1.1,0,2.2-0.1,3.2-0.2v-8.1c-0.7,0.1-1.4,0.2-2.2,0.2
	c-3.5,0-10.1-1.2-10.1-10.8V30h11.5v-7.4H170v-8.4l0,0V4.9h-9v8.2l0,0v9.5h-6.5V30h6.3V53z"/>
<path class="st0" d="M438.9,64.1c0,0,6,8.6,18.8,8.6c9.7,0,17.1-5.5,17.1-13.7c0-16.2-27.4-13.7-27.4-24.7c0-4.8,4.1-7.1,10.9-7.1
	c3.2,0,8.5,1.4,8.5,5v2.3h6.2v-4.2c0-6.9-9.9-8.9-14.9-8.9c-9.8,0-17.4,4.4-17.4,13.2c0,15.8,27.4,13.8,27.4,24.5
	c0,5.1-4.9,7.8-10.3,7.8c-9.6,0-15.1-7.4-15.1-7.4L438.9,64.1z M400.7,64.1c0,0,6,8.6,18.8,8.6c9.7,0,17.1-5.5,17.1-13.7
	c0-16.2-27.4-13.7-27.4-24.7c0-4.8,4.1-7.1,10.9-7.1c3.2,0,8.5,1.4,8.5,5v2.3h6.2v-4.2c0-6.9-9.9-8.9-14.9-8.9
	c-9.8,0-17.4,4.4-17.4,13.2c0,15.8,27.4,13.8,27.4,24.5c0,5.1-4.9,7.8-10.3,7.8c-9.6,0-15.1-7.4-15.1-7.4L400.7,64.1z M361.8,57.8
	c0-11,15.4-11.2,23-11.2h2.8v2.2c0,8.5-5.6,18.2-15,18.2C365.4,67,361.8,62.4,361.8,57.8z M355,58.2c0,9.7,8.5,14.5,16.6,14.5
	c7.1,0.1,13.5-4.1,16.2-10.6h0.2c0,0-0.1,1.5-0.1,3.6c0,4,1.6,5.8,5.8,5.8h6.7v-5.7h-4.1c-1,0.1-2-0.6-2.1-1.6c0-0.2,0-0.3,0-0.5
	V40.2c0-10.5-3.7-18.8-19.1-18.8c-4.3,0-15.9,1.5-15.9,8.3v4.7h6.3v-3.1c0-3.6,7.1-4.3,9.5-4.3c8.9,0,12.6,3.6,12.6,13.8v0.6H385
	C376.5,41.4,355,42,355,58.2L355,58.2z M340.3,65.6c0,4.2,1.8,5.9,5.9,5.9h6.9v-5.7h-4.1c-1,0.1-2-0.6-2.1-1.6c0-0.2,0-0.3,0-0.5
	V9.1c0-4.2-1.8-5.9-5.9-5.9h-6.9v5.7h4.1c1.1-0.1,2.1,0.8,2.1,1.9c0,0.1,0,0.2,0,0.2L340.3,65.6z M289.5,47.1
	c0,15.2,11.1,25.6,25.7,25.6c7.2,0.1,14.2-2.8,19.1-8l-3.1-5c-4.1,4.4-9.8,6.9-15.8,6.9c-10.3,0-19.1-7.5-19.1-19.5
	c0-11.9,8.5-19.7,19-19.7c4.1,0,11.2,1.9,11.2,6v2.8h6.2v-4.3c0-8.1-11.9-10.4-17.4-10.4C300.6,21.5,289.5,32.1,289.5,47.1z"/>
<path class="st0" d="M31.2,0h26.9c1.7,0,3,1.3,3,3v26.9c0,1.7-1.3,3-3,3H31.2c-1.7,0-3-1.3-3-3l0,0V3C28.2,1.3,29.6,0,31.2,0"/>
<path class="st0" d="M24.1,40.6h41.1c2.5,0,4.6,2.1,4.6,4.6v41.1c0,2.5-2.1,4.6-4.6,4.6H24.1c-2.5,0-4.6-2.1-4.6-4.6V45.2
	C19.5,42.7,21.6,40.6,24.1,40.6"/>
<path class="st0" d="M2.7,21.1H23V35h-3.5c-3.1,0-5.6,2.5-5.6,5.6v50.3c0,3.1,2.5,5.6,5.6,5.6h50.3c3.1,0,5.6-2.5,5.6-5.6V40.6
	c0-3.1-2.5-5.6-5.6-5.6h-3.4V21.1h20.3c1.5,0,2.7,1.2,2.7,2.7v84c0,1.5-1.2,2.7-2.7,2.7h-84c-1.5,0-2.7-1.2-2.7-2.7v-84
	C0,22.3,1.2,21.1,2.7,21.1"/>
<path class="st0" d="M239,106.2l-1.5,2.7c1.1,1,2.5,1.6,3.9,1.6c2.6,0,4.8-1.6,5.6-4.1l5.6-14c0.1-0.4,0.5-0.6,0.9-0.6h0.5v-3.3
	h-2.6c-1-0.1-1.8,0.5-2.1,1.4l-2.6,7.8c-0.2,0.7-0.4,1.4-0.5,2.1h-0.1c-0.1-0.7-0.3-1.4-0.6-2.1l-3-7.8c-0.2-0.9-1.1-1.5-2-1.5H238
	v3.3h0.5c0.4-0.1,0.7,0.2,0.8,0.6l5.2,11.7l-0.5,1.2c-0.3,1.1-1.4,2-2.6,2c-0.8-0.1-1.6-0.4-2.2-1.1 M231.1,104.1h3.9V91.6h3.3v-3.1
	H235v-0.4c0-2.2,1.9-2.5,3-2.5c0.3,0,0.5,0,0.8,0.1v-3.2c-0.4-0.1-0.9-0.1-1.3-0.1c-2.2,0-6.3,0.7-6.3,5.8v0.5h-1.9v3.1h1.8
	L231.1,104.1z M223.5,102c0,1.5,0.6,2.1,2,2.1h3.7v-3.3H228c-0.3,0-0.6-0.2-0.7-0.5c0,0,0-0.1,0-0.1v-9.5c0-1.4-0.6-2.1-2-2.1h-3.7
	v3.3h1.2c0.3,0,0.6,0.2,0.7,0.5c0,0,0,0.1,0,0.1V102z M223.7,86h3.3v-3.5h-3.4L223.7,86z M212.1,101.2c-2.3,0-3.8-1.9-3.8-4.9
	s1.8-4.8,3.9-4.8c2.6,0,3.8,2.4,3.8,4.8C216,99.7,214.1,101.2,212.1,101.2z M204.3,96.3c0,4.8,2.7,8.1,6.9,8.1
	c2,0.1,3.8-0.9,4.8-2.5h0.1v0.6c0,0.9,0.5,1.6,1.9,1.6h3.6v-3.3h-1.2c-0.3,0-0.6-0.2-0.7-0.5c0,0,0-0.1,0-0.1V84.5
	c0-1.4-0.6-2.1-2.1-2.1H214v3.3h1.2c0.3,0,0.6,0.2,0.7,0.5c0,0,0,0.1,0,0.1v2.7c0,0.5,0,0.9,0,0.9h-0.1c0,0-1.1-1.9-4.5-1.9
	C207.3,88.2,204.3,91.4,204.3,96.3z M198.3,102c0,1.5,0.6,2.1,2,2.1h3.7v-3.3h-1.2c-0.3,0-0.6-0.2-0.7-0.5c0,0,0-0.1,0-0.1v-9.5
	c0-1.4-0.6-2.1-2-2.1h-3.7v3.3h1.2c0.3,0,0.6,0.2,0.7,0.5c0,0,0,0.1,0,0.1V102z M198.5,86h3.4v-3.6h-3.4V86z M183.7,101.7
	c1.7,1.8,4,2.8,6.5,2.8c3.4,0,6-1.8,6-4.8c0-5.2-8.3-4.7-8.3-7.1c0-0.9,0.9-1.4,2.3-1.4c0.9,0,2,0.4,2,1.1V93h3.4v-1.6
	c0-2.5-3.4-3.2-5.4-3.2c-3.2,0-6,1.4-6,4.5c0,5,8.2,5,8.2,7.2c0,1-0.9,1.5-2.1,1.5c-1.8-0.1-3.4-1-4.6-2.3L183.7,101.7z
	 M167.3,104.1h3.8V97c0-0.7,0.1-1.4,0.3-2.1c0.5-1.9,2.2-3.2,4.2-3.2c1.9,0,2.4,1.3,2.4,3.2v7.1c0,1.5,0.6,2.1,2.1,2.1h3.7v-3.3
	h-1.2c-0.3,0-0.6-0.2-0.7-0.5c0,0,0-0.1,0-0.1v-6.1c0-4.1-2-5.9-5.4-5.9c-2.3-0.1-4.4,1.2-5.5,3.2H171c0-0.2,0.1-0.4,0.1-0.7v-0.5
	c0-1.1-0.7-1.7-2-1.7h-3.6v3.3h1.2c0.3,0,0.6,0.2,0.7,0.5c0,0,0,0.1,0,0.1L167.3,104.1z M159.8,102c0,1.5,0.6,2.1,2,2.1h3.7v-3.3
	h-1.2c-0.3,0-0.6-0.2-0.7-0.5c0,0,0-0.1,0-0.1v-9.5c0-1.4-0.6-2.1-2-2.1h-3.7v3.3h1.2c0.3,0,0.6,0.2,0.7,0.5c0,0,0,0.1,0,0.1V102z
	 M160,86h3.4v-3.5H160V86z M135.2,106.1l-1.5,2.7c1.1,1,2.5,1.6,3.9,1.6c2.6,0,4.8-1.6,5.6-4.1l5.6-14c0.1-0.4,0.5-0.6,0.9-0.6h0.5
	v-3.3h-2.6c-1-0.1-1.8,0.5-2.1,1.4l-2.6,7.8c-0.2,0.7-0.4,1.4-0.5,2.1h-0.1c-0.1-0.7-0.3-1.4-0.6-2.1l-3-7.8c-0.2-0.9-1.1-1.5-2-1.5
	h-2.6v3.3h0.5c0.4-0.1,0.7,0.2,0.8,0.6l5.2,11.7l-0.5,1.2c-0.3,1.1-1.4,2-2.6,2C136.6,107.2,135.8,106.8,135.2,106.1L135.2,106.1z
	 M122.8,96.4c0-3.4,1.9-4.9,3.9-4.9c2.3,0,3.9,1.9,3.9,4.9s-1.8,4.8-3.9,4.8C124.1,101.2,122.8,98.8,122.8,96.4L122.8,96.4z
	 M119.1,104.1h3.7v-0.8c0-0.3,0-0.7-0.1-1h0.1c1.1,1.4,2.8,2.3,4.6,2.2c4.1,0,7.1-3.2,7.1-8.1s-2.7-8.1-6.9-8.1
	c-1.8-0.1-3.5,0.7-4.6,2.1h-0.1c0,0,0.1-0.5,0.1-1.3v-4.5c0-1.4-0.6-2.1-2.1-2.1h-3.7v3.3h1.2c0.3,0,0.6,0.2,0.7,0.5
	c0,0,0,0.1,0,0.1L119.1,104.1z"/>
</svg>
