<svg id="Layer_1" data-name="Layer 1" xmlns="http://www.w3.org/2000/svg" viewBox="0 0 1700.79 765.35"><defs><style>.cls-1,.cls-2{fill:#fff;}.cls-1{fill-rule:evenodd;}</style></defs><title>StaffClass Logo</title><path class="cls-1" d="M1594,115.56a63.85,63.85,0,0,1,11.34.91V78.81a94.35,94.35,0,0,0-16.78-1.36c-29,0-86.65,9.53-86.65,85.29v7.71H1401v-6.8c0-42.64,30.84-48.08,48.08-48.08a63.88,63.88,0,0,1,11.34.91V78.81a94.37,94.37,0,0,0-16.78-1.36c-29,0-86.65,9.53-86.65,85.29v7.71h-28.58v35.39h28.58V362.34h-66.23c-6.35,0-10-3.18-10-10V254.83c0-50.81-20-89.82-94.36-89.82-22.23,0-79.39,5.44-79.39,43.09v22.68h41.28V217.63c0-15,26.76-17.69,37.65-17.69,35.84,0,50.81,14.52,50.81,54.89v2.26h-10c-38.56,0-138.36,4.54-138.36,78.49,0,45.81,38.56,69.86,78,69.86,54.89,0,73-45.36,73-45.36h.91a99.21,99.21,0,0,0-.91,13.61c0,16.33,8.16,26.31,28.58,26.31H1401V205.83h100.94V400h44V205.83h54.44V170.45h-54.44v-6.8C1545.89,121,1576.74,115.56,1594,115.56ZM1240.24,292.64c0,36.13-25.53,77.56-65,77.56-30.83,0-45.77-19.27-45.77-39,0-44.8,63.59-46.73,98.76-46.73h12Z"/><path class="cls-2" d="M720.48,365.06s30.4,40.37,91.64,40.37c48.09,0,84.38-26.31,84.38-67.14,0-76.67-125.21-67.14-125.21-110.69,0-18.14,16.79-27.22,42.64-27.22,14.06,0,34.47,5.9,34.47,19.51v11.34h39.47V209.46c0-34.93-47.63-44.46-75.3-44.46-46.73,0-85.29,20.41-85.29,64.42,0,73.95,125.21,69.41,125.21,110.69,0,20-18.6,29.49-39.92,29.49-42.19,0-69.41-34-69.41-34Z"/><path class="cls-2" d="M954.56,316.07c0,76.66,58.52,85.74,87.56,85.74a111.7,111.7,0,0,0,15.42-.91v-39a53.07,53.07,0,0,1-10.43.91c-16.79,0-48.54-5.9-48.54-51.72V205.83h54.89V170.45H998.57V107.39H955.47v63.06H924.62v35.38h29.94Z"/><path class="cls-2" d="M720.48,614.31c0,66.22,48.36,115.45,117.63,115.45,58.38,0,89.75-37.9,89.75-37.9l-18.3-30.06s-27,30.5-68.4,30.5c-41,0-77.55-28.32-77.55-78.42,0-46.61,32.24-78.85,75.37-78.85,16.12,0,41,7,41,22.66v12.2h38.34V547.22c0-37.47-52.71-48.36-79.29-48.36-71,0-118.5,50.54-118.5,115.45"/><path class="cls-2" d="M1262.88,688.37c-6.1,0-9.59-3-9.59-9.58V585.12c0-48.79-19.17-86.26-90.62-86.26-21.35,0-76.24,5.23-76.24,41.39V562h39.64V549.4c0-14.38,25.71-17,36.16-17,34.42,0,48.79,13.94,48.79,52.71v2.18h-9.58c-37,0-132.88,4.36-132.88,75.37,0,44,37,67.09,74.93,67.09,52.72,0,70.14-43.56,70.14-43.56h.87a95.7,95.7,0,0,0-.87,13.07c0,15.68,7.84,25.27,27.44,25.27h39.64V688.37Zm-51.41-62.74c0,32.67-23.09,70.14-58.81,70.14-27.88,0-41.39-17.43-41.39-35.29,0-40.52,57.51-42.26,89.31-42.26h10.89Z"/><path class="cls-2" d="M1301.21,691s29.19,38.77,88,38.77c46.18,0,81-25.27,81-64.48,0-73.63-120.24-64.48-120.24-106.3,0-17.43,16.12-26.14,40.95-26.14,13.51,0,33.11,5.66,33.11,18.73v10.89H1462V541.55c0-33.55-45.74-42.69-72.32-42.69-44.88,0-81.91,19.6-81.91,61.86,0,71,120.24,66.65,120.24,106.3,0,19.17-17.86,28.32-38.34,28.32-40.52,0-66.66-32.67-66.66-32.67Z"/><path class="cls-2" d="M1499,691s29.19,38.77,88,38.77c46.18,0,81-25.27,81-64.48,0-73.63-120.24-64.48-120.24-106.3,0-17.43,16.12-26.14,40.95-26.14,13.51,0,33.11,5.66,33.11,18.73v10.89h37.91V541.55c0-33.55-45.74-42.69-72.32-42.69-44.87,0-81.9,19.6-81.9,61.86,0,71,120.24,66.65,120.24,106.3,0,19.17-17.86,28.32-38.34,28.32-40.52,0-66.65-32.67-66.65-32.67Z"/><path class="cls-1" d="M971.85,696.65c0,19.6,8.28,27.88,27.88,27.88h41.82V688.37H1023.7c-6.1,0-9.58-3-9.58-9.58V444.84c0-19.61-8.28-27.88-27.88-27.88H971.86V602.31h0Z"/><g id="_Group_" data-name="&lt;Group&gt;"><path id="_Path_" data-name="&lt;Path&gt;" class="cls-1" d="M218.49,18H406.64a21.1,21.1,0,0,1,21,21V227.2a21.1,21.1,0,0,1-21,21H218.49a21.1,21.1,0,0,1-21-21V39a21.1,21.1,0,0,1,21-21Z"/><path id="_Path_2" data-name="&lt;Path&gt;" class="cls-1" d="M49.58,167H173.95v63a24.13,24.13,0,0,0,24,24.06H155a35.34,35.34,0,0,0-35.24,35.24V604.37A35.34,35.34,0,0,0,155,639.61H470.1a35.34,35.34,0,0,0,35.24-35.24V289.31a35.34,35.34,0,0,0-35.24-35.24H427.18a24.13,24.13,0,0,0,24-24.06V167H575.56a16.88,16.88,0,0,1,16.83,16.83v526a16.88,16.88,0,0,1-16.83,16.83h-526a16.88,16.88,0,0,1-16.83-16.83v-526A16.88,16.88,0,0,1,49.58,167Z"/><path id="_Path_3" data-name="&lt;Path&gt;" class="cls-1" d="M183.83,289.31H441.31A28.87,28.87,0,0,1,470.1,318.1V575.57a28.87,28.87,0,0,1-28.79,28.79H183.83A28.87,28.87,0,0,1,155,575.57V318.1a28.87,28.87,0,0,1,28.79-28.79Z"/></g></svg>