<svg id="Layer_1" data-name="Layer 1" xmlns="http://www.w3.org/2000/svg" viewBox="0 0 2320 820"><defs><style>.cls-1{fill:#2889ce;}.cls-1,.cls-2,.cls-3,.cls-4{fill-rule:evenodd;}.cls-3{fill:#4bb779;}.cls-4{fill:#0e100f;}</style></defs><title>staffStrength Logo</title><g id="_Group_" data-name="&lt;Group&gt;"><path id="_Path_" data-name="&lt;Path&gt;" class="cls-1" d="M228.71,17.89H416.87a21.1,21.1,0,0,1,21,21V227.08a21.1,21.1,0,0,1-21,21H228.71a21.1,21.1,0,0,1-21-21V38.93a21.1,21.1,0,0,1,21-21Z"/><path id="_Path_2" data-name="&lt;Path&gt;" class="cls-2" d="M59.8,166.9H184.17v63a24.13,24.13,0,0,0,24,24.06H165.26A35.34,35.34,0,0,0,130,289.2V604.26a35.34,35.34,0,0,0,35.24,35.24H480.32a35.34,35.34,0,0,0,35.24-35.24V289.2A35.34,35.34,0,0,0,480.32,254H437.4a24.13,24.13,0,0,0,24-24.06v-63H585.78a16.88,16.88,0,0,1,16.83,16.83v526a16.88,16.88,0,0,1-16.83,16.83H59.8A16.88,16.88,0,0,1,43,709.72v-526A16.88,16.88,0,0,1,59.8,166.9Z"/><path id="_Path_3" data-name="&lt;Path&gt;" class="cls-3" d="M194.06,289.2H451.53A28.87,28.87,0,0,1,480.32,318V575.46a28.87,28.87,0,0,1-28.79,28.79H194.06a28.87,28.87,0,0,1-28.79-28.79V318a28.87,28.87,0,0,1,28.79-28.79Z"/></g><path d="M1772.76,683.15c-37.2,0-59.68-29.43-59.68-72.35,0-42.1,20.44-68.26,56.41-68.26,31.89,0,58.45,15.53,58.45,69.49s-26.57,71.12-55.18,71.12m-100.15-71.53c0,59.68,35.15,105.87,92.38,105.87,30.25,0,49.46-11.44,61.72-31.48h.82a120.84,120.84,0,0,0-.82,13.08V713c0,41.69-29.43,57.63-65.4,57.63-31.07,0-56.41-13.9-56.41-13.9l-13.49,31.89c20.44,10.22,45.78,17.17,70.71,17.17,52.32,0,104.24-26.16,104.24-94.42V555.21c0-5.32,3.68-8.18,9-8.18h7.94v0h53.78v97.26c0,69.05,52.73,77.26,78.89,77.26a100.86,100.86,0,0,0,13.9-.82V685.61a47.88,47.88,0,0,1-9.4.82c-15.13,0-43.74-5.31-43.74-46.6v-91.5h49.46V513.11h-49.46V456.29H1937.9v56.82h-84.61c-16.35,0-22.89,8.58-22.89,20.85v6.54h-.82s-14.72-32.29-66.22-32.29C1705.73,508.2,1672.62,552.35,1672.62,611.62Z"/><path class="cls-2" d="M1060.7,719.94h39.65V635.33c0-12.67,1.23-25.34,4.91-37.2,9.4-30.66,32.7-48.64,58-48.64a58.82,58.82,0,0,1,11.85,1.22V511.47a80.06,80.06,0,0,0-10.63-.82c-31.88,0-55.59,23.71-65.4,54h-.82a119.9,119.9,0,0,0,.82-14.3V537.23c0-16.76-8.58-24.12-26.57-24.12H958.11V456.29H919.27v56.82h-27.8V545h27v99.33c0,69.08,52.73,77.26,78.89,77.26a100.86,100.86,0,0,0,13.9-.82V685.61a47.88,47.88,0,0,1-9.4.82c-15.12,0-43.74-5.31-43.74-46.6V545H1035l16.76,2c5.68.69,9,2.86,9,9Z"/><path d="M707.53,353.81s27.39,36.38,82.57,36.38c43.33,0,76-23.71,76-60.5,0-69.08-112.82-60.49-112.82-99.74,0-16.35,15.13-24.52,38.42-24.52,12.67,0,31.06,5.31,31.06,17.58v10.22h35.56V213.6c0-31.48-42.92-40.06-67.85-40.06-42.1,0-76.85,18.39-76.85,58,0,66.63,112.82,62.54,112.82,99.74,0,18-16.76,26.57-36,26.57-38,0-62.54-30.66-62.54-30.66Z"/><path d="M918.45,309.66c0,69.08,52.73,77.26,78.89,77.26a100.84,100.84,0,0,0,13.9-.82V350.95a47.87,47.87,0,0,1-9.4.82c-15.12,0-43.74-5.31-43.74-46.6V210.33h49.46V178.45H958.11V121.63H919.27v56.82h-27.8v31.88h27Z"/><path d="M707.53,688.46s27.39,36.38,82.57,36.38c43.33,0,76-23.71,76-60.5,0-69.08-112.82-60.49-112.82-99.73,0-16.35,15.12-24.52,38.42-24.52,12.67,0,31.07,5.31,31.07,17.58v10.22h35.56V548.26c0-31.47-42.92-40.06-67.85-40.06-42.1,0-76.85,18.39-76.85,58,0,66.63,112.82,62.54,112.82,99.74,0,18-16.76,26.57-36,26.57-38,0-62.54-30.66-62.54-30.66Z"/><path d="M1436.35,719.94H1476V623.06c0-10.22.82-19.62,3.68-27.8,8.18-29.84,33.52-50.69,65.4-50.69,33.11,0,38.83,22.89,38.83,51.91v97.28c0,18.4,7.77,26.16,26.16,26.16h39.24V686h-16.76c-5.72,0-9-2.86-9-9V587.5c0-52.73-22.07-79.3-71.12-79.3-45,0-69.49,29.43-77.66,47.41H1474a86.8,86.8,0,0,0,.82-11.86V536c0-15.12-8.58-22.89-26.16-22.89h-38V547h16.76c5.73,0,9,2.86,9,9Z"/><path class="cls-2" d="M2074.83,719.94h39.65V623.06c0-9.81.82-19.21,3.68-27.39,8.58-29.84,33.92-51.09,65.4-51.09,33.11,0,39.24,22.89,39.24,51.91v97.28c0,18.39,7.77,26.16,26.16,26.16h38.83V686H2271c-5.72,0-9-2.86-9-9V587.5c0-52.73-22.07-79.3-70.71-79.3-41.29,0-67.86,26.16-76.85,46.19h-.82s.82-7.36.82-17.17V456.7c0-17.58-7.77-25.34-26.16-25.34h-13.49V719.94Z"/><path class="cls-4" d="M1494.6,129a57.48,57.48,0,0,1,10.22.82V95.88a85.08,85.08,0,0,0-15.12-1.22c-26.16,0-78.07,8.58-78.07,76.85v6.95h-90.95v-6.13c0-38.43,27.79-43.33,43.33-43.33a57.53,57.53,0,0,1,10.22.82V95.88a85.16,85.16,0,0,0-15.12-1.22c-26.16,0-78.07,8.58-78.07,76.85v6.95h-25.75v31.88H1281v141h-59.68c-5.72,0-9-2.86-9-9V254.48c0-45.78-18-80.94-85-80.94-20,0-71.53,4.9-71.53,38.83v20.44H1093V221c0-13.49,24.12-15.94,33.93-15.94,32.29,0,45.78,13.09,45.78,49.47v2h-9c-34.74,0-124.67,4.09-124.67,70.72,0,41.28,34.75,62.95,70.31,62.95,49.46,0,65.81-40.87,65.81-40.87h.82a89.18,89.18,0,0,0-.82,12.26c0,14.72,7.36,23.71,25.76,23.71h119.77V210.33h90.95V385.28h39.65V210.33h49.05V178.45h-49.05v-6.13C1451.28,133.89,1479.07,129,1494.6,129ZM1173.11,292.49c0,30.66-21.66,65.81-55.18,65.81-26.16,0-38.83-16.35-38.83-33.11,0-38,54-39.65,83.79-39.65h10.22Z"/><path d="M1383.62,605.08c0-53.54-31.06-96.87-89.11-96.87-58.86,0-103.82,42.51-103.82,108.32,0,61.32,44.55,108.32,110,108.32,49.05,0,79.71-30.25,79.71-30.25l-17.17-28.2s-24.93,24.12-60.5,24.12c-36.79,0-68.67-24.94-71.12-69.08h150.83S1383.62,610.39,1383.62,605.08Zm-150.42-12.67c6.13-34.34,30.66-52.73,60.91-52.73,25.75,0,47.42,18.39,48.64,52.73Z"/></svg>