<?xml version="1.0" encoding="UTF-8"?>
<svg width="15px" height="15px" viewBox="0 0 15 15" version="1.1" xmlns="http://www.w3.org/2000/svg" xmlns:xlink="http://www.w3.org/1999/xlink">
    <!-- Generator: Sketch 51.3 (57544) - http://www.bohemiancoding.com/sketch -->
    <title>user</title>
    <desc>Created with Sketch.</desc>
    <defs></defs>
    <g id="1.-Authentication" stroke="none" stroke-width="1" fill="none" fill-rule="evenodd">
        <g id="5.-Auth---log-in" transform="translate(-40.000000, -216.000000)" fill="#66788A" fill-rule="nonzero">
            <g id="user" transform="translate(40.000000, 216.000000)">
                <path d="M9.92445031,7.79308781 C11.3860126,6.64317773 11.958191,4.69331715 11.3497501,2.93597336 C10.7413092,1.17862957 9.08596134,0 7.22626849,0 C5.36657564,0 3.71122773,1.17862957 3.10278687,2.93597336 C2.49434601,4.69331715 3.06652439,6.64317773 4.52808667,7.79308781 C2.03870258,8.79043045 0.300171675,11.0767942 0.00445030588,13.7421787 C-0.0397324741,14.1438404 0.250061397,14.5052687 0.651723033,14.5494514 C1.05338467,14.5936342 1.41481298,14.3038404 1.45899576,13.9021787 C1.78963659,10.9587179 4.27884079,8.73347221 7.24081394,8.73347221 C10.2027871,8.73347221 12.6919913,10.9587179 13.0226321,13.9021787 C13.0635886,14.2723132 13.3775181,14.5517105 13.7499049,14.5494514 L13.8299049,14.5494514 C14.2267347,14.5037918 14.5124678,14.1466254 14.4699049,13.7494514 C14.1727539,11.0762218 12.4244608,8.7852585 9.92445031,7.79308781 Z M7.22626849,7.27672417 C5.61962194,7.27672417 4.31717758,5.9742798 4.31717758,4.36763326 C4.31717758,2.76098671 5.61962194,1.45854235 7.22626849,1.45854235 C8.83291503,1.45854235 10.1353594,2.76098671 10.1353594,4.36763326 C10.1353594,5.13917214 9.82886677,5.87911079 9.2833064,6.42467117 C8.73774602,6.97023154 7.99780737,7.27672417 7.22626849,7.27672417 Z" id="Shape"></path>
            </g>
        </g>
    </g>
</svg>