<?xml version="1.0" encoding="UTF-8"?>
<svg width="13px" height="16px" viewBox="0 0 13 16" version="1.1" xmlns="http://www.w3.org/2000/svg" xmlns:xlink="http://www.w3.org/1999/xlink">
    <!-- Generator: Sketch 51.3 (57544) - http://www.bohemiancoding.com/sketch -->
    <title>lock-alt</title>
    <desc>Created with Sketch.</desc>
    <defs></defs>
    <g id="HRMS" stroke="none" stroke-width="1" fill="none" fill-rule="evenodd">
        <g id="hrms-login-1" transform="translate(-177.000000, -656.000000)" fill="#66788A" fill-rule="nonzero">
            <g id="lock-alt" transform="translate(177.000000, 656.000000)">
                <path d="M6.5,8.8 C6.05126864,8.8 5.6875,9.1581722 5.6875,9.6 L5.6875,12 C5.6875,12.4418278 6.05126864,12.8 6.5,12.8 C6.94873136,12.8 7.3125,12.4418278 7.3125,12 L7.3125,9.6 C7.3125,9.1581722 6.94873136,8.8 6.5,8.8 Z M10.5625,5.6 L10.5625,4 C10.5625,1.790861 8.7436568,8.8817842e-16 6.5,8.8817842e-16 C4.2563432,5.32907052e-16 2.4375,1.790861 2.4375,4 L2.4375,5.6 C1.09130592,5.6 1.77635684e-15,6.6745166 1.77635684e-15,8 L1.77635684e-15,13.6 C1.77635684e-15,14.9254834 1.09130592,16 2.4375,16 L10.5625,16 C11.9086941,16 13,14.9254834 13,13.6 L13,8 C13,6.6745166 11.9086941,5.6 10.5625,5.6 Z M4.0625,4 C4.0625,2.6745166 5.15380592,1.6 6.5,1.6 C7.84619408,1.6 8.9375,2.6745166 8.9375,4 L8.9375,5.6 L4.0625,5.6 L4.0625,4 Z M11.375,13.6 C11.375,14.0418278 11.0112314,14.4 10.5625,14.4 L2.4375,14.4 C1.98876864,14.4 1.625,14.0418278 1.625,13.6 L1.625,8 C1.625,7.5581722 1.98876864,7.2 2.4375,7.2 L10.5625,7.2 C11.0112314,7.2 11.375,7.5581722 11.375,8 L11.375,13.6 Z" id="Shape"></path>
            </g>
        </g>
    </g>
</svg>