<?xml version="1.0" encoding="UTF-8"?>
<svg width="54px" height="54px" viewBox="0 0 54 54" version="1.1" xmlns="http://www.w3.org/2000/svg" xmlns:xlink="http://www.w3.org/1999/xlink">
    <!-- Generator: Sketch 51.3 (57544) - http://www.bohemiancoding.com/sketch -->
    <title>Group</title>
    <desc>Created with Sketch.</desc>
    <defs></defs>
    <g id="HRMS" stroke="none" stroke-width="1" fill="none" fill-rule="evenodd">
        <g id="hrms-login-1" transform="translate(-863.000000, -172.000000)">
            <g id="Group" transform="translate(863.000000, 172.000000)">
                <path d="M0,16.9714286 L0,49.0921054 L0.016807875,49.1055691 C0.100465253,51.8221542 2.29828591,54 5.01428571,54 L10.0285714,54 L10.0285714,16.9714286 L0,16.9714286 Z" id="Shape" fill="#BACDE0" fill-rule="nonzero"></path>
                <path d="M10.4274872,0 L10.4274872,48.937265 C10.4274872,51.7335038 8.17523879,54 5.4,54 L48.9355531,54 L48.9390001,53.9967217 L48.9742364,54 C51.7443046,54 53.995021,51.7404462 54,48.9492213 L54,0 L10.4274872,0 Z" id="Shape" fill="#FFFFFF" fill-rule="nonzero"></path>
                <path d="M15.4285714,18.5142857 L15.4285714,21.930668 L49.3714286,21.930668 L49.3714286,18.5142857 L15.4285714,18.5142857 Z M15.4285714,28.7632374 L49.3714286,28.7632374 L49.3714286,25.3468551 L15.4285714,25.3468551 L15.4285714,28.7632374 Z M15.4285714,35.5958068 L49.3714286,35.5958068 L49.3714286,32.1794245 L15.4285714,32.1794245 L15.4285714,35.5958068 Z M15.4285714,42.4285714 L40.8857628,42.4285714 L40.8857628,39.0121891 L15.4285714,39.0121891 L15.4285714,42.4285714 Z" id="Shape" fill="#BACDE0" fill-rule="nonzero"></path>
                <path d="M19.2826286,14.7404571 C18.4186286,14.7404571 17.7598286,14.4488571 17.2846286,14.0816571 C17.1118286,13.9520571 16.9714286,13.7036571 16.9714286,13.4444571 C16.9714286,13.0016571 17.3170286,12.6452571 17.7598286,12.6452571 C17.9650286,12.6452571 18.0946286,12.6992571 18.2566286,12.8180571 C18.5914286,13.0664571 18.8830286,13.1960571 19.2610286,13.1960571 C19.9090286,13.1960571 20.2978286,12.8180571 20.2978286,11.9432571 L20.2978286,7.83925714 C20.2978286,7.37485714 20.6650286,7.00765714 21.1294286,7.00765714 C21.5938286,7.00765714 21.9610286,7.37485714 21.9610286,7.83925714 L21.9610286,12.0188571 C21.9610286,12.9152571 21.7018286,13.5848571 21.2482286,14.0384571 C20.7838286,14.5028571 20.1034286,14.7404571 19.2826286,14.7404571 Z M27.8686286,14.7620571 C25.5358286,14.7620571 23.8618286,13.0232571 23.8618286,10.8740571 L23.8618286,10.8524571 C23.8618286,8.70325714 25.5574286,6.94285714 27.8902286,6.94285714 C30.2230286,6.94285714 31.8970286,8.68165714 31.8970286,10.8308571 L31.8970286,10.8524571 C31.8970286,13.0016571 30.2014286,14.7620571 27.8686286,14.7620571 Z M27.8902286,13.2284571 C29.2294286,13.2284571 30.1582286,12.1700571 30.1582286,10.8740571 L30.1582286,10.8524571 C30.1582286,9.55645714 29.2078286,8.47645714 27.8686286,8.47645714 C26.5294286,8.47645714 25.6006286,9.53485714 25.6006286,10.8308571 L25.6006286,10.8524571 C25.6006286,12.1484571 26.5510286,13.2284571 27.8902286,13.2284571 Z M33.9166286,13.8008571 L33.9166286,7.90405714 C33.9166286,7.43965714 34.2838286,7.07245714 34.7482286,7.07245714 L37.4266286,7.07245714 C38.2906286,7.07245714 38.9710286,7.31005714 39.4030286,7.74205714 C39.7486286,8.08765714 39.9214286,8.50885714 39.9214286,9.02725714 L39.9214286,9.04885714 C39.9214286,9.90205714 39.4678286,10.3772571 38.9278286,10.6796571 C39.8026286,11.0144571 40.3426286,11.5220571 40.3426286,12.5372571 L40.3426286,12.5588571 C40.3426286,13.9412571 39.2194286,14.6324571 37.5130286,14.6324571 L34.7482286,14.6324571 C34.2838286,14.6324571 33.9166286,14.2652571 33.9166286,13.8008571 Z M35.5366286,10.1288571 L37.0702286,10.1288571 C37.8046286,10.1288571 38.2690286,9.89125714 38.2690286,9.32965714 L38.2690286,9.30805714 C38.2690286,8.81125714 37.8802286,8.53045714 37.1782286,8.53045714 L35.5366286,8.53045714 L35.5366286,10.1288571 Z M35.5366286,13.1744571 L37.5130286,13.1744571 C38.2474286,13.1744571 38.6902286,12.9152571 38.6902286,12.3536571 L38.6902286,12.3320571 C38.6902286,11.8244571 38.3122286,11.5112571 37.4590286,11.5112571 L35.5366286,11.5112571 L35.5366286,13.1744571 Z M44.9434285,14.7404571 C43.9498285,14.7404571 42.9454285,14.4380571 42.1030285,13.8332571 C41.9194285,13.7036571 41.7898285,13.4660571 41.7898285,13.2068571 C41.7898285,12.7748571 42.1354285,12.4400571 42.5674285,12.4400571 C42.7834285,12.4400571 42.9346285,12.5156571 43.0426285,12.5912571 C43.6150285,13.0124571 44.2414285,13.2716571 44.9758285,13.2716571 C45.6562285,13.2716571 46.0666285,13.0016571 46.0666285,12.5588571 L46.0666285,12.5372571 C46.0666285,12.1160571 45.8074285,11.9000571 44.5438285,11.5760571 C43.0210285,11.1872571 42.0382285,10.7660571 42.0382285,9.26485714 L42.0382285,9.24325714 C42.0382285,7.87165714 43.1398285,6.96445714 44.6842285,6.96445714 C45.6022285,6.96445714 46.4014285,7.20205714 47.0818285,7.63405714 C47.2654285,7.74205714 47.4490285,7.96885714 47.4490285,8.29285714 C47.4490285,8.72485714 47.1034285,9.05965714 46.6714285,9.05965714 C46.5094285,9.05965714 46.3798285,9.01645714 46.2502285,8.94085714 C45.6994285,8.61685714 45.1810285,8.43325714 44.6626285,8.43325714 C44.0254285,8.43325714 43.6906285,8.72485714 43.6906285,9.09205714 L43.6906285,9.11365714 C43.6906285,9.61045714 44.0146285,9.77245714 45.3214285,10.1072571 C46.8550285,10.5068571 47.7190285,11.0576571 47.7190285,12.3752571 L47.7190285,12.3968571 C47.7190285,13.8980571 46.5742285,14.7404571 44.9434285,14.7404571 Z" id="JOBS" fill="#486F95"></path>
            </g>
        </g>
    </g>
</svg>