<?xml version="1.0" encoding="UTF-8"?>
<svg width="38px" height="31px" viewBox="0 0 38 31" version="1.1" xmlns="http://www.w3.org/2000/svg" xmlns:xlink="http://www.w3.org/1999/xlink">
    <!-- Generator: Sketch 51.3 (57544) - http://www.bohemiancoding.com/sketch -->
    <title>briefcase</title>
    <desc>Created with Sketch.</desc>
    <defs></defs>
    <g id="HRMS" stroke="none" stroke-width="1" fill="none" fill-rule="evenodd">
        <g id="hrms-login-1-copy" transform="translate(-1095.000000, -678.000000)" fill="#A5B6C7" fill-rule="nonzero">
            <g id="briefcase" transform="translate(1095.000000, 678.000000)">
                <path d="M34.8333086,4.80006 L26.9166914,4.80006 L26.9166914,3.200015 C26.9166914,1.43519552 25.4965156,0 23.75,0 L14.25,0 C12.5035586,0 11.0833086,1.43512052 11.0833086,3.200015 L11.0833086,4.799985 L3.16669141,4.799985 C1.42017578,4.80006 0,6.23518052 0,8 L0,12.799985 C0,14.5648795 1.42017578,16 3.16669141,16 L15.8333828,16 L15.8333828,15.1999775 C15.8333828,14.7577789 16.1874805,14.399955 16.6250742,14.399955 L21.3750742,14.399955 C21.812668,14.399955 22.1667656,14.7577789 22.1667656,15.1999775 L22.1667656,16 L34.833457,16 C36.5798242,16 38,14.5648795 38,12.799985 L38,8 C38,6.23518052 36.5798242,4.80006 34.8333086,4.80006 Z M23.75,4.80006 L14.25,4.80006 L14.25,3.200015 L23.75,3.200015 L23.75,4.80006 Z" id="Shape"></path>
                <path d="M37.5607743,16.0832598 C37.2909897,15.9500746 36.968584,15.9808949 36.7304165,16.1610127 C36.1676169,16.5852541 35.5119697,16.8092742 34.8331663,16.8092742 L22.1666481,16.8092742 L22.1666481,19.1743829 C22.1666481,19.6101541 21.8125511,19.962777 21.3749583,19.962777 L16.6249675,19.962777 C16.1873746,19.962777 15.8332777,19.6101541 15.8332777,19.1743829 L15.8332777,16.8092742 L3.16668522,16.8092742 C2.48788186,16.8092742 1.83230892,16.5852541 1.26943502,16.1610127 C1.03052533,15.9793428 0.708936115,15.9485225 0.439077267,16.0832598 C0.170109043,16.2165189 0,16.4897628 0,16.7893186 L0,27.8464972 C0,29.585665 1.42017301,31 3.16668522,31 L34.8333148,31 C36.5797528,31 38,29.5857389 38,27.8464972 L38,16.7893186 C37.9999258,16.4897628 37.8298167,16.2165189 37.5607743,16.0832598 Z" id="Shape"></path>
            </g>
        </g>
    </g>
</svg>