<?xml version="1.0" encoding="UTF-8"?>
<svg width="15px" height="12px" viewBox="0 0 15 12" version="1.1" xmlns="http://www.w3.org/2000/svg" xmlns:xlink="http://www.w3.org/1999/xlink">
    <!-- Generator: Sketch 51.3 (57544) - http://www.bohemiancoding.com/sketch -->
    <title>envelope-alt</title>
    <desc>Created with Sketch.</desc>
    <defs></defs>
    <g id="HRMS" stroke="none" stroke-width="1" fill="none" fill-rule="evenodd">
        <g id="hrms-login-2" transform="translate(-176.000000, -658.000000)" fill="#66788A" fill-rule="nonzero">
            <g id="envelope-alt" transform="translate(176.000000, 658.000000)">
                <path d="M12.3857143,-2.41077e-16 L2.18571429,-2.41077e-16 C0.978577618,-8.8817842e-16 -1.205385e-16,0.978577618 -4.4408921e-16,2.18571429 L-4.4408921e-16,9.47142857 C-1.205385e-16,10.6785652 0.978577618,11.6571429 2.18571429,11.6571429 L12.3857143,11.6571429 C13.592851,11.6571429 14.5714286,10.6785652 14.5714286,9.47142857 L14.5714286,2.18571429 C14.5714286,0.978577618 13.592851,-8.8817842e-16 12.3857143,-2.41077e-16 Z M2.18571429,1.45714286 L12.3857143,1.45714286 C12.7880932,1.45714286 13.1142857,1.7833354 13.1142857,2.18571429 L7.28571429,5.74114286 L1.45714286,2.18571429 C1.45714286,1.7833354 1.7833354,1.45714286 2.18571429,1.45714286 Z M13.1142857,9.47142857 C13.1142857,9.87380746 12.7880932,10.2 12.3857143,10.2 L2.18571429,10.2 C1.7833354,10.2 1.45714286,9.87380746 1.45714286,9.47142857 L1.45714286,3.84685714 L6.90685714,7.17642857 C7.13227793,7.30657532 7.41000779,7.30657532 7.63542857,7.17642857 L13.1142857,3.84685714 L13.1142857,9.47142857 Z" id="Shape"></path>
            </g>
        </g>
    </g>
</svg>