<?xml version="1.0" encoding="UTF-8"?>
<svg width="74px" height="56px" viewBox="0 0 74 56" version="1.1" xmlns="http://www.w3.org/2000/svg" xmlns:xlink="http://www.w3.org/1999/xlink">
    <!-- Generator: Sketch 51.3 (57544) - http://www.bohemiancoding.com/sketch -->
    <title>Group 2</title>
    <desc>Created with Sketch.</desc>
    <defs></defs>
    <g id="HRMS" stroke="none" stroke-width="1" fill="none" fill-rule="evenodd">
        <g id="hrms-login-4" transform="translate(-683.000000, -349.000000)" fill-rule="nonzero">
            <g id="Group-2" transform="translate(683.000000, 349.000000)">
                <path d="M57.3645941,1.80571403 C59.8019365,-0.601904676 63.9802378,-0.601904676 66.4175802,1.80571403 L71.4663608,6.7929242 C73.9037032,9.2005429 73.9037032,13.3278893 71.4663608,15.735508 L33.1652661,53.3975434 C30.7279237,55.8051621 26.5496225,55.8051621 24.1122801,53.3975434 L19.0634994,48.4103332 C18.2120005,47.5692185 16.7457504,46.0743998 14.6647491,43.9258773 C16.8238533,41.7177565 18.2901034,40.2317138 19.0634994,39.4677495 L57.3645941,1.80571403 Z" id="Shape" fill="#3D9C6E"></path>
                <path d="M38.0399509,39.811695 C38.7487448,40.511845 40.2558692,41.9304208 42.5613242,44.0674222 C40.4631764,46.2870642 38.9560519,47.8493497 38.0399509,48.7542787 L32.9911702,53.7414889 C30.5538278,56.1491076 26.3755266,56.1491076 23.9381842,53.7414889 L1.82800679,31.7289751 C-0.609335598,29.3213564 -0.609335598,25.19401 1.82800679,22.7863913 L6.87678746,17.7991811 C9.31412985,15.3915624 13.4924311,15.3915624 15.9297735,17.7991811 L38.0399509,39.811695 Z" id="Shape" fill="#47B881"></path>
            </g>
        </g>
    </g>
</svg>