<?xml version="1.0" encoding="UTF-8"?>
<svg width="16px" height="16px" viewBox="0 0 16 16" version="1.1" xmlns="http://www.w3.org/2000/svg" xmlns:xlink="http://www.w3.org/1999/xlink">
    <!-- Generator: Sketch 51.3 (57544) - http://www.bohemiancoding.com/sketch -->
    <title>clock-three</title>
    <desc>Created with Sketch.</desc>
    <defs></defs>
    <g id="HRMS" stroke="none" stroke-width="1" fill="none" fill-rule="evenodd">
        <g id="hrms-login-1" transform="translate(-883.000000, -395.000000)" fill="#5E6573" fill-rule="nonzero">
            <g id="clock-three" transform="translate(883.000000, 395.000000)">
                <path d="M10.4,7.2 L8.8,7.2 L8.8,4 C8.8,3.5581722 8.4418278,3.2 8,3.2 C7.5581722,3.2 7.2,3.5581722 7.2,4 L7.2,8 C7.2,8.4418278 7.5581722,8.8 8,8.8 L10.4,8.8 C10.8418278,8.8 11.2,8.4418278 11.2,8 C11.2,7.5581722 10.8418278,7.2 10.4,7.2 Z M8,-8.8817842e-17 C3.581722,-6.21724894e-16 2.13162821e-15,3.581722 1.77635684e-15,8 C1.42108547e-15,12.418278 3.581722,16 8,16 C12.418278,16 16,12.418278 16,8 C16,5.87826808 15.1571453,3.84343678 13.6568542,2.34314575 C12.1565632,0.842854723 10.1217319,-2.66453526e-16 8,-8.8817842e-17 Z M8,14.4 C4.4653776,14.4 1.6,11.5346224 1.6,8 C1.6,4.4653776 4.4653776,1.6 8,1.6 C11.5346224,1.6 14.4,4.4653776 14.4,8 C14.4,9.69738553 13.7257162,11.3252506 12.5254834,12.5254834 C11.3252506,13.7257162 9.69738553,14.4 8,14.4 Z" id="Shape"></path>
            </g>
        </g>
    </g>
</svg>