<svg width="588" height="309" viewBox="0 0 588 309" fill="none" xmlns="http://www.w3.org/2000/svg">
<path d="M497.333 281.609C493.898 275.054 479.937 269.79 473.689 268.596C440.341 262.236 405.411 263.127 371.63 263.227C334.84 263.343 299.738 269.231 263.255 271.958C244.282 273.371 224.23 270.826 205.213 270.166C173.896 269.081 142.586 267.809 111.283 266.35C84.2938 265.091 56.2819 267.915 32.4751 282.794C29.7696 284.487 27.036 286.529 25.8047 289.565C18.071 308.63 114.454 306.235 127.011 306.562C190.357 308.215 253.737 309.063 317.086 307.348C364.189 306.076 413.278 306.15 459.99 299.503C470.32 298.033 484.378 297.506 493.303 291.428C498.237 288.059 498.949 284.692 497.333 281.609Z" fill="#F2F9FF"/>
<path d="M337.208 291.148C337.208 291.148 328.316 294.941 328.322 296.839C328.322 297.928 340.55 296.37 341.286 295.633C342.465 294.454 340.809 291.308 340.809 291.308L337.208 291.148Z" fill="#26387A"/>
<path d="M336.638 285.845L337.208 291.315C337.342 291.61 337.558 291.861 337.832 292.035C338.105 292.209 338.423 292.3 338.747 292.297C339.143 292.302 339.535 292.216 339.893 292.046C340.25 291.875 340.564 291.625 340.809 291.315L340.37 284.473" fill="#D27C6C"/>
<path d="M352.167 160.458C355.402 173.489 354.202 180.109 349.463 189.94C346.592 222.995 344.586 255.921 340.723 288.151L336.638 288.385C327.353 257.005 318.819 210.093 319.908 167.213" fill="#1E5083"/>
<path d="M350.152 164.935C351.248 168.029 351.716 171.311 351.527 174.588C351.369 179.534 349.365 184.011 348.058 188.707C346.322 194.962 346.188 201.191 345.714 207.602C344.971 217.634 344.215 227.665 343.446 237.695C342.199 254.054 340.942 270.412 339.673 286.767C339.637 287.253 339.599 287.739 339.56 288.224" stroke="#0061A6" stroke-width="0.5" stroke-miterlimit="10"/>
<path d="M372.665 292.42C372.665 292.42 363.773 296.213 363.779 298.111C363.779 299.2 376.007 297.641 376.743 296.905C377.922 295.726 376.266 292.58 376.266 292.58L372.665 292.42Z" fill="#1E5083"/>
<path d="M372.095 287.117L372.665 292.587C372.799 292.882 373.015 293.133 373.289 293.307C373.562 293.481 373.88 293.572 374.204 293.569C374.6 293.574 374.992 293.488 375.35 293.318C375.707 293.147 376.021 292.897 376.266 292.587L375.827 285.745" fill="#D27C6C"/>
<path d="M381.737 159.354C385.827 172.143 385.067 178.828 380.99 188.952C380.312 222.124 378.03 256.763 376.309 289.179H372.112C360.776 258.482 348.632 211.088 346.882 168.23" fill="#1E5083"/>
<path d="M379.711 164.651C379.711 164.651 384.452 175.746 376.438 191.328C375.513 206.033 375.039 289.179 375.039 289.179" stroke="#0061A6" stroke-width="0.5" stroke-miterlimit="10"/>
<path d="M367.983 168.166C368.837 169.402 370.052 170.346 371.461 170.869C372.857 171.382 374.314 171.712 375.796 171.851C377.547 172.093 379.315 172.185 381.082 172.123" stroke="#0061A6" stroke-width="0.5" stroke-miterlimit="10"/>
<path d="M368.563 170.242C370.118 171.579 371.988 172.499 373.997 172.913C375.993 173.322 378.028 173.514 380.066 173.487" stroke="#0061A6" stroke-width="0.5" stroke-miterlimit="10"/>
<path d="M333.201 97.5396C319.059 122.148 303.836 144.434 294.81 171.345L292.121 169.915C292.808 144.93 300.905 108.605 311.539 85.981" fill="#D27C6C"/>
<path d="M326.291 71.8413C322.912 72.931 319.706 74.4965 316.77 76.4905C311.975 79.8397 308.175 84.424 305.774 89.7574C303.394 95.0732 301.799 100.707 301.04 106.482C305.061 108.379 309.343 109.663 313.745 110.289C318.399 110.777 323.092 110.777 327.747 110.289" fill="#D9F0FF"/>
<path d="M315.746 86.3863C314.241 113 315.388 140.379 316.064 166.268C316.064 166.268 325.349 168.737 347.893 168.737C370.357 168.737 385.067 161.89 385.067 161.89C380.714 135.282 377.253 102.636 366.594 80.7361C366.594 80.7361 354.567 67.7617 342.701 67.23C340.242 67.2698 337.828 67.8946 335.659 69.0528C333.985 69.8312 326.291 71.7125 326.291 71.7125L315.746 86.3863Z" fill="#D9F0FF"/>
<path d="M315.618 88.7588C315.03 93.8748 315.03 109.669 315.03 109.669" stroke="#94C1F2" stroke-width="0.5" stroke-miterlimit="10"/>
<path d="M338.046 174.645C375.717 170.468 391.517 218.214 400.095 236.737C420.371 280.524 496.878 275.636 531.731 275.636C577.396 275.636 597.431 291.027 576.124 299.095" stroke="#B4E8FD" stroke-width="5" stroke-linecap="round" stroke-linejoin="round"/>
<path d="M351.028 176.802C351.028 196.181 336.361 207.875 323.825 207.875H303.264V145.727H323.825C336.361 145.727 351.028 157.423 351.028 176.802Z" fill="#FDAE2B"/>
<path d="M340.433 176.802C340.433 195.738 329.22 211.088 315.388 211.088H292.701V142.512H315.388C329.22 142.512 340.433 157.865 340.433 176.802Z" fill="#EF8417"/>
<g style="mix-blend-mode:multiply" opacity="0.5">
<path d="M345.458 158.069C340.553 164.754 335.775 171.532 331.127 178.402C331.788 178.272 332.397 177.953 332.881 177.483C332.881 177.992 332.059 178.89 332.785 179.221C333.512 179.552 334.28 178.702 335.038 178.935C335.749 178.768 336.413 177.876 336.933 177.363C336.764 177.743 336.656 178.148 336.615 178.562C341.621 176.616 346.097 171.948 349.99 168.194C349.093 164.577 347.559 161.148 345.458 158.069Z" fill="#FDAE2B"/>
</g>
<path d="M294.321 211.088C308.153 211.088 319.366 195.737 319.366 176.801C319.366 157.865 308.153 142.514 294.321 142.514C280.49 142.514 269.277 157.865 269.277 176.801C269.277 195.737 280.49 211.088 294.321 211.088Z" fill="#FFC840"/>
<path d="M296.411 188.952C296.411 191.765 294.489 194.047 292.118 194.047C289.747 194.047 287.824 191.765 287.824 188.952C287.824 186.138 289.747 183.856 292.118 183.856C294.489 183.856 296.411 186.142 296.411 188.952Z" fill="#EF8417"/>
<path d="M296.411 164.651C296.411 167.465 294.489 169.747 292.118 169.747C289.747 169.747 287.824 167.465 287.824 164.651C287.824 161.838 289.747 159.556 292.118 159.556C294.489 159.556 296.411 161.838 296.411 164.651Z" fill="#EF8417"/>
<path d="M373.447 106.029C373.447 106.029 375.037 122.224 367.796 135.692C361.603 147.208 349.301 162.115 339.362 170.328L336.974 169.747C340.433 156.472 351.348 132.902 352.031 124.066C352.714 115.229 352.547 104.986 352.71 100.065" fill="#D27C6C"/>
<path d="M342.701 67.2275C342.701 67.2275 356.03 68.1396 363.762 74.6725C374.802 84.0014 376.438 102.258 376.438 106.498C373.101 110.104 365.807 110.288 360.491 110.288C357.254 110.268 354.08 109.39 351.292 107.744L350.207 87.6049" fill="#D9F0FF"/>
<path d="M337.943 167.774C336.374 167.991 334.898 168.644 333.681 169.658C332.513 170.57 331.077 172.097 331.227 172.796C331.385 173.53 333.299 172.118 333.532 172.403C333.765 172.688 330.255 177.987 330.917 178.381C331.578 178.775 334.562 173.977 334.562 173.977C334.562 173.977 331.663 179.106 332.782 179.218C333.719 179.312 336.292 174.458 336.292 174.458C336.292 174.458 334.116 178.798 334.861 178.962C335.607 179.126 337.623 174.803 337.623 174.803C337.623 174.803 335.982 178.492 336.605 178.559C336.923 178.591 338.544 176.754 339.22 174.528C339.887 172.339 340.665 170.439 340.065 168.73" fill="#D27C6C"/>
<path d="M351.849 89.7217V108.07" stroke="#94C1F2" stroke-width="0.5" stroke-miterlimit="10"/>
<path d="M315.077 50.301C315.007 51.096 314.975 51.8948 314.981 52.6923C314.881 54.4323 315.31 56.1619 316.212 57.6531C316.907 58.6313 317.917 59.3402 319.073 59.6603C319.885 59.8817 320.947 59.7875 321.297 59.0243C321.402 58.7451 321.445 58.4467 321.424 58.1492C321.412 55.1823 320.839 52.2444 319.735 49.4907" fill="#26387A"/>
<path d="M335.189 51.9689C334.045 47.5169 330.45 41.2688 324.598 42.5217C322.767 42.8495 321.053 43.6486 319.626 44.8404C318.198 46.0322 317.106 47.5754 316.457 49.318C315.166 53.5042 317.259 58.3721 319.764 61.7836C320.653 63.1016 321.834 64.1968 323.215 64.984C326.603 66.7355 331.176 65.2994 333.476 62.3814C334.535 60.8908 335.241 59.1779 335.537 57.3734C335.834 55.5689 335.715 53.7204 335.189 51.9689Z" fill="#D27C6C"/>
<path d="M326.981 63.6242L328.889 70.6126L326.285 71.8413C327.008 72.6681 327.933 73.2935 328.969 73.6569C330.005 74.0202 331.118 74.109 332.199 73.9147C340.185 72.7623 342.696 67.2278 342.696 67.2278L338.188 66.7571L333.196 58.25" fill="#D27C6C"/>
<path d="M339.086 47.1122C338.741 45.5896 338.083 44.1557 337.152 42.9022C336.222 41.6487 335.04 40.6032 333.682 39.8325C328.955 36.9616 322.228 36.7314 318.02 40.686C315.624 42.9375 311.312 50.9205 316.464 52.5042C318.073 52.999 319.73 52.0196 321.13 51.0834L325.403 48.2265C325.884 47.8392 326.461 47.5907 327.073 47.5078C327.576 47.546 328.057 47.736 328.45 48.0525C328.844 48.369 329.132 48.7973 329.277 49.2809C329.548 50.2509 329.755 51.2376 329.898 52.2345C330.014 52.9452 330.396 53.5849 330.968 54.023C331.113 54.1228 331.277 54.1925 331.449 54.2279C331.622 54.2632 331.8 54.2635 331.973 54.2288C332.145 54.194 332.309 54.1249 332.455 54.0255C332.6 53.9261 332.725 53.7985 332.82 53.6503C332.947 53.1715 332.965 52.6702 332.872 52.1836C332.863 51.6888 333.142 51.0834 333.635 51.105C333.812 51.1234 333.979 51.1958 334.113 51.3123C335.357 52.2803 334.953 54.2214 335.366 55.7427C335.421 55.9424 335.004 59.0207 335.142 59.1771C339.114 58.2498 339.488 49.3013 339.086 47.1122Z" fill="#26387A"/>
<path d="M333.212 51.4892C333.199 51.2034 333.298 50.924 333.488 50.7103C333.678 50.4965 333.944 50.3653 334.229 50.3443C334.515 50.3353 334.799 50.3829 335.066 50.4844C335.333 50.5859 335.577 50.7394 335.785 50.9358C336.167 51.238 336.48 51.6177 336.704 52.0499C336.928 52.482 337.059 52.9568 337.086 53.443C337.067 54.2093 336.82 54.9527 336.377 55.5787C336.122 56.0349 335.718 56.39 335.233 56.5848C334.91 56.6633 334.573 56.6515 334.256 56.5507C333.94 56.45 333.658 56.2642 333.44 56.0137" fill="#D27C6C"/>
<path d="M182.663 290.954C182.663 290.954 191.241 292.384 191.478 294.268C191.613 295.348 179.455 296.635 178.63 295.999C177.31 294.981 178.929 291.174 178.929 291.174L182.663 290.954Z" fill="#26387A"/>
<path d="M181.981 285.694L182.684 291.115C182.59 291.425 182.407 291.701 182.159 291.91C181.911 292.118 181.607 292.249 181.285 292.288C180.893 292.344 180.493 292.309 180.117 292.186C179.74 292.063 179.397 291.855 179.114 291.578L178.105 284.81" fill="#D27C6C"/>
<path d="M149.916 162.131C148.39 175.47 148.3 181.881 154.261 191.022C157.087 203.93 161.424 217.142 164.703 230.357C163.291 246.138 173.185 271.275 178.507 289.228L182.354 288.57C187.526 256.261 189.436 206.706 184.795 163.329" fill="#1E5083"/>
<path d="M152.421 180.205C152.421 180.205 167.176 227.057 167.176 229.601C167.176 232.145 167.579 240.89 168.233 246.561C169.431 256.949 178.844 287.569 178.844 287.569" stroke="#0061A6" stroke-width="0.5" stroke-miterlimit="10"/>
<path d="M178.386 289.949L177.791 287.607L182.752 287.423L182.818 289.585L178.386 289.949Z" fill="#0061A6"/>
<path d="M115.957 291.22C115.957 291.22 122.668 296.069 122.072 297.776C121.731 298.754 110.815 294.709 110.38 293.817C109.684 292.391 112.677 289.827 112.677 289.827L115.957 291.22Z" fill="#26387A"/>
<path d="M117.6 286.445L115.906 291.367C115.694 291.592 115.421 291.75 115.121 291.823C114.821 291.895 114.506 291.878 114.215 291.774C113.857 291.656 113.53 291.457 113.261 291.192C112.992 290.927 112.788 290.604 112.663 290.248L114.665 284.047" fill="#D27C6C"/>
<path d="M121.088 159.353C116.998 172.143 117.758 178.827 121.836 188.951C122.082 201.067 122.205 213.328 122.344 225.585C113.713 247.192 112.345 266.581 113.44 287.157L117.604 288.7C117.604 288.7 142.391 245.497 146.95 228.418C152.11 208.736 155.128 188.554 155.951 168.224" fill="#1E5083"/>
<path d="M122.11 162.131C122.11 162.131 117.6 175.329 123.51 188.049C123.51 191.599 125.545 221.121 124.738 225.68C124.357 227.868 120.3 238.302 117.595 248.46C114.601 259.696 113.968 286.193 113.968 286.193" stroke="#0061A6" stroke-width="0.5" stroke-miterlimit="10"/>
<path d="M112.663 287.158L113.322 284.378L118.651 286.856L117.6 289.237L112.663 287.158Z" fill="#0061A6"/>
<path d="M190.418 60.5748L187.079 57.7242V51.8183C187.079 50.9025 185.836 45.4049 184.717 45.4049C183.598 45.4049 183.342 44.0298 182.782 44.5895C182.223 45.1492 183.24 51.3604 182.782 51.8183C182.324 52.2762 181.73 48.8685 181.307 49.2921C180.883 49.7157 180.848 52.2177 180.848 53.4897C181.037 55.2102 181.747 56.8318 182.883 58.1376C183.9 59.1552 188.382 63.9977 188.382 63.9977L190.418 60.5748Z" fill="#E68876"/>
<path d="M188.747 58.687L185.948 61.867C185.948 61.867 196.975 76.4632 200.469 81.3502C196.819 79.8258 193.333 77.9344 190.066 75.7051C184.879 72.3038 179.677 70.5001 176.08 70.5001C168.442 70.5001 172.44 95.6781 181.295 99.363C198.105 101.891 216.946 100.292 219.831 94.3832C224.118 85.6204 199.485 64.9923 188.747 58.687Z" fill="#D8F1D9"/>
<path d="M200.476 81.3442C200.476 81.3442 202.578 87.217 206.317 89.1339" stroke="#9DDCA0" stroke-width="0.5" stroke-miterlimit="10"/>
<path d="M137.491 77.1578C117.454 99.662 117.758 138.355 117.758 164.655C117.758 164.655 132.468 174.697 154.932 174.697C177.481 174.697 186.761 169.16 186.761 169.16C187.437 142.514 182.684 131.022 187.079 86.9458C187.079 86.9458 179.909 70.4938 176.086 70.4938C172.264 70.4938 157.312 69.0195 157.312 69.0195L137.491 77.1578Z" fill="#D8F1D9"/>
<path d="M185.971 99.9483C185.971 99.9483 186.427 92.2502 188.295 90.3804" stroke="#9DDCA0" stroke-width="0.5" stroke-miterlimit="10"/>
<path d="M163.936 52.1466C164.682 47.6056 167.916 41.1197 173.858 41.8536C177.589 42.3141 180.472 44.8899 182.565 47.9071C184.356 50.4943 183.679 52.9696 181.131 59.5204C180.11 61.2746 178.782 62.8302 177.208 64.1123C173.988 66.1564 169.305 65.1299 166.758 62.4244C165.542 61.0353 164.657 59.3891 164.168 57.6091C163.68 55.8291 163.6 53.9616 163.936 52.1466V52.1466Z" fill="#D27C6C"/>
<path d="M164.73 51.5932C165.585 51.466 164.736 50.9088 165.112 51.6873C165.353 52.1847 165.425 52.3297 165.909 52.4912C166.394 52.6528 166.394 53.0852 166.791 53.3816C167.409 53.8421 167.935 53.2163 168.19 52.6858C168.605 51.6612 168.728 50.5414 168.545 49.4511C168.456 48.6142 168.176 47.2887 168.996 46.7087C169.667 46.233 171.149 46.9224 171.839 47.1221C172.905 47.4312 173.96 47.7759 175.019 48.099C177.561 49.0304 180.274 49.4056 182.973 49.1993C184.182 49.0877 185.347 48.6925 186.373 48.0458C187.4 47.399 188.26 46.5191 188.883 45.4774C190.234 42.8634 187.533 39.4481 184.781 39.4443C184.065 39.5183 183.358 39.6645 182.672 39.8806C182.413 39.9491 182.142 39.9531 181.882 39.892C181.281 39.7152 181.017 39.0411 180.678 38.5145C180.18 37.7949 179.485 37.2349 178.676 36.9019C177.867 36.569 176.978 36.4774 176.118 36.6383C174.167 37.0607 172.253 37.6396 170.394 38.3695C169.419 38.5095 168.429 38.5258 167.45 38.4178C166.902 38.4481 166.373 38.6217 165.914 38.9214C165.455 39.221 165.083 39.636 164.836 40.1248C164.004 39.2535 162.148 41.3879 161.686 41.9501C159.651 44.4216 159.015 47.982 158.958 51.1085C158.909 53.8408 159.365 57.8145 162.36 58.9148C163.632 59.3791 164.425 59.6272 164.478 58.4658C164.016 56.9741 163.747 55.4291 163.678 53.8688C163.571 53.3744 163.62 52.8588 163.82 52.3939C164.019 51.929 164.359 51.5379 164.791 51.2752" fill="#26387A"/>
<path d="M174.484 62.9926L173.831 69.8614L176.086 70.4974C175.617 71.49 174.898 72.3439 173.999 72.9757C173.101 73.6075 172.055 73.9956 170.962 74.1023C162.963 75.1682 157.312 69.0232 157.312 69.0232L159.983 68.5068L164.024 55.7651" fill="#D27C6C"/>
<path d="M166.066 51.5449C166.053 51.2597 165.93 50.9905 165.723 50.7944C165.515 50.5983 165.239 50.4906 164.954 50.4942C164.669 50.5106 164.389 50.5832 164.132 50.7078C163.875 50.8325 163.645 51.0067 163.455 51.2205C161.219 53.4478 164.03 58.8755 166.237 56.072" fill="#D27C6C"/>
<path d="M181.143 59.4009C180.784 60.2417 179.362 60.5775 178.588 60.6627C174.826 61.0787 171.704 58.6466 168.102 58.2014C167.773 58.0568 167.409 58.008 167.053 58.0606C166.697 58.1132 166.363 58.265 166.089 58.4986C165.815 58.7323 165.613 59.0383 165.505 59.3817C165.397 59.7251 165.388 60.0919 165.479 60.4401C165.449 61.2815 165.464 62.124 165.524 62.9638C165.558 63.6939 165.756 64.407 166.104 65.0499C167.729 67.758 173.157 68.2146 175.908 68.0467C177.023 68.0443 178.114 67.7177 179.046 67.1067C180.285 66.1731 180.554 64.5398 181.017 63.1037C181.35 61.8967 181.394 60.6278 181.143 59.4009V59.4009Z" fill="#26387A"/>
<path d="M178.473 62.3571C178.356 62.2711 178.218 62.2207 178.073 62.2121C176.697 62.1136 175.327 61.9373 173.971 61.6842C173.738 61.6528 173.502 61.6644 173.273 61.7185C173.04 61.816 172.838 61.9733 172.686 62.1743C172.533 62.3754 172.437 62.6131 172.407 62.8633C172.36 63.0874 172.394 63.3208 172.503 63.5219C172.612 63.723 172.79 63.8787 173.003 63.9611C173.83 64.3404 174.728 64.5365 175.637 64.536C176.486 64.6741 177.357 64.5184 178.105 64.0947C178.478 63.7881 179.025 62.7578 178.473 62.3571Z" fill="#D27C6C"/>
<path d="M161.928 161.685C118.154 159.395 92.6699 181.986 74.5707 223.134C51.0819 276.532 18.2516 280.797 3.46587 280.501" stroke="#B4E8FD" stroke-width="5" stroke-linecap="round" stroke-linejoin="round"/>
<path d="M145.134 165.249C146.744 184.56 162.332 194.996 174.825 193.954L195.315 192.244L190.148 130.312L169.659 132.02C157.167 133.063 143.517 145.936 145.134 165.249Z" fill="#FDAE2B"/>
<path d="M155.692 164.368C157.266 183.239 169.716 197.604 183.5 196.454L206.108 194.569L200.408 126.23L177.8 128.116C164.015 129.268 154.118 145.497 155.692 164.368Z" fill="#EF8417"/>
<path d="M204.494 194.703C218.278 193.554 228.176 177.324 226.602 158.453C225.028 139.583 212.578 125.217 198.794 126.367C185.01 127.517 175.112 143.746 176.686 162.617C178.26 181.487 190.71 195.853 204.494 194.703Z" fill="#FFC840"/>
<path d="M200.567 172.817C200.801 175.616 202.907 177.735 205.274 177.538C207.641 177.341 209.363 174.907 209.129 172.104C208.895 169.3 206.79 167.185 204.423 167.384C202.056 167.582 200.335 170.013 200.567 172.817Z" fill="#FDAE2B"/>
<path d="M198.547 148.601C198.781 151.399 200.887 153.519 203.254 153.321C205.621 153.124 207.343 150.691 207.109 147.887C206.875 145.084 204.77 142.97 202.403 143.167C200.036 143.364 198.315 145.796 198.547 148.601Z" fill="#FDAE2B"/>
<path d="M203.536 151.775L235.493 149.103C236.433 149.02 237.302 148.566 237.908 147.842C238.514 147.118 238.808 146.183 238.725 145.243V145.243C238.65 144.302 238.206 143.429 237.488 142.816C236.771 142.203 235.84 141.9 234.899 141.973L202.941 144.644C200.503 144.849 200.963 151.99 203.536 151.775Z" fill="#E2E8ED"/>
<path d="M205.556 175.991L237.513 173.32C238.453 173.236 239.322 172.782 239.928 172.059C240.534 171.335 240.828 170.4 240.745 169.459C240.67 168.518 240.226 167.646 239.508 167.032C238.791 166.419 237.86 166.116 236.919 166.189L204.961 168.86C202.516 169.065 202.983 176.206 205.556 175.991Z" fill="#E2E8ED"/>
<path d="M126.818 106.029C126.818 106.029 125.228 122.224 132.47 135.692C138.662 147.208 150.964 162.115 160.904 170.328L163.291 169.747C159.833 156.472 148.918 132.902 148.233 124.066C147.549 115.229 147.725 104.986 147.554 100.065" fill="#D27C6C"/>
<path d="M157.312 69.0195C157.312 69.0195 143.266 69.8298 135.189 75.9316C121.225 86.4815 123.965 114.81 128.03 128.662C132.096 142.514 151.658 163.296 157.969 167.774C159.005 167.774 162.046 167.519 161.937 165.134C158.444 154.335 148.484 125.928 148.484 125.928L150.057 87.6047" fill="#D8F1D9"/>
<path d="M162.322 167.774C163.891 167.992 165.368 168.644 166.585 169.658C167.752 170.57 169.188 172.097 169.038 172.796C168.879 173.53 166.966 172.118 166.733 172.403C166.501 172.688 170.009 177.987 169.349 178.381C168.689 178.775 165.703 173.977 165.703 173.977C165.703 173.977 168.602 179.106 167.484 179.218C166.545 179.312 163.973 174.458 163.973 174.458C163.973 174.458 166.148 178.798 165.404 178.962C164.66 179.127 162.641 174.803 162.641 174.803C162.641 174.803 164.284 178.492 163.653 178.559C163.336 178.591 161.715 176.754 161.037 174.528C160.371 172.339 159.592 170.439 160.194 168.73" fill="#D27C6C"/>
<path d="M152.421 137.214C150.182 130.769 148.478 125.928 148.478 125.928L151.429 93.7627" stroke="#9DDCA0" stroke-width="0.5" stroke-miterlimit="10"/>
<path d="M124.818 101.575C124.738 110.299 125.789 121.044 128.025 128.669C129.982 135.337 135.53 143.61 141.459 150.897" stroke="#9DDCA0" stroke-width="0.5" stroke-miterlimit="10"/>
<path d="M134.055 53.0344L121.024 42.5328C121.024 42.5328 126.883 20.8923 119.126 13.3341C114.868 9.42328 109.854 6.42516 104.394 4.52417C92.4041 -0.0257787 78.0814 -1.05864 67.3953 6.03276C59.5089 11.2632 54.7211 20.2283 52.5752 29.4376C50.6876 37.5504 50.8453 46.7698 55.9168 53.3766C58.2855 56.2909 61.2577 58.6573 64.6287 60.3128C74.9319 65.715 102.209 67.754 114.041 59.8257C117.318 57.6302 117.03 54.6613 118.403 50.0236L134.055 53.0344Z" fill="#F2F9FF"/>
<path d="M74.3993 32.6549C74.3993 33.8317 74.1913 34.8634 73.7754 35.7501C73.3594 36.6367 72.7628 37.3209 71.9856 37.8026C71.2139 38.2842 70.3272 38.525 69.3256 38.525C68.3349 38.525 67.451 38.287 66.6737 37.8108C65.8965 37.3346 65.2945 36.6559 64.8676 35.7747C64.4406 34.888 64.2244 33.87 64.219 32.7206V32.1295C64.219 30.9527 64.4297 29.9183 64.8511 29.0261C65.2781 28.1285 65.8774 27.4416 66.6491 26.9654C67.4263 26.4838 68.313 26.2429 69.3091 26.2429C70.3053 26.2429 71.1892 26.4838 71.961 26.9654C72.7382 27.4416 73.3375 28.1285 73.7589 29.0261C74.1859 29.9183 74.3993 30.95 74.3993 32.1213V32.6549ZM71.9035 32.1131C71.9035 30.8597 71.6791 29.9073 71.2303 29.256C70.7815 28.6047 70.1411 28.279 69.3091 28.279C68.4827 28.279 67.845 28.6019 67.3962 29.2478C66.9474 29.8882 66.7203 30.8296 66.7148 32.072V32.6549C66.7148 33.8755 66.9392 34.8223 67.388 35.4956C67.8368 36.1688 68.4827 36.5054 69.3256 36.5054C70.152 36.5054 70.7869 36.1825 71.2303 35.5366C71.6736 34.8853 71.898 33.9384 71.9035 32.696V32.1131ZM75.6637 33.8372C75.6637 32.9559 75.8333 32.1705 76.1727 31.4809C76.512 30.7913 76.9991 30.2576 77.634 29.88C78.2744 29.5023 79.0161 29.3135 79.8589 29.3135C81.0576 29.3135 82.0346 29.6802 82.7899 30.4136C83.5507 31.147 83.9749 32.1432 84.0624 33.402L84.0789 34.0096C84.0789 35.3724 83.6985 36.4671 82.9377 37.2935C82.1769 38.1145 81.1561 38.525 79.8754 38.525C78.5946 38.525 77.5711 38.1145 76.8048 37.2935C76.044 36.4725 75.6637 35.356 75.6637 33.9439V33.8372ZM78.0363 34.0096C78.0363 34.8525 78.1951 35.4983 78.5125 35.9471C78.83 36.3904 79.2842 36.6121 79.8754 36.6121C80.4501 36.6121 80.8989 36.3932 81.2218 35.9553C81.5447 35.512 81.7062 34.8059 81.7062 33.8372C81.7062 33.0107 81.5447 32.3703 81.2218 31.916C80.8989 31.4617 80.4446 31.2346 79.8589 31.2346C79.2788 31.2346 78.83 31.4617 78.5125 31.916C78.1951 32.3648 78.0363 33.0627 78.0363 34.0096ZM93.5367 34.0014C93.5367 35.3697 93.2248 36.4671 92.6008 37.2935C91.9823 38.1145 91.1449 38.525 90.0886 38.525C89.1909 38.525 88.4657 38.2131 87.9129 37.5891V41.7762H85.5402V29.4777H87.7405L87.8226 30.3479C88.3973 29.6583 89.1471 29.3135 90.0721 29.3135C91.1668 29.3135 92.0179 29.7185 92.6254 30.5285C93.233 31.3386 93.5367 32.4551 93.5367 33.8782V34.0014ZM91.1641 33.8289C91.1641 33.0025 91.0163 32.3648 90.7207 31.916C90.4306 31.4672 90.0065 31.2428 89.4482 31.2428C88.7038 31.2428 88.1921 31.5274 87.9129 32.0966V35.7337C88.203 36.3193 88.7202 36.6121 89.4646 36.6121C90.5976 36.6121 91.1641 35.6844 91.1641 33.8289ZM99.8256 35.9061C99.8256 35.616 99.6805 35.3888 99.3904 35.2246C99.1058 35.055 98.6461 34.9044 98.0112 34.7731C95.8985 34.3297 94.8421 33.4321 94.8421 32.0802C94.8421 31.2921 95.1678 30.6353 95.8191 30.1098C96.4759 29.5789 97.3325 29.3135 98.3888 29.3135C99.5163 29.3135 100.417 29.5789 101.09 30.1098C101.769 30.6407 102.108 31.3304 102.108 32.1787H99.7353C99.7353 31.8394 99.6258 31.5603 99.4069 31.3413C99.1879 31.1169 98.8458 31.0047 98.3806 31.0047C97.9811 31.0047 97.6718 31.095 97.4529 31.2756C97.234 31.4563 97.1245 31.6861 97.1245 31.9653C97.1245 32.228 97.2476 32.4415 97.4939 32.6057C97.7457 32.7644 98.1672 32.904 98.7583 33.0244C99.3494 33.1393 99.8475 33.2707 100.252 33.4184C101.506 33.8782 102.133 34.6746 102.133 35.8075C102.133 36.6176 101.785 37.2744 101.09 37.7779C100.395 38.276 99.4972 38.525 98.397 38.525C97.6527 38.525 96.9904 38.3937 96.4102 38.131C95.8355 37.8628 95.384 37.4988 95.0556 37.039C94.7272 36.5738 94.563 36.073 94.563 35.5366H96.8125C96.8344 35.9581 96.9904 36.281 97.2805 36.5054C97.5706 36.7298 97.9592 36.842 98.4463 36.842C98.9006 36.842 99.2427 36.7572 99.4725 36.5875C99.7079 36.4123 99.8256 36.1852 99.8256 35.9061ZM106.082 34.691H104.111L103.832 26.4071H106.361L106.082 34.691ZM105.096 35.9882C105.496 35.9882 105.816 36.1058 106.057 36.3412C106.303 36.5765 106.426 36.8776 106.426 37.2443C106.426 37.6055 106.303 37.9038 106.057 38.1392C105.816 38.3745 105.496 38.4922 105.096 38.4922C104.702 38.4922 104.382 38.3745 104.136 38.1392C103.895 37.9038 103.775 37.6055 103.775 37.2443C103.775 36.883 103.895 36.5848 104.136 36.3494C104.382 36.1086 104.702 35.9882 105.096 35.9882Z" fill="#6394C7"/>
</svg>
