<svg width="458" height="281" viewBox="0 0 458 281" fill="none" xmlns="http://www.w3.org/2000/svg">
<path d="M386.998 279.828C386.998 279.828 459.516 247.578 457.834 182.511C456.153 117.445 387.421 87.1872 340.761 127.359C294.101 167.531 263.911 133.844 239.733 99.8963C215.555 65.9484 161.635 23.1059 90.8846 42.9026C16.7699 63.6415 -6.03666 138.698 1.30491 188.785C6.57752 224.762 25.8637 255.264 52.1426 278.701C52.9979 279.463 53.8734 280.216 54.7688 280.96L386.998 279.828Z" fill="#F2F9FF"/>
<path d="M250.446 258.333H189.828V273.165H250.446V258.333Z" fill="#1E5083"/>
<path d="M261.892 280.903H178.383C177.356 280.903 176.371 280.496 175.645 279.77C174.918 279.045 174.509 278.061 174.507 277.034V277.034C174.507 276.006 174.915 275.02 175.642 274.293C176.369 273.567 177.355 273.158 178.383 273.158H261.895C262.923 273.158 263.909 273.567 264.636 274.293C265.362 275.02 265.771 276.006 265.771 277.034C265.769 278.061 265.359 279.046 264.632 279.771C263.905 280.497 262.919 280.904 261.892 280.903V280.903Z" fill="#133252"/>
<path d="M356.521 87.6403C356.521 85.3209 355.6 83.0964 353.96 81.4562C352.32 79.816 350.096 78.8944 347.776 78.894H92.4991C90.1794 78.894 87.9548 79.8155 86.3146 81.4558C84.6743 83.096 83.7528 85.3207 83.7528 87.6403V235.399H356.521V87.6403Z" fill="#133252"/>
<path d="M344.817 91.4038H95.4568V223.984H344.817V91.4038Z" fill="#EAEDFB"/>
<path d="M92.4979 259.851H347.775C350.095 259.85 352.319 258.929 353.959 257.289C355.599 255.648 356.52 253.424 356.52 251.105V235.399H83.757V251.105C83.757 253.423 84.6777 255.647 86.3168 257.287C87.9559 258.927 90.1792 259.849 92.4979 259.851Z" fill="white"/>
<path d="M225.321 247.624C225.321 248.65 225.017 249.652 224.447 250.505C223.877 251.357 223.068 252.022 222.12 252.414C221.173 252.807 220.131 252.909 219.125 252.709C218.119 252.509 217.196 252.015 216.47 251.29C215.745 250.565 215.252 249.641 215.052 248.636C214.852 247.63 214.954 246.588 215.347 245.64C215.739 244.693 216.404 243.883 217.256 243.314C218.109 242.744 219.111 242.44 220.136 242.44C220.817 242.44 221.491 242.574 222.12 242.835C222.749 243.095 223.321 243.477 223.802 243.958C224.284 244.44 224.666 245.011 224.926 245.64C225.187 246.269 225.321 246.944 225.321 247.624Z" fill="#133252"/>
<g opacity="0.57">
<path opacity="0.57" d="M164.703 91.4038L107.774 224.001H127.921L185.474 91.4038H164.703Z" fill="white"/>
<path opacity="0.57" d="M309.937 91.4033L253.009 224.001H273.155L330.708 91.4033H309.937Z" fill="white"/>
<path opacity="0.57" d="M211.163 91.4033L154.235 224.001H213.864L271.416 91.4033H211.163Z" fill="white"/>
</g>
<path d="M219.047 119.083H113.217V194.046H219.047V119.083Z" fill="white"/>
<path d="M219.047 119.083H113.217V194.046H219.047V119.083Z" stroke="#A2C9F8" stroke-width="3.014" stroke-linecap="round" stroke-linejoin="round"/>
<path d="M231.179 124.737H327.908" stroke="white" stroke-width="2.805" stroke-miterlimit="10"/>
<path d="M231.179 147.356H290.655" stroke="white" stroke-width="2.805" stroke-miterlimit="10"/>
<path d="M231.179 135.929H248.236" stroke="white" stroke-width="2.805" stroke-miterlimit="10"/>
<path d="M231.179 162.058H327.908" stroke="white" stroke-width="2.805" stroke-miterlimit="10"/>
<path d="M231.179 184.677H327.908" stroke="white" stroke-width="2.805" stroke-miterlimit="10"/>
<path d="M231.179 173.25H288.249" stroke="white" stroke-width="2.805" stroke-miterlimit="10"/>
<path d="M186.909 160.273C189.201 147.639 180.817 135.54 168.183 133.248C155.549 130.956 143.449 139.341 141.158 151.974C138.866 164.608 147.25 176.708 159.884 178.999C172.518 181.291 184.617 172.907 186.909 160.273Z" fill="#E69E9E"/>
<path d="M152.249 156.124H175.09" stroke="white" stroke-width="4.208" stroke-linecap="round" stroke-linejoin="round"/>
<path d="M372.824 200.782L377.848 274.679L385.779 274.66L387.426 200.75L372.824 200.782Z" fill="#1B1754"/>
<path d="M371.266 280.734H385.737V274.024H377.976C376.196 274.025 374.49 274.732 373.232 275.99C371.973 277.248 371.266 278.954 371.266 280.734V280.734Z" fill="#243051"/>
<path d="M388.392 280.733H403.482L402.864 274.024H395.102C393.322 274.024 391.616 274.731 390.358 275.989C389.1 277.248 388.393 278.954 388.392 280.733V280.733Z" fill="#243051"/>
<path d="M397.808 200.828L402.864 274.024L395.101 274.267L382.136 200.828H397.808Z" fill="#2A2B7B"/>
<path d="M384.265 162.776L404.865 181.166C405.692 181.905 406.756 182.324 407.864 182.348C408.972 182.373 410.053 182.001 410.912 181.3V181.3C411.392 180.908 411.789 180.424 412.079 179.876C412.37 179.329 412.548 178.729 412.604 178.112C412.659 177.494 412.591 176.872 412.403 176.281C412.215 175.691 411.911 175.144 411.509 174.672C411.509 174.672 401.559 161.323 395.984 156.888L384.265 162.776Z" fill="#FF7373"/>
<path d="M416.062 207.537C416.062 208.515 415.772 209.472 415.229 210.285C414.686 211.098 413.913 211.732 413.01 212.106C412.106 212.48 411.112 212.578 410.153 212.388C409.193 212.197 408.312 211.726 407.62 211.034C406.929 210.343 406.458 209.461 406.267 208.502C406.076 207.543 406.174 206.549 406.549 205.645C406.923 204.741 407.557 203.969 408.37 203.426C409.183 202.882 410.139 202.592 411.117 202.592C412.429 202.592 413.687 203.113 414.614 204.041C415.541 204.968 416.062 206.226 416.062 207.537V207.537Z" fill="#F89A6E"/>
<path d="M404.74 179.091L407.455 203.707H414.518L412.914 178.289C412.873 177.721 412.715 177.169 412.45 176.665C412.185 176.162 411.818 175.72 411.373 175.366C410.927 175.012 410.413 174.755 409.863 174.61C409.313 174.465 408.739 174.436 408.177 174.525C407.123 174.69 406.175 175.259 405.534 176.112C404.892 176.964 404.607 178.032 404.74 179.091V179.091Z" fill="#FF7373"/>
<path d="M382.147 153.432C382.147 153.432 372.044 153.75 371.504 163.857C370.961 174.024 372.684 200.826 372.684 200.826H397.811L398.447 167.999C400.016 159.226 395.571 153.649 386.561 153.311C385.089 153.261 383.614 153.301 382.147 153.432V153.432Z" fill="#FF7373"/>
<path d="M398.303 175.307L393.978 171.446L398.148 183.31L398.303 175.307Z" fill="#D76464"/>
<path d="M347.937 144.729C347.937 145.707 347.647 146.663 347.104 147.476C346.56 148.289 345.788 148.923 344.884 149.298C343.981 149.672 342.986 149.77 342.027 149.579C341.068 149.388 340.187 148.917 339.495 148.226C338.803 147.534 338.332 146.653 338.142 145.694C337.951 144.734 338.049 143.74 338.423 142.836C338.797 141.933 339.431 141.16 340.244 140.617C341.058 140.074 342.014 139.784 342.992 139.784C344.303 139.784 345.561 140.305 346.489 141.232C347.416 142.159 347.937 143.417 347.937 144.729V144.729Z" fill="#F89A6E"/>
<path d="M358.592 171.606L347.937 147.407L341.143 149.552L350.75 174.044C350.905 174.592 351.171 175.101 351.533 175.54C351.895 175.979 352.344 176.338 352.851 176.595C353.359 176.851 353.915 176.999 354.483 177.03C355.051 177.061 355.619 176.973 356.151 176.772C357.149 176.396 357.961 175.647 358.417 174.683C358.872 173.719 358.935 172.616 358.592 171.606Z" fill="#FF7373"/>
<path d="M378.223 154.317C369.353 158.16 360.878 162.856 352.917 168.338C351.946 168.872 351.197 169.735 350.805 170.771C350.413 171.808 350.404 172.95 350.779 173.993V173.993C350.988 174.577 351.312 175.112 351.731 175.569C352.15 176.026 352.656 176.394 353.22 176.652C353.783 176.911 354.393 177.054 355.012 177.074C355.632 177.094 356.249 176.99 356.828 176.768L377.131 166.89L378.223 154.317Z" fill="#FF7373"/>
<path d="M371.398 169.677L371.504 163.859L366.902 171.865L371.398 169.677Z" fill="#D76464"/>
<path d="M379.223 147.691L379.542 154.481C379.575 155.204 379.817 155.903 380.237 156.492C380.657 157.082 381.239 157.538 381.912 157.806V157.806C382.51 158.044 383.159 158.124 383.797 158.039C384.435 157.954 385.041 157.707 385.556 157.322C386.072 156.936 386.48 156.425 386.741 155.837C387.002 155.248 387.109 154.603 387.049 153.962L386.639 147.214L379.223 147.691Z" fill="#F89A6E"/>
<path d="M379.45 152.541C379.45 152.541 385.741 153.403 386.639 147.214C387.537 141.024 380.652 143.584 380.652 143.584L379.268 148.669L379.45 152.541Z" fill="#E88057"/>
<path d="M374.799 131.623C373.31 133.228 372.33 135.238 371.984 137.399C371.637 139.56 371.94 141.776 372.852 143.765C373.765 145.755 375.247 147.429 377.112 148.576C378.976 149.723 381.138 150.291 383.326 150.209C385.513 150.127 387.627 149.398 389.4 148.115C391.173 146.831 392.526 145.051 393.287 142.998C394.048 140.946 394.183 138.714 393.676 136.585C393.168 134.456 392.041 132.525 390.436 131.036C388.284 129.041 385.428 127.982 382.496 128.092C379.563 128.202 376.795 129.472 374.799 131.623V131.623Z" fill="#F89A6E"/>
<path d="M386.152 142.48C386.152 142.48 381.784 150.389 387.928 152.565C394.073 154.741 395.838 137.639 395.838 137.639L389.19 124.606L372.978 123.482L372.073 129.096C372.073 129.096 373.621 134.562 387.216 139.705L386.152 142.48Z" fill="#243051"/>
<path d="M382.84 136.262L384.758 142.711L389.645 139.857L382.84 136.262Z" fill="#243051"/>
<path d="M385.078 140.273C384.68 140.702 384.418 141.24 384.326 141.818C384.234 142.395 384.314 142.988 384.559 143.519C384.803 144.051 385.199 144.499 385.697 144.805C386.196 145.112 386.774 145.264 387.358 145.242C387.943 145.22 388.508 145.026 388.982 144.683C389.457 144.34 389.818 143.864 390.022 143.315C390.226 142.767 390.262 142.17 390.127 141.601C389.991 141.031 389.69 140.515 389.261 140.117C388.977 139.852 388.642 139.647 388.278 139.511C387.913 139.376 387.526 139.314 387.137 139.328C386.749 139.343 386.367 139.434 386.014 139.596C385.66 139.758 385.342 139.988 385.078 140.273V140.273Z" fill="#F89A6E"/>
<path d="M371.596 135.586C371.596 135.586 371.053 127.67 377.713 123.545C379.022 122.732 380.483 122.193 382.007 121.962C383.531 121.731 385.086 121.812 386.577 122.201C388.069 122.59 389.465 123.279 390.682 124.224C391.899 125.17 392.911 126.354 393.656 127.703C395.082 130.376 395.892 133.002 394.947 138.183L371.596 135.586Z" fill="#FDD63B"/>
<path d="M394.618 139.328C394.575 139.328 394.532 139.328 394.484 139.328L367.922 136.474C367.622 136.436 367.348 136.281 367.161 136.043C366.974 135.805 366.888 135.503 366.922 135.202C366.956 134.901 367.107 134.626 367.342 134.436C367.578 134.245 367.879 134.155 368.18 134.185L394.741 137.038C395.032 137.073 395.3 137.217 395.488 137.443C395.677 137.668 395.772 137.956 395.755 138.249C395.738 138.542 395.61 138.818 395.396 139.02C395.183 139.221 394.901 139.334 394.607 139.334L394.618 139.328Z" fill="#F2A62F"/>
<path d="M99.6615 26.7125L104.429 31.5575C104.936 32.0741 105.582 32.4335 106.289 32.5923C106.996 32.7511 107.733 32.7027 108.413 32.4529C109.017 32.2308 109.554 31.8575 109.973 31.3686C110.392 30.8797 110.678 30.2916 110.805 29.6605C110.931 29.0294 110.894 28.3764 110.696 27.7639C110.498 27.1513 110.147 26.5998 109.675 26.1619L104.863 21.4092L99.6615 26.7125Z" fill="#F89A6E"/>
<path d="M103.064 30.1733C103.064 30.1733 106.044 24.0252 104.865 21.4096C102.3 15.7053 97.9843 22.6994 97.9843 22.6994L100.346 27.4107L103.064 30.1733Z" fill="#E88057"/>
<path d="M85.6439 17.6958C85.6056 19.8842 86.2172 22.0348 87.4012 23.8757C88.5853 25.7166 90.2886 27.165 92.2958 28.0378C94.303 28.9106 96.524 29.1686 98.6778 28.7791C100.832 28.3896 102.822 27.3702 104.396 25.8498C105.971 24.3293 107.059 22.3761 107.523 20.2372C107.988 18.0983 107.807 15.8697 107.005 13.8332C106.203 11.7968 104.815 10.0439 103.016 8.79636C101.218 7.54881 99.0899 6.86257 96.9015 6.82444C93.9671 6.7733 91.1325 7.88991 89.0213 9.92866C86.9101 11.9674 85.6952 14.7613 85.6439 17.6958V17.6958Z" fill="#F89A6E"/>
<path d="M101.344 18.2089C101.344 18.2089 103.366 27.0139 109.395 24.5347C115.425 22.0554 105.33 8.13944 105.33 8.13944L91.6824 2.86816L78.8517 12.8467L80.2791 21.4887C80.2791 21.4887 84.8541 18.2303 98.4132 12.9911L101.344 18.2089Z" fill="#243051"/>
<path d="M94.7297 15.7859L100.463 19.3076L102.201 13.9214L94.7297 15.7859Z" fill="#243051"/>
<path d="M101.979 20.2926C101.979 20.2926 111.526 46.3029 123.41 34.4345C133.95 23.9079 118.011 17.5086 113.694 16.3806C110.392 15.5185 109.128 14.3918 104.963 10.5239L96.701 11.7121L101.979 20.2926Z" fill="#243051"/>
<path d="M99.0721 17.2808C99.0621 17.8659 99.2259 18.4409 99.5427 18.9329C99.8595 19.425 100.315 19.8121 100.852 20.0452C101.389 20.2784 101.982 20.3472 102.558 20.2428C103.134 20.1385 103.666 19.8658 104.087 19.4591C104.508 19.0525 104.799 18.5302 104.923 17.9583C105.047 17.3863 104.998 16.7905 104.784 16.2461C104.569 15.7016 104.198 15.233 103.717 14.8995C103.236 14.566 102.667 14.3826 102.082 14.3725C101.693 14.3658 101.307 14.4357 100.946 14.5782C100.584 14.7207 100.254 14.9331 99.9746 15.2032C99.6951 15.4732 99.4715 15.7957 99.3166 16.1522C99.1618 16.5087 99.0787 16.8922 99.0721 17.2808V17.2808Z" fill="#F89A6E"/>
<path d="M84.5587 19.4023C84.5587 19.4023 80.1949 12.7731 83.9692 5.9033C84.7096 4.55146 85.7174 3.36442 86.9311 2.41443C88.1449 1.46443 89.5392 0.771361 91.0293 0.377389C92.5195 -0.0165838 94.0742 -0.103214 95.5988 0.122772C97.1235 0.348757 98.5862 0.882645 99.898 1.69191C102.456 3.32248 104.442 5.20831 106.172 10.1842L84.5587 19.4023Z" fill="#FDD63B"/>
<path d="M106.444 11.3527C106.407 11.375 106.368 11.3946 106.328 11.4115L81.792 21.9701C81.5107 22.0896 81.1935 22.0924 80.9101 21.978C80.6268 21.8636 80.4005 21.6413 80.281 21.36C80.1616 21.0787 80.1587 20.7615 80.2731 20.4781C80.3876 20.1948 80.6098 19.9685 80.8911 19.849L105.427 9.29045C105.698 9.17432 106.003 9.16644 106.279 9.26845C106.556 9.37045 106.782 9.57456 106.913 9.83874C107.043 10.1029 107.067 10.407 106.98 10.6885C106.893 10.9699 106.701 11.2071 106.444 11.3514V11.3527Z" fill="#F2A62F"/>
<path d="M84.0895 81.2505L59.6457 106.316L53.3961 103.55L74.5507 73.544C75.0295 72.7521 75.6958 72.0901 76.4908 71.6164C77.2859 71.1426 78.1852 70.8718 79.1096 70.8277C80.034 70.7836 80.9551 70.9676 81.7916 71.3634C82.6281 71.7593 83.3544 72.3549 83.9065 73.0976V73.0976C84.6028 74.3375 84.9837 75.7295 85.0157 77.1512C85.0476 78.5729 84.7296 79.9806 84.0895 81.2505V81.2505Z" fill="#1B1754"/>
<path d="M43.9697 103.417L56.3259 112.075L59.6672 106.226L53.3121 101.772C52.5904 101.266 51.7763 100.908 50.9161 100.717C50.0559 100.526 49.1665 100.506 48.2988 100.659C47.431 100.812 46.6018 101.134 45.8586 101.607C45.1153 102.08 44.4726 102.695 43.967 103.417H43.9697Z" fill="#243051"/>
<path d="M100.99 66.3081L76.2642 70.7106L81.363 80.3617H114.541C114.541 80.3617 124.516 80.1265 119.913 69.1923L100.99 66.3081Z" fill="#2A2B7B"/>
<path d="M85.3888 73.8605L97.1649 112.826L90.5264 116.633L71.9058 78.9941C71.4676 78.1782 71.2371 77.2668 71.2348 76.3407C71.2324 75.4145 71.4582 74.502 71.8922 73.6838C72.3262 72.8656 72.955 72.1669 73.7231 71.6495C74.4913 71.132 75.375 70.8118 76.2963 70.7169V70.7169C78.654 70.4737 84.353 71.73 85.3888 73.8605Z" fill="#2A2B7B"/>
<path d="M87.4857 125.503L99.8272 119.006L97.1649 112.826L90.2978 116.441C88.7239 117.271 87.5441 118.692 87.0177 120.391C86.4914 122.09 86.6617 123.929 87.4911 125.503H87.4857Z" fill="#243051"/>
<path d="M99.5721 36.9739C99.5721 36.9739 100.569 32.6061 101.836 31.2589C102.738 30.2992 105.979 27.2386 107.769 26.581C108.031 26.4844 108.312 26.4486 108.589 26.4764C108.867 26.5042 109.135 26.5948 109.373 26.7414C114.538 30.0661 118.384 35.0857 120.251 40.938C123.022 49.2633 123.615 72.96 123.615 72.96C115.739 78.0762 100.995 66.308 100.995 66.308C101.368 51.5434 97.7223 50.7949 99.5721 36.9739Z" fill="#9DDCA0"/>
<path d="M97.9844 66.8436L109.6 67.3782C110.334 67.4481 111.074 67.3663 111.775 67.1378C112.476 66.9094 113.122 66.5392 113.674 66.0503C114.225 65.5614 114.67 64.9642 114.981 64.2959C115.292 63.6276 115.462 62.9025 115.481 62.1657L115.997 42.1284L97.9844 66.8436Z" fill="#63C767"/>
<path d="M87.5286 63.9986L80.6575 61.5434C80.3837 61.4456 80.0893 61.42 79.8027 61.4692C79.5162 61.5183 79.2471 61.6406 79.0216 61.8241L75.9649 64.3154C75.7599 64.4826 75.6016 64.7 75.5052 64.9464C75.4088 65.1928 75.3776 65.4599 75.4147 65.7219C75.4518 65.9838 75.5559 66.2318 75.7169 66.4417C75.8779 66.6517 76.0904 66.8165 76.3338 66.9203C76.5999 67.0337 76.8927 67.0697 77.1783 67.024C77.4639 66.9784 77.7309 66.853 77.9484 66.6623L79.4186 65.3766C79.4186 65.3766 84.4506 68.2555 86.8323 67.4656L87.5286 63.9986Z" fill="#F97D7D"/>
<path d="M105.038 33.4829L103.836 55.9794L85.5398 60.7294L86.2976 67.5791L108.654 65.2402C110.24 65.1346 111.722 64.4126 112.782 63.2287C113.344 62.562 113.688 61.7393 113.769 60.8711L116.546 37.5393L105.038 33.4829Z" fill="#9DDCA0"/>
<path d="M74.2675 72.9627L100.224 68.4185C100.414 68.3854 100.594 68.3153 100.757 68.2123C100.919 68.1092 101.059 67.9753 101.169 67.818C101.28 67.6608 101.358 67.4833 101.4 67.2958C101.441 67.1082 101.446 66.9143 101.412 66.7251V66.7251C101.38 66.5358 101.31 66.3548 101.207 66.1926C101.104 66.0303 100.97 65.89 100.812 65.7796C100.655 65.6693 100.477 65.591 100.29 65.5494C100.102 65.5077 99.9083 65.5035 99.7191 65.5369L73.7623 70.0811C73.3809 70.1499 73.042 70.3666 72.8195 70.684C72.597 71.0014 72.5088 71.3938 72.5742 71.7759V71.7759C72.6433 72.1568 72.8599 72.4951 73.1769 72.7173C73.494 72.9395 73.8859 73.0277 74.2675 72.9627V72.9627Z" fill="#243051"/>
<path d="M74.46 71.5663C74.3823 71.5664 74.3055 71.5498 74.2347 71.5178C74.1639 71.4857 74.1008 71.4389 74.0496 71.3805L58.4229 53.6729C58.3267 53.5639 58.2777 53.4211 58.2867 53.2759C58.2957 53.1308 58.362 52.9952 58.471 52.899C58.58 52.8027 58.7228 52.7538 58.8679 52.7628C59.0131 52.7718 59.1486 52.8381 59.2449 52.9471L74.8716 70.6548C74.9411 70.7341 74.9864 70.8317 75.0019 70.9361C75.0175 71.0404 75.0027 71.147 74.9592 71.2431C74.9158 71.3392 74.8457 71.4208 74.7571 71.4781C74.6686 71.5354 74.5654 71.5661 74.46 71.5663V71.5663Z" fill="#243051"/>
<path d="M104.827 26.3298C104.827 26.3298 112.229 44.131 122.352 35.2591C132.475 26.3872 111.311 21.271 111.311 21.271L104.827 26.3298Z" fill="#243051"/>
<path d="M306.522 277.793L319.73 243.658C319.869 243.299 320.114 242.99 320.431 242.772C320.749 242.554 321.126 242.438 321.511 242.438C321.896 242.438 322.272 242.554 322.59 242.772C322.908 242.99 323.152 243.299 323.292 243.658L336.495 277.793H306.522Z" fill="#F2A62F"/>
<path d="M333.031 251H309.582V257.569H333.031V251Z" fill="#FAFAFA"/>
<path d="M334.823 263.414H308.301V269.983H334.823V263.414Z" fill="#FAFAFA"/>
<path d="M338.563 280.672H304.615C304.303 280.672 303.994 280.61 303.706 280.491C303.417 280.371 303.155 280.196 302.935 279.976C302.714 279.755 302.539 279.493 302.42 279.205C302.301 278.916 302.24 278.607 302.24 278.295V278.295C302.24 277.666 302.49 277.061 302.935 276.616C303.381 276.171 303.985 275.92 304.615 275.92H338.563C339.193 275.92 339.797 276.171 340.243 276.616C340.688 277.061 340.939 277.665 340.939 278.295C340.939 278.608 340.878 278.917 340.758 279.205C340.639 279.493 340.464 279.755 340.243 279.976C340.022 280.196 339.76 280.371 339.472 280.491C339.184 280.61 338.875 280.672 338.563 280.672V280.672Z" fill="#EB9924"/>
<path d="M57.0612 238.463H46.7365V267.656H57.0612V238.463Z" fill="#8BBDF8"/>
<path d="M111.503 238.463H101.179V267.656H111.503V238.463Z" fill="#8BBDF8"/>
<path d="M117.206 266.021H40.4359C37.9468 266.021 35.9291 268.039 35.9291 270.528V276.239C35.9291 278.728 37.9468 280.746 40.4359 280.746H117.206C119.695 280.746 121.713 278.728 121.713 276.239V270.528C121.713 268.039 119.695 266.021 117.206 266.021Z" fill="#5B62DB"/>
<path d="M115.787 214.504H42.8015C39.006 214.504 35.9291 217.581 35.9291 221.376V233.958C35.9291 237.754 39.006 240.831 42.8015 240.831H115.787C119.582 240.831 122.659 237.754 122.659 233.958V221.376C122.659 217.581 119.582 214.504 115.787 214.504Z" fill="#F2A62F"/>
<path d="M34.8398 250.067H19.2131L55.6336 209.661H71.2643L34.8398 250.067Z" fill="white"/>
<path d="M98.3251 250.066H82.701L119.122 209.66H134.752L98.3251 250.066Z" fill="white"/>
<path d="M65.9355 250.066H50.3048L86.7253 209.66H102.356L65.9355 250.066Z" fill="white"/>
</svg>
