<svg xmlns="http://www.w3.org/2000/svg" viewBox="0 0 512 512"><path d="M221.91 161.408l-15.078-8.195 77.723-143.01 15.079 8.194zm-48.415.007L95.77 18.405l15.079-8.196 77.723 143.011z" fill="#999"/><g fill="#aaa"><circle cx="292.086" cy="14.302" r="14.302"/><circle cx="103.315" cy="14.302" r="14.302"/></g><path d="M507.709 489.117c0 12.585-10.297 22.883-22.883 22.883H27.173C14.588 512 4.29 501.703 4.29 489.117V168.76c0-12.585 10.297-22.883 22.883-22.883h457.654c12.585 0 22.883 10.297 22.883 22.883v320.357z" fill="#fff"/><g fill="#111"><circle cx="433.341" cy="220.246" r="28.603"/><circle cx="433.341" cy="311.777" r="28.603"/></g><path d="M461.944 474.816h-57.207a8.58 8.58 0 0 1-8.581-8.581 8.58 8.58 0 0 1 8.581-8.581h57.207a8.58 8.58 0 0 1 8.581 8.581 8.58 8.58 0 0 1-8.581 8.581zm0-34.324h-57.207a8.58 8.58 0 0 1-8.581-8.581 8.58 8.58 0 0 1 8.581-8.581h57.207a8.58 8.58 0 0 1 8.581 8.581 8.58 8.58 0 0 1-8.581 8.581zm0-34.324h-57.207c-4.74 0-8.581-3.842-8.581-8.581s3.841-8.581 8.581-8.581h57.207c4.74 0 8.581 3.842 8.581 8.581s-3.841 8.581-8.581 8.581z" fill="#111"/><path d="M328.407 220.017c42.666 32.012 38.788 178.28 0 214.295-45.841 42.564-201.948 42.564-247.787 0-38.788-36.015-42.666-182.282 0-214.295 50.422-37.833 197.362-37.833 247.787 0z" fill="#444"/></svg>